ClassWizXDisplay-Regular.ufo
<glyph name="quotedbl" format="2">
  <advance width="110"/>
  <unicode hex="0022"/>
  <outline>
    <contour>
      <point x="10" y="90" type="line"/>
      <point x="10" y="120" type="line"/>
      <point x="40" y="120" type="line"/>
      <point x="40" y="80" type="line"/>
      <point x="30" y="80" type="line"/>
      <point x="30" y="70" type="line"/>
      <point x="10" y="70" type="line"/>
      <point x="10" y="80" type="line"/>
      <point x="20" y="80" type="line"/>
      <point x="20" y="90" type="line"/>
    </contour>
    <contour>
      <point x="50" y="90" type="line"/>
      <point x="50" y="120" type="line"/>
      <point x="80" y="120" type="line"/>
      <point x="80" y="80" type="line"/>
      <point x="70" y="80" type="line"/>
      <point x="70" y="70" type="line"/>
      <point x="50" y="70" type="line"/>
      <point x="50" y="80" type="line"/>
      <point x="60" y="80" type="line"/>
      <point x="60" y="90" type="line"/>
    </contour>
  </outline>
</glyph>
<glyph name="numbersign" format="2">
  <advance width="110"/>
  <unicode hex="0023"/>
  <outline>
    <contour>
      <point x="30" y="40" type="line"/>
      <point x="30" y="80" type="line"/>
      <point x="20" y="80" type="line"/>
      <point x="20" y="90" type="line"/>
      <point x="40" y="90" type="line"/>
      <point x="40" y="120" type="line"/>
      <point x="60" y="120" type="line"/>
      <point x="60" y="90" type="line"/>
      <point x="80" y="90" type="line"/>
      <point x="80" y="120" type="line"/>
      <point x="100" y="120" type="line"/>
      <point x="100" y="90" type="line"/>
      <point x="110" y="90" type="line"/>
      <point x="110" y="80" type="line"/>
      <point x="90" y="80" type="line"/>
      <point x="90" y="40" type="line"/>
      <point x="100" y="40" type="line"/>
      <point x="100" y="30" type="line"/>
      <point x="80" y="30" type="line"/>
      <point x="80" y="0" type="line"/>
      <point x="60" y="0" type="line"/>
      <point x="60" y="30" type="line"/>
      <point x="40" y="30" type="line"/>
      <point x="40" y="0" type="line"/>
      <point x="20" y="0" type="line"/>
      <point x="20" y="30" type="line"/>
      <point x="10" y="30" type="line"/>
      <point x="10" y="40" type="line"/>
    </contour>
    <contour>
      <point x="50" y="40" type="line"/>
      <point x="70" y="40" type="line"/>
      <point x="70" y="80" type="line"/>
      <point x="50" y="80" type="line"/>
    </contour>
  </outline>
</glyph>
<glyph name="quotesingle" format="2">
  <advance width="110"/>
  <unicode hex="0027"/>
  <outline>
    <contour>
      <point x="30" y="90" type="line"/>
      <point x="30" y="120" type="line"/>
      <point x="60" y="120" type="line"/>
      <point x="60" y="80" type="line"/>
      <point x="50" y="80" type="line"/>
      <point x="50" y="70" type="line"/>
      <point x="30" y="70" type="line"/>
      <point x="30" y="80" type="line"/>
      <point x="40" y="80" type="line"/>
      <point x="40" y="90" type="line"/>
    </contour>
  </outline>
</glyph>
<glyph name="parenright" format="2">
  <advance width="110"/>
  <unicode hex="0029"/>
  <outline>
    <contour>
      <point x="30" y="120" type="line"/>
      <point x="30" y="110" type="line"/>
      <point x="40" y="110" type="line"/>
      <point x="40" y="100" type="line"/>
      <point x="50" y="100" type="line"/>
      <point x="50" y="80" type="line"/>
      <point x="60" y="80" type="line"/>
      <point x="60" y="40" type="line"/>
      <point x="50" y="40" type="line"/>
      <point x="50" y="20" type="line"/>
      <point x="40" y="20" type="line"/>
      <point x="40" y="10" type="line"/>
      <point x="30" y="10" type="line"/>
      <point x="30" y="0" type="line"/>
      <point x="50" y="0" type="line"/>
      <point x="50" y="10" type="line"/>
      <point x="60" y="10" type="line"/>
      <point x="60" y="20" type="line"/>
      <point x="70" y="20" type="line"/>
      <point x="70" y="40" type="line"/>
      <point x="80" y="40" type="line"/>
      <point x="80" y="80" type="line"/>
      <point x="70" y="80" type="line"/>
      <point x="70" y="100" type="line"/>
      <point x="60" y="100" type="line"/>
      <point x="60" y="110" type="line"/>
      <point x="50" y="110" type="line"/>
      <point x="50" y="120" type="line"/>
    </contour>
  </outline>
</glyph>
<glyph name="one" format="2">
  <advance width="110"/>
  <unicode hex="0031"/>
  <outline>
    <contour>
      <point x="20" y="0" type="line"/>
      <point x="80" y="0" type="line"/>
      <point x="80" y="10" type="line"/>
      <point x="60" y="10" type="line"/>
      <point x="60" y="120" type="line"/>
      <point x="40" y="120" type="line"/>
      <point x="40" y="110" type="line"/>
      <point x="20" y="110" type="line"/>
      <point x="20" y="100" type="line"/>
      <point x="40" y="100" type="line"/>
      <point x="40" y="10" type="line"/>
      <point x="20" y="10" type="line"/>
    </contour>
  </outline>
</glyph>
<glyph name="colon" format="2">
  <advance width="110"/>
  <unicode hex="003A"/>
  <outline>
    <contour>
      <point x="40" y="10" type="line"/>
      <point x="70" y="10" type="line"/>
      <point x="70" y="40" type="line"/>
      <point x="40" y="40" type="line"/>
    </contour>
    <contour>
      <point x="40" y="70" type="line"/>
      <point x="70" y="70" type="line"/>
      <point x="70" y="100" type="line"/>
      <point x="40" y="100" type="line"/>
    </contour>
  </outline>
</glyph>
<glyph name="semicolon" format="2">
  <advance width="110"/>
  <unicode hex="003B"/>
  <outline>
    <contour>
      <point x="40" y="10" type="line"/>
      <point x="40" y="40" type="line"/>
      <point x="70" y="40" type="line"/>
      <point x="70" y="0" type="line"/>
      <point x="60" y="0" type="line"/>
      <point x="60" y="-10" type="line"/>
      <point x="40" y="-10" type="line"/>
      <point x="40" y="0" type="line"/>
      <point x="50" y="0" type="line"/>
      <point x="50" y="10" type="line"/>
    </contour>
    <contour>
      <point x="40" y="70" type="line"/>
      <point x="70" y="70" type="line"/>
      <point x="70" y="100" type="line"/>
      <point x="40" y="100" type="line"/>
    </contour>
  </outline>
</glyph>
<glyph name="equal" format="2">
  <advance width="110"/>
  <unicode hex="003D"/>
  <outline>
    <contour>
      <point x="0" y="90" type="line"/>
      <point x="100" y="90" type="line"/>
      <point x="100" y="70" type="line"/>
      <point x="0" y="70" type="line"/>
    </contour>
    <contour>
      <point x="0" y="50" type="line"/>
      <point x="100" y="50" type="line"/>
      <point x="100" y="30" type="line"/>
      <point x="0" y="30" type="line"/>
    </contour>
  </outline>
</glyph>
<glyph name="F" format="2">
  <advance width="110"/>
  <unicode hex="0046"/>
  <outline>
    <contour>
      <point x="0" y="120" type="line"/>
      <point x="0" y="110" type="line"/>
      <point x="10" y="110" type="line"/>
      <point x="10" y="10" type="line"/>
      <point x="0" y="10" type="line"/>
      <point x="0" y="0" type="line"/>
      <point x="50" y="0" type="line"/>
      <point x="50" y="10" type="line"/>
      <point x="30" y="10" type="line"/>
      <point x="30" y="60" type="line"/>
      <point x="60" y="60" type="line"/>
      <point x="60" y="40" type="line"/>
      <point x="70" y="40" type="line"/>
      <point x="70" y="90" type="line"/>
      <point x="60" y="90" type="line"/>
      <point x="60" y="70" type="line"/>
      <point x="30" y="70" type="line"/>
      <point x="30" y="110" type="line"/>
      <point x="80" y="110" type="line"/>
      <point x="80" y="100" type="line"/>
      <point x="90" y="100" type="line"/>
      <point x="90" y="90" type="line"/>
      <point x="100" y="90" type="line"/>
      <point x="100" y="120" type="line"/>
    </contour>
  </outline>
</glyph>
<glyph name="I" format="2">
  <advance width="110"/>
  <unicode hex="0049"/>
  <outline>
    <contour>
      <point x="30" y="110" type="line"/>
      <point x="30" y="120" type="line"/>
      <point x="70" y="120" type="line"/>
      <point x="70" y="110" type="line"/>
      <point x="60" y="110" type="line"/>
      <point x="60" y="10" type="line"/>
      <point x="70" y="10" type="line"/>
      <point x="70" y="0" type="line"/>
      <point x="30" y="0" type="line"/>
      <point x="30" y="10" type="line"/>
      <point x="40" y="10" type="line"/>
      <point x="40" y="110" type="line"/>
    </contour>
  </outline>
</glyph>
<glyph name="Q" format="2">
  <advance width="110"/>
  <unicode hex="0051"/>
  <outline>
    <contour>
      <point x="10" y="90" type="line"/>
      <point x="10" y="110" type="line"/>
      <point x="20" y="110" type="line"/>
      <point x="20" y="120" type="line"/>
      <point x="80" y="120" type="line"/>
      <point x="80" y="110" type="line"/>
      <point x="90" y="110" type="line"/>
      <point x="90" y="90" type="line"/>
      <point x="100" y="90" type="line"/>
      <point x="100" y="30" type="line"/>
      <point x="90" y="30" type="line"/>
      <point x="90" y="10" type="line"/>
      <point x="80" y="10" type="line"/>
      <point x="80" y="0" type="line"/>
      <point x="90" y="0" type="line"/>
      <point x="90" y="-10" type="line"/>
      <point x="60" y="-10" type="line"/>
      <point x="60" y="0" type="line"/>
      <point x="20" y="0" type="line"/>
      <point x="20" y="10" type="line"/>
      <point x="10" y="10" type="line"/>
      <point x="10" y="30" type="line"/>
      <point x="0" y="30" type="line"/>
      <point x="0" y="90" type="line"/>
    </contour>
    <contour>
      <point x="20" y="30" type="line"/>
      <point x="40" y="30" type="line"/>
      <point x="40" y="20" type="line"/>
      <point x="30" y="20" type="line"/>
      <point x="30" y="10" type="line"/>
      <point x="60" y="10" type="line"/>
      <point x="60" y="30" type="line"/>
      <point x="70" y="30" type="line"/>
      <point x="70" y="20" type="line"/>
      <point x="80" y="20" type="line"/>
      <point x="80" y="90" type="line"/>
      <point x="70" y="90" type="line"/>
      <point x="70" y="110" type="line"/>
      <point x="30" y="110" type="line"/>
      <point x="30" y="90" type="line"/>
      <point x="20" y="90" type="line"/>
    </contour>
    <contour>
      <point x="40" y="40" type="line"/>
      <point x="60" y="40" type="line"/>
      <point x="60" y="30" type="line"/>
      <point x="40" y="30" type="line"/>
    </contour>
  </outline>
</glyph>
<glyph name="T" format="2">
  <advance width="110"/>
  <unicode hex="0054"/>
  <outline>
    <contour>
      <point x="10" y="90" type="line"/>
      <point x="10" y="100" type="line"/>
      <point x="20" y="100" type="line"/>
      <point x="20" y="110" type="line"/>
      <point x="40" y="110" type="line"/>
      <point x="40" y="10" type="line"/>
      <point x="30" y="10" type="line"/>
      <point x="30" y="0" type="line"/>
      <point x="70" y="0" type="line"/>
      <point x="70" y="10" type="line"/>
      <point x="60" y="10" type="line"/>
      <point x="60" y="110" type="line"/>
      <point x="80" y="110" type="line"/>
      <point x="80" y="100" type="line"/>
      <point x="90" y="100" type="line"/>
      <point x="90" y="90" type="line"/>
      <point x="100" y="90" type="line"/>
      <point x="100" y="120" type="line"/>
      <point x="0" y="120" type="line"/>
      <point x="0" y="90" type="line"/>
    </contour>
  </outline>
</glyph>
<glyph name="U" format="2">
  <advance width="110"/>
  <unicode hex="0055"/>
  <outline>
    <contour>
      <point x="10" y="110" type="line"/>
      <point x="0" y="110" type="line"/>
      <point x="0" y="120" type="line"/>
      <point x="40" y="120" type="line"/>
      <point x="40" y="110" type="line"/>
      <point x="30" y="110" type="line"/>
      <point x="30" y="20" type="line"/>
      <point x="40" y="20" type="line"/>
      <point x="40" y="10" type="line"/>
      <point x="70" y="10" type="line"/>
      <point x="70" y="20" type="line"/>
      <point x="80" y="20" type="line"/>
      <point x="80" y="110" type="line"/>
      <point x="70" y="110" type="line"/>
      <point x="70" y="120" type="line"/>
      <point x="100" y="120" type="line"/>
      <point x="100" y="110" type="line"/>
      <point x="90" y="110" type="line"/>
      <point x="90" y="20" type="line"/>
      <point x="80" y="20" type="line"/>
      <point x="80" y="10" type="line"/>
      <point x="70" y="10" type="line"/>
      <point x="70" y="0" type="line"/>
      <point x="30" y="0" type="line"/>
      <point x="30" y="10" type="line"/>
      <point x="20" y="10" type="line"/>
      <point x="20" y="20" type="line"/>
      <point x="10" y="20" type="line"/>
    </contour>
  </outline>
</glyph>
<glyph name="W" format="2">
  <advance width="110"/>
  <unicode hex="0057"/>
  <outline>
    <contour>
      <point x="0" y="110" type="line"/>
      <point x="10" y="110" type="line"/>
      <point x="10" y="70" type="line"/>
      <point x="20" y="70" type="line"/>
      <point x="20" y="20" type="line"/>
      <point x="30" y="20" type="line"/>
      <point x="30" y="0" type="line"/>
      <point x="40" y="0" type="line"/>
      <point x="40" y="20" type="line"/>
      <point x="50" y="20" type="line"/>
      <point x="50" y="70" type="line"/>
      <point x="60" y="70" type="line"/>
      <point x="60" y="20" type="line"/>
      <point x="70" y="20" type="line"/>
      <point x="70" y="0" type="line"/>
      <point x="80" y="0" type="line"/>
      <point x="80" y="20" type="line"/>
      <point x="90" y="20" type="line"/>
      <point x="90" y="70" type="line"/>
      <point x="100" y="70" type="line"/>
      <point x="100" y="120" type="line"/>
      <point x="80" y="120" type="line"/>
      <point x="80" y="110" type="line"/>
      <point x="90" y="110" type="line"/>
      <point x="90" y="80" type="line"/>
      <point x="80" y="80" type="line"/>
      <point x="80" y="50" type="line"/>
      <point x="70" y="50" type="line"/>
      <point x="70" y="120" type="line"/>
      <point x="50" y="120" type="line"/>
      <point x="50" y="80" type="line"/>
      <point x="40" y="80" type="line"/>
      <point x="40" y="50" type="line"/>
      <point x="30" y="50" type="line"/>
      <point x="30" y="110" type="line"/>
      <point x="40" y="110" type="line"/>
      <point x="40" y="120" type="line"/>
      <point x="0" y="120" type="line"/>
    </contour>
  </outline>
</glyph>
<glyph name="Z" format="2">
  <advance width="110"/>
  <unicode hex="005A"/>
  <outline>
    <contour>
      <point x="90" y="30" type="line"/>
      <point x="90" y="20" type="line"/>
      <point x="80" y="20" type="line"/>
      <point x="80" y="10" type="line"/>
      <point x="30" y="10" type="line"/>
      <point x="30" y="20" type="line"/>
      <point x="40" y="20" type="line"/>
      <point x="40" y="40" type="line"/>
      <point x="50" y="40" type="line"/>
      <point x="50" y="50" type="line"/>
      <point x="60" y="50" type="line"/>
      <point x="60" y="70" type="line"/>
      <point x="70" y="70" type="line"/>
      <point x="70" y="80" type="line"/>
      <point x="80" y="80" type="line"/>
      <point x="80" y="100" type="line"/>
      <point x="90" y="100" type="line"/>
      <point x="90" y="110" type="line"/>
      <point x="100" y="110" type="line"/>
      <point x="100" y="120" type="line"/>
      <point x="0" y="120" type="line"/>
      <point x="0" y="90" type="line"/>
      <point x="10" y="90" type="line"/>
      <point x="10" y="100" type="line"/>
      <point x="20" y="100" type="line"/>
      <point x="20" y="110" type="line"/>
      <point x="70" y="110" type="line"/>
      <point x="70" y="100" type="line"/>
      <point x="60" y="100" type="line"/>
      <point x="60" y="80" type="line"/>
      <point x="50" y="80" type="line"/>
      <point x="50" y="70" type="line"/>
      <point x="40" y="70" type="line"/>
      <point x="40" y="50" type="line"/>
      <point x="30" y="50" type="line"/>
      <point x="30" y="40" type="line"/>
      <point x="20" y="40" type="line"/>
      <point x="20" y="20" type="line"/>
      <point x="10" y="20" type="line"/>
      <point x="10" y="10" type="line"/>
      <point x="0" y="10" type="line"/>
      <point x="0" y="0" type="line"/>
      <point x="100" y="0" type="line"/>
      <point x="100" y="30" type="line"/>
    </contour>
  </outline>
</glyph>
<glyph name="bracketleft" format="2">
  <advance width="110"/>
  <unicode hex="005B"/>
  <outline>
    <contour>
      <point x="30" y="0" type="line"/>
      <point x="80" y="0" type="line"/>
      <point x="80" y="10" type="line"/>
      <point x="50" y="10" type="line"/>
      <point x="50" y="110" type="line"/>
      <point x="80" y="110" type="line"/>
      <point x="80" y="120" type="line"/>
      <point x="30" y="120" type="line"/>
    </contour>
  </outline>
</glyph>
<glyph name="bracketright" format="2">
  <advance width="110"/>
  <unicode hex="005D"/>
  <outline>
    <contour>
      <point x="30" y="120" type="line"/>
      <point x="30" y="110" type="line"/>
      <point x="60" y="110" type="line"/>
      <point x="60" y="10" type="line"/>
      <point x="30" y="10" type="line"/>
      <point x="30" y="0" type="line"/>
      <point x="80" y="0" type="line"/>
      <point x="80" y="120" type="line"/>
    </contour>
  </outline>
</glyph>
<glyph name="g" format="2">
  <advance width="110"/>
  <unicode hex="0067"/>
  <outline>
    <contour>
      <point x="10" y="0" type="line"/>
      <point x="10" y="-10" type="line"/>
      <point x="80" y="-10" type="line"/>
      <point x="80" y="0" type="line"/>
      <point x="90" y="0" type="line"/>
      <point x="90" y="20" type="line"/>
      <point x="80" y="20" type="line"/>
      <point x="80" y="30" type="line"/>
      <point x="30" y="30" type="line"/>
      <point x="30" y="40" type="line"/>
      <point x="70" y="40" type="line"/>
      <point x="70" y="50" type="line"/>
      <point x="80" y="50" type="line"/>
      <point x="80" y="70" type="line"/>
      <point x="100" y="70" type="line"/>
      <point x="100" y="90" type="line"/>
      <point x="80" y="90" type="line"/>
      <point x="80" y="80" type="line"/>
      <point x="70" y="80" type="line"/>
      <point x="70" y="90" type="line"/>
      <point x="20" y="90" type="line"/>
      <point x="20" y="80" type="line"/>
      <point x="10" y="80" type="line"/>
      <point x="10" y="50" type="line"/>
      <point x="20" y="50" type="line"/>
      <point x="20" y="40" type="line"/>
      <point x="10" y="40" type="line"/>
      <point x="10" y="20" type="line"/>
      <point x="0" y="20" type="line"/>
      <point x="0" y="0" type="line"/>
    </contour>
    <contour>
      <point x="20" y="0" type="line"/>
      <point x="20" y="20" type="line"/>
      <point x="70" y="20" type="line"/>
      <point x="70" y="0" type="line"/>
    </contour>
    <contour>
      <point x="30" y="80" type="line"/>
      <point x="60" y="80" type="line"/>
      <point x="60" y="50" type="line"/>
      <point x="30" y="50" type="line"/>
    </contour>
  </outline>
</glyph>
<glyph name="h" format="2">
  <advance width="110"/>
  <unicode hex="0068"/>
  <outline>
    <contour>
      <point x="0" y="10" type="line"/>
      <point x="10" y="10" type="line"/>
      <point x="10" y="110" type="line"/>
      <point x="0" y="110" type="line"/>
      <point x="0" y="120" type="line"/>
      <point x="30" y="120" type="line"/>
      <point x="30" y="80" type="line"/>
      <point x="40" y="80" type="line"/>
      <point x="40" y="90" type="line"/>
      <point x="70" y="90" type="line"/>
      <point x="70" y="80" type="line"/>
      <point x="80" y="80" type="line"/>
      <point x="80" y="70" type="line"/>
      <point x="90" y="70" type="line"/>
      <point x="90" y="10" type="line"/>
      <point x="100" y="10" type="line"/>
      <point x="100" y="0" type="line"/>
      <point x="60" y="0" type="line"/>
      <point x="60" y="10" type="line"/>
      <point x="70" y="10" type="line"/>
      <point x="70" y="70" type="line"/>
      <point x="60" y="70" type="line"/>
      <point x="60" y="80" type="line"/>
      <point x="40" y="80" type="line"/>
      <point x="40" y="70" type="line"/>
      <point x="30" y="70" type="line"/>
      <point x="30" y="10" type="line"/>
      <point x="40" y="10" type="line"/>
      <point x="40" y="0" type="line"/>
      <point x="0" y="0" type="line"/>
    </contour>
  </outline>
</glyph>
<glyph name="j" format="2">
  <advance width="110"/>
  <unicode hex="006A"/>
  <outline>
    <contour>
      <point x="80" y="120" type="line"/>
      <point x="60" y="120" type="line"/>
      <point x="60" y="100" type="line"/>
      <point x="80" y="100" type="line"/>
    </contour>
    <contour>
      <point x="80" y="90" type="line"/>
      <point x="40" y="90" type="line"/>
      <point x="40" y="80" type="line"/>
      <point x="60" y="80" type="line"/>
      <point x="60" y="0" type="line"/>
      <point x="40" y="0" type="line"/>
      <point x="40" y="20" type="line"/>
      <point x="20" y="20" type="line"/>
      <point x="20" y="0" type="line"/>
      <point x="30" y="0" type="line"/>
      <point x="30" y="-10" type="line"/>
      <point x="70" y="-10" type="line"/>
      <point x="70" y="0" type="line"/>
      <point x="80" y="0" type="line"/>
    </contour>
  </outline>
</glyph>
<glyph name="l" format="2">
  <advance width="110"/>
  <unicode hex="006C"/>
  <outline>
    <contour>
      <point x="60" y="120" type="line"/>
      <point x="60" y="10" type="line"/>
      <point x="80" y="10" type="line"/>
      <point x="80" y="0" type="line"/>
      <point x="20" y="0" type="line"/>
      <point x="20" y="10" type="line"/>
      <point x="40" y="10" type="line"/>
      <point x="40" y="110" type="line"/>
      <point x="30" y="110" type="line"/>
      <point x="30" y="120" type="line"/>
    </contour>
  </outline>
</glyph>
<glyph name="n" format="2">
  <advance width="110"/>
  <unicode hex="006E"/>
  <outline>
    <contour>
      <point x="10" y="80" type="line"/>
      <point x="10" y="10" type="line"/>
      <point x="0" y="10" type="line"/>
      <point x="0" y="0" type="line"/>
      <point x="40" y="0" type="line"/>
      <point x="40" y="10" type="line"/>
      <point x="30" y="10" type="line"/>
      <point x="30" y="70" type="line"/>
      <point x="40" y="70" type="line"/>
      <point x="40" y="80" type="line"/>
      <point x="60" y="80" type="line"/>
      <point x="60" y="70" type="line"/>
      <point x="70" y="70" type="line"/>
      <point x="70" y="10" type="line"/>
      <point x="60" y="10" type="line"/>
      <point x="60" y="0" type="line"/>
      <point x="100" y="0" type="line"/>
      <point x="100" y="10" type="line"/>
      <point x="90" y="10" type="line"/>
      <point x="90" y="70" type="line"/>
      <point x="80" y="70" type="line"/>
      <point x="80" y="80" type="line"/>
      <point x="70" y="80" type="line"/>
      <point x="70" y="90" type="line"/>
      <point x="40" y="90" type="line"/>
      <point x="40" y="80" type="line"/>
      <point x="30" y="80" type="line"/>
      <point x="30" y="90" type="line"/>
      <point x="0" y="90" type="line"/>
      <point x="0" y="80" type="line"/>
    </contour>
  </outline>
</glyph>
<glyph name="p" format="2">
  <advance width="110"/>
  <unicode hex="0070"/>
  <outline>
    <contour>
      <point x="10" y="90" type="line"/>
      <point x="40" y="90" type="line"/>
      <point x="40" y="80" type="line"/>
      <point x="50" y="80" type="line"/>
      <point x="50" y="90" type="line"/>
      <point x="80" y="90" type="line"/>
      <point x="80" y="80" type="line"/>
      <point x="90" y="80" type="line"/>
      <point x="90" y="70" type="line"/>
      <point x="100" y="70" type="line"/>
      <point x="100" y="30" type="line"/>
      <point x="90" y="30" type="line"/>
      <point x="90" y="20" type="line"/>
      <point x="80" y="20" type="line"/>
      <point x="80" y="10" type="line"/>
      <point x="50" y="10" type="line"/>
      <point x="50" y="20" type="line"/>
      <point x="40" y="20" type="line"/>
      <point x="40" y="0" type="line"/>
      <point x="50" y="0" type="line"/>
      <point x="50" y="-10" type="line"/>
      <point x="10" y="-10" type="line"/>
      <point x="10" y="0" type="line"/>
      <point x="20" y="0" type="line"/>
      <point x="20" y="80" type="line"/>
      <point x="10" y="80" type="line"/>
    </contour>
    <contour>
      <point x="50" y="70" type="line"/>
      <point x="40" y="70" type="line"/>
      <point x="40" y="30" type="line"/>
      <point x="50" y="30" type="line"/>
      <point x="50" y="20" type="line"/>
      <point x="70" y="20" type="line"/>
      <point x="70" y="30" type="line"/>
      <point x="80" y="30" type="line"/>
      <point x="80" y="70" type="line"/>
      <point x="70" y="70" type="line"/>
      <point x="70" y="80" type="line"/>
      <point x="50" y="80" type="line"/>
    </contour>
  </outline>
</glyph>
<glyph name="v" format="2">
  <advance width="110"/>
  <unicode hex="0076"/>
  <outline>
    <contour>
      <point x="20" y="80" type="line"/>
      <point x="20" y="60" type="line"/>
      <point x="30" y="60" type="line"/>
      <point x="30" y="40" type="line"/>
      <point x="40" y="40" type="line"/>
      <point x="40" y="20" type="line"/>
      <point x="50" y="20" type="line"/>
      <point x="50" y="0" type="line"/>
      <point x="60" y="0" type="line"/>
      <point x="60" y="20" type="line"/>
      <point x="70" y="20" type="line"/>
      <point x="70" y="40" type="line"/>
      <point x="80" y="40" type="line"/>
      <point x="80" y="60" type="line"/>
      <point x="90" y="60" type="line"/>
      <point x="90" y="80" type="line"/>
      <point x="100" y="80" type="line"/>
      <point x="100" y="90" type="line"/>
      <point x="70" y="90" type="line"/>
      <point x="70" y="80" type="line"/>
      <point x="80" y="80" type="line"/>
      <point x="80" y="60" type="line"/>
      <point x="70" y="60" type="line"/>
      <point x="70" y="40" type="line"/>
      <point x="50" y="40" type="line"/>
      <point x="50" y="60" type="line"/>
      <point x="40" y="60" type="line"/>
      <point x="40" y="80" type="line"/>
      <point x="50" y="80" type="line"/>
      <point x="50" y="90" type="line"/>
      <point x="10" y="90" type="line"/>
      <point x="10" y="80" type="line"/>
    </contour>
  </outline>
</glyph>
<glyph name="x" format="2">
  <advance width="110"/>
  <unicode hex="0078"/>
  <outline>
    <contour>
      <point x="10" y="10" type="line"/>
      <point x="10" y="0" type="line"/>
      <point x="40" y="0" type="line"/>
      <point x="40" y="10" type="line"/>
      <point x="30" y="10" type="line"/>
      <point x="30" y="20" type="line"/>
      <point x="40" y="20" type="line"/>
      <point x="40" y="30" type="line"/>
      <point x="60" y="30" type="line"/>
      <point x="60" y="20" type="line"/>
      <point x="70" y="20" type="line"/>
      <point x="70" y="10" type="line"/>
      <point x="60" y="10" type="line"/>
      <point x="60" y="0" type="line"/>
      <point x="100" y="0" type="line"/>
      <point x="100" y="10" type="line"/>
      <point x="90" y="10" type="line"/>
      <point x="90" y="20" type="line"/>
      <point x="80" y="20" type="line"/>
      <point x="80" y="40" type="line"/>
      <point x="70" y="40" type="line"/>
      <point x="70" y="60" type="line"/>
      <point x="80" y="60" type="line"/>
      <point x="80" y="70" type="line"/>
      <point x="90" y="70" type="line"/>
      <point x="90" y="80" type="line"/>
      <point x="100" y="80" type="line"/>
      <point x="100" y="90" type="line"/>
      <point x="70" y="90" type="line"/>
      <point x="70" y="80" type="line"/>
      <point x="80" y="80" type="line"/>
      <point x="80" y="70" type="line"/>
      <point x="70" y="70" type="line"/>
      <point x="70" y="60" type="line"/>
      <point x="50" y="60" type="line"/>
      <point x="50" y="70" type="line"/>
      <point x="40" y="70" type="line"/>
      <point x="40" y="80" type="line"/>
      <point x="50" y="80" type="line"/>
      <point x="50" y="90" type="line"/>
      <point x="10" y="90" type="line"/>
      <point x="10" y="80" type="line"/>
      <point x="20" y="80" type="line"/>
      <point x="20" y="70" type="line"/>
      <point x="30" y="70" type="line"/>
      <point x="30" y="50" type="line"/>
      <point x="40" y="50" type="line"/>
      <point x="40" y="30" type="line"/>
      <point x="30" y="30" type="line"/>
      <point x="30" y="20" type="line"/>
      <point x="20" y="20" type="line"/>
      <point x="20" y="10" type="line"/>
    </contour>
  </outline>
</glyph>
<glyph name="braceleft" format="2">
  <advance width="110"/>
  <unicode hex="007B"/>
  <outline>
    <contour>
      <point x="80" y="120" type="line"/>
      <point x="80" y="110" type="line"/>
      <point x="60" y="110" type="line"/>
      <point x="60" y="70" type="line"/>
      <point x="50" y="70" type="line"/>
      <point x="50" y="60" type="line"/>
      <point x="40" y="60" type="line"/>
      <point x="40" y="50" type="line"/>
      <point x="50" y="50" type="line"/>
      <point x="50" y="40" type="line"/>
      <point x="60" y="40" type="line"/>
      <point x="60" y="0" type="line"/>
      <point x="80" y="0" type="line"/>
      <point x="80" y="-10" type="line"/>
      <point x="50" y="-10" type="line"/>
      <point x="50" y="0" type="line"/>
      <point x="40" y="0" type="line"/>
      <point x="40" y="40" type="line"/>
      <point x="30" y="40" type="line"/>
      <point x="30" y="50" type="line"/>
      <point x="20" y="50" type="line"/>
      <point x="20" y="60" type="line"/>
      <point x="30" y="60" type="line"/>
      <point x="30" y="70" type="line"/>
      <point x="40" y="70" type="line"/>
      <point x="40" y="110" type="line"/>
      <point x="50" y="110" type="line"/>
      <point x="50" y="120" type="line"/>
    </contour>
  </outline>
</glyph>
<glyph name="exclamdown" format="2">
  <advance width="110"/>
  <unicode hex="00A1"/>
  <outline>
    <contour>
      <point x="40" y="0" type="line"/>
      <point x="60" y="0" type="line"/>
      <point x="60" y="80" type="line"/>
      <point x="40" y="80" type="line"/>
    </contour>
    <contour>
      <point x="40" y="100" type="line"/>
      <point x="40" y="120" type="line"/>
      <point x="60" y="120" type="line"/>
      <point x="60" y="100" type="line"/>
    </contour>
  </outline>
</glyph>
<glyph name="degree" format="2">
  <advance width="110"/>
  <unicode hex="00B0"/>
  <outline>
    <contour>
      <point x="20" y="120" type="line"/>
      <point x="20" y="110" type="line"/>
      <point x="10" y="110" type="line"/>
      <point x="10" y="70" type="line"/>
      <point x="20" y="70" type="line"/>
      <point x="20" y="60" type="line"/>
      <point x="60" y="60" type="line"/>
      <point x="60" y="70" type="line"/>
      <point x="70" y="70" type="line"/>
      <point x="70" y="110" type="line"/>
      <point x="60" y="110" type="line"/>
      <point x="60" y="120" type="line"/>
    </contour>
    <contour>
      <point x="30" y="110" type="line"/>
      <point x="50" y="110" type="line"/>
      <point x="50" y="100" type="line"/>
      <point x="60" y="100" type="line"/>
      <point x="60" y="80" type="line"/>
      <point x="50" y="80" type="line"/>
      <point x="50" y="70" type="line"/>
      <point x="30" y="70" type="line"/>
      <point x="30" y="80" type="line"/>
      <point x="20" y="80" type="line"/>
      <point x="20" y="100" type="line"/>
      <point x="30" y="100" type="line"/>
    </contour>
  </outline>
</glyph>
<glyph name="threesuperior" format="2">
  <advance width="110"/>
  <unicode hex="00B3"/>
  <outline>
    <contour>
      <point x="10" y="110" type="line"/>
      <point x="20" y="110" type="line"/>
      <point x="20" y="120" type="line"/>
      <point x="70" y="120" type="line"/>
      <point x="70" y="110" type="line"/>
      <point x="80" y="110" type="line"/>
      <point x="80" y="90" type="line"/>
      <point x="70" y="90" type="line"/>
      <point x="70" y="80" type="line"/>
      <point x="80" y="80" type="line"/>
      <point x="80" y="60" type="line"/>
      <point x="70" y="60" type="line"/>
      <point x="70" y="50" type="line"/>
      <point x="20" y="50" type="line"/>
      <point x="20" y="60" type="line"/>
      <point x="10" y="60" type="line"/>
      <point x="10" y="70" type="line"/>
      <point x="30" y="70" type="line"/>
      <point x="30" y="60" type="line"/>
      <point x="60" y="60" type="line"/>
      <point x="60" y="80" type="line"/>
      <point x="30" y="80" type="line"/>
      <point x="30" y="90" type="line"/>
      <point x="60" y="90" type="line"/>
      <point x="60" y="110" type="line"/>
      <point x="30" y="110" type="line"/>
      <point x="30" y="100" type="line"/>
      <point x="10" y="100" type="line"/>
    </contour>
  </outline>
</glyph>
<glyph name="onesuperior" format="2">
  <advance width="110"/>
  <unicode hex="00B9"/>
  <outline>
    <contour>
      <point x="30" y="50" type="line"/>
      <point x="70" y="50" type="line"/>
      <point x="70" y="60" type="line"/>
      <point x="60" y="60" type="line"/>
      <point x="60" y="120" type="line"/>
      <point x="40" y="120" type="line"/>
      <point x="40" y="110" type="line"/>
      <point x="30" y="110" type="line"/>
      <point x="30" y="100" type="line"/>
      <point x="40" y="100" type="line"/>
      <point x="40" y="60" type="line"/>
      <point x="30" y="60" type="line"/>
    </contour>
  </outline>
</glyph>
<glyph name="AE" format="2">
  <advance width="110"/>
  <unicode hex="00C6"/>
  <outline>
    <contour>
      <point x="50" y="100" type="line"/>
      <point x="50" y="60" type="line"/>
      <point x="30" y="60" type="line"/>
      <point x="30" y="70" type="line"/>
      <point x="40" y="70" type="line"/>
      <point x="40" y="100" type="line"/>
    </contour>
    <contour>
      <point x="50" y="0" type="line"/>
      <point x="100" y="0" type="line"/>
      <point x="100" y="30" type="line"/>
      <point x="90" y="30" type="line"/>
      <point x="90" y="10" type="line"/>
      <point x="70" y="10" type="line"/>
      <point x="70" y="60" type="line"/>
      <point x="80" y="60" type="line"/>
      <point x="80" y="50" type="line"/>
      <point x="90" y="50" type="line"/>
      <point x="90" y="80" type="line"/>
      <point x="80" y="80" type="line"/>
      <point x="80" y="70" type="line"/>
      <point x="70" y="70" type="line"/>
      <point x="70" y="110" type="line"/>
      <point x="90" y="110" type="line"/>
      <point x="90" y="90" type="line"/>
      <point x="100" y="90" type="line"/>
      <point x="100" y="120" type="line"/>
      <point x="30" y="120" type="line"/>
      <point x="30" y="110" type="line"/>
      <point x="40" y="110" type="line"/>
      <point x="40" y="100" type="line"/>
      <point x="30" y="100" type="line"/>
      <point x="30" y="70" type="line"/>
      <point x="20" y="70" type="line"/>
      <point x="20" y="40" type="line"/>
      <point x="10" y="40" type="line"/>
      <point x="10" y="10" type="line"/>
      <point x="0" y="10" type="line"/>
      <point x="0" y="0" type="line"/>
      <point x="30" y="0" type="line"/>
      <point x="30" y="10" type="line"/>
      <point x="20" y="10" type="line"/>
      <point x="20" y="40" type="line"/>
      <point x="30" y="40" type="line"/>
      <point x="30" y="50" type="line"/>
      <point x="50" y="50" type="line"/>
    </contour>
  </outline>
</glyph>
<glyph name="Idieresis" format="2">
  <advance width="110"/>
  <unicode hex="00CF"/>
  <outline>
    <contour>
      <point x="50" y="120" type="line"/>
      <point x="70" y="120" type="line"/>
      <point x="70" y="100" type="line"/>
      <point x="50" y="100" type="line"/>
    </contour>
    <contour>
      <point x="20" y="120" type="line"/>
      <point x="40" y="120" type="line"/>
      <point x="40" y="100" type="line"/>
      <point x="20" y="100" type="line"/>
    </contour>
    <contour>
      <point x="30" y="80" type="line"/>
      <point x="30" y="90" type="line"/>
      <point x="70" y="90" type="line"/>
      <point x="70" y="80" type="line"/>
      <point x="60" y="80" type="line"/>
      <point x="60" y="10" type="line"/>
      <point x="70" y="10" type="line"/>
      <point x="70" y="0" type="line"/>
      <point x="30" y="0" type="line"/>
      <point x="30" y="10" type="line"/>
      <point x="40" y="10" type="line"/>
      <point x="40" y="80" type="line"/>
    </contour>
  </outline>
</glyph>
<glyph name="Thorn" format="2">
  <advance width="110"/>
  <unicode hex="00DE"/>
  <outline>
    <contour>
      <point x="30" y="40" type="line"/>
      <point x="70" y="40" type="line"/>
      <point x="70" y="50" type="line"/>
      <point x="80" y="50" type="line"/>
      <point x="80" y="70" type="line"/>
      <point x="70" y="70" type="line"/>
      <point x="70" y="80" type="line"/>
      <point x="30" y="80" type="line"/>
    </contour>
    <contour>
      <point x="30" y="30" type="line"/>
      <point x="30" y="10" type="line"/>
      <point x="40" y="10" type="line"/>
      <point x="40" y="0" type="line"/>
      <point x="0" y="0" type="line"/>
      <point x="0" y="10" type="line"/>
      <point x="10" y="10" type="line"/>
      <point x="10" y="110" type="line"/>
      <point x="0" y="110" type="line"/>
      <point x="0" y="120" type="line"/>
      <point x="40" y="120" type="line"/>
      <point x="40" y="110" type="line"/>
      <point x="30" y="110" type="line"/>
      <point x="30" y="90" type="line"/>
      <point x="80" y="90" type="line"/>
      <point x="80" y="80" type="line"/>
      <point x="90" y="80" type="line"/>
      <point x="90" y="70" type="line"/>
      <point x="100" y="70" type="line"/>
      <point x="100" y="50" type="line"/>
      <point x="90" y="50" type="line"/>
      <point x="90" y="40" type="line"/>
      <point x="80" y="40" type="line"/>
      <point x="80" y="30" type="line"/>
    </contour>
  </outline>
</glyph>
<glyph name="aring" format="2">
  <advance width="110"/>
  <unicode hex="00E5"/>
  <outline>
    <component base="a"/>
    <contour>
      <point x="70" y="90" type="line"/>
      <point x="40" y="90" type="line"/>
      <point x="40" y="120" type="line"/>
      <point x="70" y="120" type="line"/>
    </contour>
    <contour>
      <point x="50" y="110" type="line"/>
      <point x="50" y="100" type="line"/>
      <point x="60" y="100" type="line"/>
      <point x="60" y="110" type="line"/>
    </contour>
  </outline>
</glyph>
<glyph name="igrave" format="2">
  <advance width="110"/>
  <unicode hex="00EC"/>
  <outline>
    <contour>
      <point x="20" y="10" type="line"/>
      <point x="40" y="10" type="line"/>
      <point x="40" y="80" type="line"/>
      <point x="20" y="80" type="line"/>
      <point x="20" y="90" type="line"/>
      <point x="60" y="90" type="line"/>
      <point x="60" y="10" type="line"/>
      <point x="80" y="10" type="line"/>
      <point x="80" y="0" type="line"/>
      <point x="20" y="0" type="line"/>
    </contour>
    <contour>
      <point x="30" y="110" type="line"/>
      <point x="40" y="110" type="line"/>
      <point x="40" y="100" type="line"/>
      <point x="60" y="100" type="line"/>
      <point x="60" y="110" type="line"/>
      <point x="50" y="110" type="line"/>
      <point x="50" y="120" type="line"/>
      <point x="30" y="120" type="line"/>
    </contour>
  </outline>
</glyph>
<glyph name="otilde" format="2">
  <advance width="110"/>
  <unicode hex="00F5"/>
  <outline>
    <component base="o"/>
    <contour>
      <point x="30" y="100" type="line"/>
      <point x="20" y="100" type="line"/>
      <point x="20" y="110" type="line"/>
      <point x="30" y="110" type="line"/>
      <point x="30" y="120" type="line"/>
      <point x="50" y="120" type="line"/>
      <point x="50" y="110" type="line"/>
      <point x="70" y="110" type="line"/>
      <point x="70" y="120" type="line"/>
      <point x="80" y="120" type="line"/>
      <point x="80" y="110" type="line"/>
      <point x="70" y="110" type="line"/>
      <point x="70" y="100" type="line"/>
      <point x="50" y="100" type="line"/>
      <point x="50" y="110" type="line"/>
      <point x="30" y="110" type="line"/>
    </contour>
  </outline>
</glyph>
<glyph name="divide" format="2">
  <advance width="110"/>
  <unicode hex="00F7"/>
  <outline>
    <contour>
      <point x="0" y="70" type="line"/>
      <point x="100" y="70" type="line"/>
      <point x="100" y="50" type="line"/>
      <point x="0" y="50" type="line"/>
    </contour>
    <contour>
      <point x="40" y="30" type="line"/>
      <point x="60" y="30" type="line"/>
      <point x="60" y="0" type="line"/>
      <point x="40" y="0" type="line"/>
    </contour>
    <contour>
      <point x="40" y="120" type="line"/>
      <point x="60" y="120" type="line"/>
      <point x="60" y="90" type="line"/>
      <point x="40" y="90" type="line"/>
    </contour>
  </outline>
</glyph>
<glyph name="oslash" format="2">
  <advance width="110"/>
  <unicode hex="00F8"/>
  <outline>
    <component base="o"/>
    <contour>
      <point x="50" y="50" type="line"/>
      <point x="60" y="50" type="line"/>
      <point x="60" y="70" type="line"/>
      <point x="50" y="70" type="line"/>
    </contour>
    <contour>
      <point x="40" y="20" type="line"/>
      <point x="50" y="20" type="line"/>
      <point x="50" y="50" type="line"/>
      <point x="40" y="50" type="line"/>
    </contour>
    <contour>
      <point x="10" y="0" type="line"/>
      <point x="20" y="0" type="line"/>
      <point x="20" y="10" type="line"/>
      <point x="10" y="10" type="line"/>
    </contour>
    <contour>
      <point x="80" y="80" type="line"/>
      <point x="90" y="80" type="line"/>
      <point x="90" y="90" type="line"/>
      <point x="80" y="90" type="line"/>
    </contour>
  </outline>
</glyph>
<glyph name="ugrave" format="2">
  <advance width="110"/>
  <unicode hex="00F9"/>
  <outline>
    <component base="u"/>
    <contour>
      <point x="60" y="100" type="line"/>
      <point x="40" y="100" type="line"/>
      <point x="40" y="110" type="line"/>
      <point x="30" y="110" type="line"/>
      <point x="30" y="120" type="line"/>
      <point x="50" y="120" type="line"/>
      <point x="50" y="110" type="line"/>
      <point x="60" y="110" type="line"/>
    </contour>
  </outline>
</glyph>
<glyph name="Itilde" format="2">
  <advance width="110"/>
  <unicode hex="0128"/>
  <outline>
    <contour>
      <point x="30" y="90" type="line"/>
      <point x="30" y="100" type="line"/>
      <point x="50" y="100" type="line"/>
      <point x="50" y="110" type="line"/>
      <point x="30" y="110" type="line"/>
      <point x="30" y="100" type="line"/>
      <point x="20" y="100" type="line"/>
      <point x="20" y="110" type="line"/>
      <point x="30" y="110" type="line"/>
      <point x="30" y="120" type="line"/>
      <point x="50" y="120" type="line"/>
      <point x="50" y="110" type="line"/>
      <point x="70" y="110" type="line"/>
      <point x="70" y="90" type="line"/>
      <point x="60" y="90" type="line"/>
      <point x="60" y="10" type="line"/>
      <point x="70" y="10" type="line"/>
      <point x="70" y="0" type="line"/>
      <point x="30" y="0" type="line"/>
      <point x="30" y="10" type="line"/>
      <point x="40" y="10" type="line"/>
      <point x="40" y="90" type="line"/>
    </contour>
    <contour>
      <point x="70" y="110" type="line"/>
      <point x="70" y="120" type="line"/>
      <point x="80" y="120" type="line"/>
      <point x="80" y="110" type="line"/>
    </contour>
  </outline>
</glyph>
<glyph name="Lcaron" format="2">
  <advance width="110"/>
  <unicode hex="013D"/>
  <outline>
    <component base="L"/>
    <contour>
      <point x="50" y="120" type="line"/>
      <point x="70" y="120" type="line"/>
      <point x="70" y="90" type="line"/>
      <point x="60" y="90" type="line"/>
      <point x="60" y="100" type="line"/>
      <point x="50" y="100" type="line"/>
    </contour>
    <contour>
      <point x="50" y="90" type="line"/>
      <point x="60" y="90" type="line"/>
      <point x="60" y="80" type="line"/>
      <point x="50" y="80" type="line"/>
    </contour>
  </outline>
</glyph>
<glyph name="Lslash" format="2">
  <advance width="110"/>
  <unicode hex="0141"/>
  <outline>
    <contour>
      <point x="90" y="40" type="line"/>
      <point x="90" y="20" type="line"/>
      <point x="80" y="20" type="line"/>
      <point x="80" y="10" type="line"/>
      <point x="30" y="10" type="line"/>
      <point x="30" y="60" type="line"/>
      <point x="40" y="60" type="line"/>
      <point x="40" y="70" type="line"/>
      <point x="30" y="70" type="line"/>
      <point x="30" y="110" type="line"/>
      <point x="40" y="110" type="line"/>
      <point x="40" y="120" type="line"/>
      <point x="0" y="120" type="line"/>
      <point x="0" y="110" type="line"/>
      <point x="10" y="110" type="line"/>
      <point x="10" y="50" type="line"/>
      <point x="0" y="50" type="line"/>
      <point x="0" y="40" type="line"/>
      <point x="10" y="40" type="line"/>
      <point x="10" y="10" type="line"/>
      <point x="0" y="10" type="line"/>
      <point x="0" y="0" type="line"/>
      <point x="100" y="0" type="line"/>
      <point x="100" y="40" type="line"/>
    </contour>
    <contour>
      <point x="50" y="90" type="line"/>
      <point x="50" y="80" type="line"/>
      <point x="60" y="80" type="line"/>
      <point x="60" y="90" type="line"/>
    </contour>
    <contour>
      <point x="40" y="80" type="line"/>
      <point x="40" y="70" type="line"/>
      <point x="50" y="70" type="line"/>
      <point x="50" y="80" type="line"/>
    </contour>
  </outline>
</glyph>
<glyph name="lslash" format="2">
  <advance width="110"/>
  <unicode hex="0142"/>
  <outline>
    <contour>
      <point x="70" y="90" type="line"/>
      <point x="70" y="80" type="line"/>
      <point x="80" y="80" type="line"/>
      <point x="80" y="90" type="line"/>
    </contour>
    <contour>
      <point x="30" y="110" type="line"/>
      <point x="40" y="110" type="line"/>
      <point x="40" y="60" type="line"/>
      <point x="30" y="60" type="line"/>
      <point x="30" y="50" type="line"/>
      <point x="40" y="50" type="line"/>
      <point x="40" y="10" type="line"/>
      <point x="20" y="10" type="line"/>
      <point x="20" y="0" type="line"/>
      <point x="80" y="0" type="line"/>
      <point x="80" y="10" type="line"/>
      <point x="60" y="10" type="line"/>
      <point x="60" y="70" type="line"/>
      <point x="70" y="70" type="line"/>
      <point x="70" y="80" type="line"/>
      <point x="60" y="80" type="line"/>
      <point x="60" y="120" type="line"/>
      <point x="30" y="120" type="line"/>
    </contour>
    <contour>
      <point x="20" y="50" type="line"/>
      <point x="20" y="40" type="line"/>
      <point x="30" y="40" type="line"/>
      <point x="30" y="50" type="line"/>
    </contour>
  </outline>
</glyph>
<glyph name="nacute" format="2">
  <advance width="110"/>
  <unicode hex="0144"/>
  <outline>
    <contour>
      <point x="10" y="80" type="line"/>
      <point x="10" y="10" type="line"/>
      <point x="0" y="10" type="line"/>
      <point x="0" y="0" type="line"/>
      <point x="40" y="0" type="line"/>
      <point x="40" y="10" type="line"/>
      <point x="30" y="10" type="line"/>
      <point x="30" y="70" type="line"/>
      <point x="40" y="70" type="line"/>
      <point x="40" y="80" type="line"/>
      <point x="60" y="80" type="line"/>
      <point x="60" y="70" type="line"/>
      <point x="70" y="70" type="line"/>
      <point x="70" y="10" type="line"/>
      <point x="60" y="10" type="line"/>
      <point x="60" y="0" type="line"/>
      <point x="100" y="0" type="line"/>
      <point x="100" y="10" type="line"/>
      <point x="90" y="10" type="line"/>
      <point x="90" y="70" type="line"/>
      <point x="80" y="70" type="line"/>
      <point x="80" y="80" type="line"/>
      <point x="70" y="80" type="line"/>
      <point x="70" y="90" type="line"/>
      <point x="40" y="90" type="line"/>
      <point x="40" y="80" type="line"/>
      <point x="30" y="80" type="line"/>
      <point x="30" y="90" type="line"/>
      <point x="0" y="90" type="line"/>
      <point x="0" y="80" type="line"/>
    </contour>
    <contour>
      <point x="30" y="100" type="line"/>
      <point x="30" y="110" type="line"/>
      <point x="40" y="110" type="line"/>
      <point x="40" y="120" type="line"/>
      <point x="60" y="120" type="line"/>
      <point x="60" y="110" type="line"/>
      <point x="50" y="110" type="line"/>
      <point x="50" y="100" type="line"/>
    </contour>
  </outline>
</glyph>
<glyph name="rcaron" format="2">
  <advance width="110"/>
  <unicode hex="0159"/>
  <outline>
    <contour>
      <point x="70" y="110" type="line"/>
      <point x="70" y="120" type="line"/>
      <point x="50" y="120" type="line"/>
      <point x="50" y="110" type="line"/>
      <point x="40" y="110" type="line"/>
      <point x="40" y="120" type="line"/>
      <point x="20" y="120" type="line"/>
      <point x="20" y="110" type="line"/>
      <point x="30" y="110" type="line"/>
      <point x="30" y="100" type="line"/>
      <point x="60" y="100" type="line"/>
      <point x="60" y="110" type="line"/>
    </contour>
    <contour>
      <point x="60" y="0" type="line"/>
      <point x="60" y="10" type="line"/>
      <point x="50" y="10" type="line"/>
      <point x="50" y="70" type="line"/>
      <point x="60" y="70" type="line"/>
      <point x="60" y="80" type="line"/>
      <point x="70" y="80" type="line"/>
      <point x="70" y="60" type="line"/>
      <point x="90" y="60" type="line"/>
      <point x="90" y="80" type="line"/>
      <point x="80" y="80" type="line"/>
      <point x="80" y="90" type="line"/>
      <point x="60" y="90" type="line"/>
      <point x="60" y="80" type="line"/>
      <point x="50" y="80" type="line"/>
      <point x="50" y="90" type="line"/>
      <point x="20" y="90" type="line"/>
      <point x="20" y="80" type="line"/>
      <point x="30" y="80" type="line"/>
      <point x="30" y="10" type="line"/>
      <point x="20" y="10" type="line"/>
      <point x="20" y="0" type="line"/>
    </contour>
  </outline>
</glyph>
<glyph name="Utilde" format="2">
  <advance width="110"/>
  <unicode hex="0168"/>
  <outline>
    <contour>
      <point x="10" y="90" type="line"/>
      <point x="0" y="90" type="line"/>
      <point x="0" y="100" type="line"/>
      <point x="20" y="100" type="line"/>
      <point x="20" y="110" type="line"/>
      <point x="30" y="110" type="line"/>
      <point x="30" y="120" type="line"/>
      <point x="50" y="120" type="line"/>
      <point x="50" y="110" type="line"/>
      <point x="70" y="110" type="line"/>
      <point x="70" y="100" type="line"/>
      <point x="50" y="100" type="line"/>
      <point x="50" y="110" type="line"/>
      <point x="30" y="110" type="line"/>
      <point x="30" y="100" type="line"/>
      <point x="40" y="100" type="line"/>
      <point x="40" y="90" type="line"/>
      <point x="30" y="90" type="line"/>
      <point x="30" y="20" type="line"/>
      <point x="40" y="20" type="line"/>
      <point x="40" y="10" type="line"/>
      <point x="70" y="10" type="line"/>
      <point x="70" y="0" type="line"/>
      <point x="30" y="0" type="line"/>
      <point x="30" y="10" type="line"/>
      <point x="20" y="10" type="line"/>
      <point x="20" y="20" type="line"/>
      <point x="10" y="20" type="line"/>
    </contour>
    <contour>
      <point x="70" y="110" type="line"/>
      <point x="70" y="120" type="line"/>
      <point x="80" y="120" type="line"/>
      <point x="80" y="110" type="line"/>
    </contour>
    <contour>
      <point x="70" y="10" type="line"/>
      <point x="70" y="20" type="line"/>
      <point x="80" y="20" type="line"/>
      <point x="80" y="90" type="line"/>
      <point x="70" y="90" type="line"/>
      <point x="70" y="100" type="line"/>
      <point x="100" y="100" type="line"/>
      <point x="100" y="90" type="line"/>
      <point x="90" y="90" type="line"/>
      <point x="90" y="20" type="line"/>
      <point x="80" y="20" type="line"/>
      <point x="80" y="10" type="line"/>
    </contour>
  </outline>
</glyph>
<glyph name="lj" format="2">
  <advance width="110"/>
  <unicode hex="01C9"/>
  <outline>
    <contour>
      <point x="40" y="120" type="line"/>
      <point x="40" y="10" type="line"/>
      <point x="50" y="10" type="line"/>
      <point x="50" y="0" type="line"/>
      <point x="10" y="0" type="line"/>
      <point x="10" y="10" type="line"/>
      <point x="20" y="10" type="line"/>
      <point x="20" y="110" type="line"/>
      <point x="10" y="110" type="line"/>
      <point x="10" y="120" type="line"/>
    </contour>
    <contour>
      <point x="100" y="120" type="line"/>
      <point x="80" y="120" type="line"/>
      <point x="80" y="100" type="line"/>
      <point x="100" y="100" type="line"/>
    </contour>
    <contour>
      <point x="100" y="90" type="line"/>
      <point x="70" y="90" type="line"/>
      <point x="70" y="80" type="line"/>
      <point x="80" y="80" type="line"/>
      <point x="80" y="0" type="line"/>
      <point x="60" y="0" type="line"/>
      <point x="60" y="-10" type="line"/>
      <point x="90" y="-10" type="line"/>
      <point x="90" y="0" type="line"/>
      <point x="100" y="0" type="line"/>
    </contour>
  </outline>
</glyph>
<glyph name="Ismall" format="2">
  <advance width="110"/>
  <unicode hex="026A"/>
  <outline>
    <contour>
      <point x="20" y="-10" type="line"/>
      <point x="20" y="0" type="line"/>
      <point x="30" y="0" type="line"/>
      <point x="30" y="50" type="line"/>
      <point x="20" y="50" type="line"/>
      <point x="20" y="60" type="line"/>
      <point x="60" y="60" type="line"/>
      <point x="60" y="50" type="line"/>
      <point x="50" y="50" type="line"/>
      <point x="50" y="0" type="line"/>
      <point x="60" y="0" type="line"/>
      <point x="60" y="-10" type="line"/>
    </contour>
  </outline>
</glyph>
<glyph name="rsupmod" format="2">
  <advance width="110"/>
  <unicode hex="02B3"/>
  <outline>
    <contour>
      <point x="10" y="120" type="line"/>
      <point x="10" y="111" type="line"/>
      <point x="20" y="111" type="line"/>
      <point x="20" y="70" type="line"/>
      <point x="10" y="70" type="line"/>
      <point x="10" y="60" type="line"/>
      <point x="50" y="60" type="line"/>
      <point x="50" y="70" type="line"/>
      <point x="40" y="70" type="line"/>
      <point x="40" y="100" type="line"/>
      <point x="50" y="100" type="line"/>
      <point x="50" y="110" type="line"/>
      <point x="60" y="110" type="line"/>
      <point x="60" y="100" type="line"/>
      <point x="80" y="100" type="line"/>
      <point x="80" y="110" type="line"/>
      <point x="70" y="110" type="line"/>
      <point x="70" y="120" type="line"/>
      <point x="50" y="120" type="line"/>
      <point x="50" y="110" type="line"/>
      <point x="40" y="110" type="line"/>
      <point x="40" y="120" type="line"/>
    </contour>
  </outline>
</glyph>
<glyph name="Ljecyr" format="2">
  <advance width="110"/>
  <unicode hex="0409"/>
  <outline>
    <contour>
      <point x="80" y="20" type="line"/>
      <point x="90" y="20" type="line"/>
      <point x="90" y="50" type="line"/>
      <point x="80" y="50" type="line"/>
      <point x="80" y="60" type="line"/>
      <point x="70" y="60" type="line"/>
      <point x="70" y="10" type="line"/>
      <point x="80" y="10" type="line"/>
    </contour>
    <contour>
      <point x="20" y="20" type="line"/>
      <point x="30" y="20" type="line"/>
      <point x="30" y="0" type="line"/>
      <point x="0" y="0" type="line"/>
      <point x="0" y="20" type="line"/>
      <point x="10" y="20" type="line"/>
      <point x="10" y="10" type="line"/>
      <point x="20" y="10" type="line"/>
    </contour>
    <contour>
      <point x="10" y="110" type="line"/>
      <point x="10" y="120" type="line"/>
      <point x="80" y="120" type="line"/>
      <point x="80" y="110" type="line"/>
      <point x="70" y="110" type="line"/>
      <point x="70" y="70" type="line"/>
      <point x="90" y="70" type="line"/>
      <point x="90" y="60" type="line"/>
      <point x="100" y="60" type="line"/>
      <point x="100" y="10" type="line"/>
      <point x="90" y="10" type="line"/>
      <point x="90" y="0" type="line"/>
      <point x="40" y="0" type="line"/>
      <point x="40" y="10" type="line"/>
      <point x="50" y="10" type="line"/>
      <point x="50" y="110" type="line"/>
      <point x="40" y="110" type="line"/>
      <point x="40" y="20" type="line"/>
      <point x="30" y="20" type="line"/>
      <point x="30" y="110" type="line"/>
    </contour>
  </outline>
</glyph>
<glyph name="Njecyr" format="2">
  <advance width="110"/>
  <unicode hex="040A"/>
  <outline>
    <contour>
      <point x="40" y="0" type="line"/>
      <point x="40" y="60" type="line"/>
      <point x="20" y="60" type="line"/>
      <point x="20" y="0" type="line"/>
      <point x="0" y="0" type="line"/>
      <point x="0" y="120" type="line"/>
      <point x="20" y="120" type="line"/>
      <point x="20" y="70" type="line"/>
      <point x="40" y="70" type="line"/>
      <point x="40" y="120" type="line"/>
      <point x="60" y="120" type="line"/>
      <point x="60" y="70" type="line"/>
      <point x="80" y="70" type="line"/>
      <point x="80" y="60" type="line"/>
      <point x="90" y="60" type="line"/>
      <point x="90" y="50" type="line"/>
      <point x="100" y="50" type="line"/>
      <point x="100" y="20" type="line"/>
      <point x="90" y="20" type="line"/>
      <point x="90" y="10" type="line"/>
      <point x="80" y="10" type="line"/>
      <point x="80" y="0" type="line"/>
    </contour>
    <contour>
      <point x="70" y="10" type="line"/>
      <point x="70" y="20" type="line"/>
      <point x="80" y="20" type="line"/>
      <point x="80" y="50" type="line"/>
      <point x="70" y="50" type="line"/>
      <point x="70" y="60" type="line"/>
      <point x="60" y="60" type="line"/>
      <point x="60" y="10" type="line"/>
    </contour>
  </outline>
</glyph>
<glyph name="Becyr" format="2">
  <advance width="110"/>
  <unicode hex="0411"/>
  <outline>
    <contour>
      <point x="30" y="70" type="line"/>
      <point x="80" y="70" type="line"/>
      <point x="80" y="60" type="line"/>
      <point x="90" y="60" type="line"/>
      <point x="90" y="50" type="line"/>
      <point x="100" y="50" type="line"/>
      <point x="100" y="20" type="line"/>
      <point x="90" y="20" type="line"/>
      <point x="90" y="10" type="line"/>
      <point x="80" y="10" type="line"/>
      <point x="80" y="0" type="line"/>
      <point x="0" y="0" type="line"/>
      <point x="0" y="10" type="line"/>
      <point x="10" y="10" type="line"/>
      <point x="10" y="110" type="line"/>
      <point x="0" y="110" type="line"/>
      <point x="0" y="120" type="line"/>
      <point x="90" y="120" type="line"/>
      <point x="90" y="90" type="line"/>
      <point x="80" y="90" type="line"/>
      <point x="80" y="100" type="line"/>
      <point x="70" y="100" type="line"/>
      <point x="70" y="110" type="line"/>
      <point x="30" y="110" type="line"/>
    </contour>
    <contour>
      <point x="70" y="60" type="line"/>
      <point x="30" y="60" type="line"/>
      <point x="30" y="10" type="line"/>
      <point x="70" y="10" type="line"/>
      <point x="70" y="20" type="line"/>
      <point x="80" y="20" type="line"/>
      <point x="80" y="50" type="line"/>
      <point x="70" y="50" type="line"/>
    </contour>
  </outline>
</glyph>
<glyph name="Vecyr" format="2">
  <advance width="110"/>
  <unicode hex="0412"/>
  <outline>
    <contour>
      <point x="0" y="0" type="line"/>
      <point x="0" y="10" type="line"/>
      <point x="10" y="10" type="line"/>
      <point x="10" y="110" type="line"/>
      <point x="0" y="110" type="line"/>
      <point x="0" y="120" type="line"/>
      <point x="80" y="120" type="line"/>
      <point x="80" y="110" type="line"/>
      <point x="90" y="110" type="line"/>
      <point x="90" y="80" type="line"/>
      <point x="80" y="80" type="line"/>
      <point x="80" y="60" type="line"/>
      <point x="90" y="60" type="line"/>
      <point x="90" y="50" type="line"/>
      <point x="100" y="50" type="line"/>
      <point x="100" y="20" type="line"/>
      <point x="90" y="20" type="line"/>
      <point x="90" y="10" type="line"/>
      <point x="80" y="10" type="line"/>
      <point x="80" y="0" type="line"/>
    </contour>
    <contour>
      <point x="30" y="70" type="line"/>
      <point x="60" y="70" type="line"/>
      <point x="60" y="80" type="line"/>
      <point x="70" y="80" type="line"/>
      <point x="70" y="110" type="line"/>
      <point x="30" y="110" type="line"/>
    </contour>
    <contour>
      <point x="70" y="60" type="line"/>
      <point x="30" y="60" type="line"/>
      <point x="30" y="10" type="line"/>
      <point x="70" y="10" type="line"/>
      <point x="70" y="20" type="line"/>
      <point x="80" y="20" type="line"/>
      <point x="80" y="50" type="line"/>
      <point x="70" y="50" type="line"/>
    </contour>
  </outline>
</glyph>
<glyph name="Gecyr" format="2">
  <advance width="110"/>
  <unicode hex="0413"/>
  <outline>
    <contour>
      <point x="0" y="120" type="line"/>
      <point x="0" y="110" type="line"/>
      <point x="10" y="110" type="line"/>
      <point x="10" y="10" type="line"/>
      <point x="0" y="10" type="line"/>
      <point x="0" y="0" type="line"/>
      <point x="50" y="0" type="line"/>
      <point x="50" y="10" type="line"/>
      <point x="30" y="10" type="line"/>
      <point x="30" y="110" type="line"/>
      <point x="80" y="110" type="line"/>
      <point x="80" y="100" type="line"/>
      <point x="90" y="100" type="line"/>
      <point x="90" y="80" type="line"/>
      <point x="100" y="80" type="line"/>
      <point x="100" y="120" type="line"/>
    </contour>
  </outline>
</glyph>
<glyph name="Elcyr" format="2">
  <advance width="110"/>
  <unicode hex="041B"/>
  <outline>
    <contour>
      <point x="20" y="110" type="line"/>
      <point x="20" y="120" type="line"/>
      <point x="100" y="120" type="line"/>
      <point x="100" y="110" type="line"/>
      <point x="90" y="110" type="line"/>
      <point x="90" y="10" type="line"/>
      <point x="100" y="10" type="line"/>
      <point x="100" y="0" type="line"/>
      <point x="60" y="0" type="line"/>
      <point x="60" y="10" type="line"/>
      <point x="70" y="10" type="line"/>
      <point x="70" y="110" type="line"/>
      <point x="40" y="110" type="line"/>
      <point x="40" y="10" type="line"/>
      <point x="30" y="10" type="line"/>
      <point x="30" y="110" type="line"/>
    </contour>
    <contour>
      <point x="10" y="10" type="line"/>
      <point x="0" y="10" type="line"/>
      <point x="0" y="30" type="line"/>
      <point x="20" y="30" type="line"/>
      <point x="20" y="10" type="line"/>
      <point x="30" y="10" type="line"/>
      <point x="30" y="0" type="line"/>
      <point x="10" y="0" type="line"/>
    </contour>
  </outline>
</glyph>
<glyph name="Tecyr" format="2">
  <advance width="110"/>
  <unicode hex="0422"/>
  <outline>
    <contour>
      <point x="10" y="80" type="line"/>
      <point x="10" y="100" type="line"/>
      <point x="20" y="100" type="line"/>
      <point x="20" y="110" type="line"/>
      <point x="40" y="110" type="line"/>
      <point x="40" y="10" type="line"/>
      <point x="20" y="10" type="line"/>
      <point x="20" y="0" type="line"/>
      <point x="80" y="0" type="line"/>
      <point x="80" y="10" type="line"/>
      <point x="60" y="10" type="line"/>
      <point x="60" y="110" type="line"/>
      <point x="80" y="110" type="line"/>
      <point x="80" y="100" type="line"/>
      <point x="90" y="100" type="line"/>
      <point x="90" y="80" type="line"/>
      <point x="100" y="80" type="line"/>
      <point x="100" y="120" type="line"/>
      <point x="0" y="120" type="line"/>
      <point x="0" y="80" type="line"/>
    </contour>
  </outline>
</glyph>
<glyph name="Efcyr" format="2">
  <advance width="110"/>
  <unicode hex="0424"/>
  <outline>
    <component base="I"/>
    <contour>
      <point x="10" y="80" type="line"/>
      <point x="10" y="90" type="line"/>
      <point x="20" y="90" type="line"/>
      <point x="20" y="100" type="line"/>
      <point x="80" y="100" type="line"/>
      <point x="80" y="90" type="line"/>
      <point x="90" y="90" type="line"/>
      <point x="90" y="80" type="line"/>
      <point x="100" y="80" type="line"/>
      <point x="100" y="40" type="line"/>
      <point x="90" y="40" type="line"/>
      <point x="90" y="30" type="line"/>
      <point x="80" y="30" type="line"/>
      <point x="80" y="20" type="line"/>
      <point x="20" y="20" type="line"/>
      <point x="20" y="30" type="line"/>
      <point x="10" y="30" type="line"/>
      <point x="10" y="40" type="line"/>
      <point x="0" y="40" type="line"/>
      <point x="0" y="80" type="line"/>
    </contour>
    <contour>
      <point x="20" y="40" type="line"/>
      <point x="30" y="40" type="line"/>
      <point x="30" y="30" type="line"/>
      <point x="70" y="30" type="line"/>
      <point x="70" y="40" type="line"/>
      <point x="80" y="40" type="line"/>
      <point x="80" y="80" type="line"/>
      <point x="70" y="80" type="line"/>
      <point x="70" y="90" type="line"/>
      <point x="30" y="90" type="line"/>
      <point x="30" y="80" type="line"/>
      <point x="20" y="80" type="line"/>
    </contour>
  </outline>
</glyph>
<glyph name="Shacyr" format="2">
  <advance width="110"/>
  <unicode hex="0428"/>
  <outline>
    <contour>
      <point x="0" y="120" type="line"/>
      <point x="0" y="110" type="line"/>
      <point x="10" y="110" type="line"/>
      <point x="10" y="10" type="line"/>
      <point x="0" y="10" type="line"/>
      <point x="0" y="0" type="line"/>
      <point x="100" y="0" type="line"/>
      <point x="100" y="10" type="line"/>
      <point x="90" y="10" type="line"/>
      <point x="90" y="110" type="line"/>
      <point x="100" y="110" type="line"/>
      <point x="100" y="120" type="line"/>
      <point x="70" y="120" type="line"/>
      <point x="70" y="10" type="line"/>
      <point x="60" y="10" type="line"/>
      <point x="60" y="120" type="line"/>
      <point x="40" y="120" type="line"/>
      <point x="40" y="10" type="line"/>
      <point x="30" y="10" type="line"/>
      <point x="30" y="120" type="line"/>
    </contour>
  </outline>
</glyph>
<glyph name="Hardcyr" format="2">
  <advance width="110"/>
  <unicode hex="042A"/>
  <outline>
    <contour>
      <point x="20" y="10" type="line"/>
      <point x="30" y="10" type="line"/>
      <point x="30" y="110" type="line"/>
      <point x="20" y="110" type="line"/>
      <point x="20" y="100" type="line"/>
      <point x="10" y="100" type="line"/>
      <point x="10" y="90" type="line"/>
      <point x="0" y="90" type="line"/>
      <point x="0" y="120" type="line"/>
      <point x="60" y="120" type="line"/>
      <point x="60" y="110" type="line"/>
      <point x="50" y="110" type="line"/>
      <point x="50" y="70" type="line"/>
      <point x="80" y="70" type="line"/>
      <point x="80" y="60" type="line"/>
      <point x="90" y="60" type="line"/>
      <point x="90" y="50" type="line"/>
      <point x="100" y="50" type="line"/>
      <point x="100" y="20" type="line"/>
      <point x="90" y="20" type="line"/>
      <point x="90" y="10" type="line"/>
      <point x="80" y="10" type="line"/>
      <point x="80" y="0" type="line"/>
      <point x="20" y="0" type="line"/>
    </contour>
    <contour>
      <point x="70" y="10" type="line"/>
      <point x="70" y="20" type="line"/>
      <point x="80" y="20" type="line"/>
      <point x="80" y="50" type="line"/>
      <point x="70" y="50" type="line"/>
      <point x="70" y="60" type="line"/>
      <point x="50" y="60" type="line"/>
      <point x="50" y="10" type="line"/>
    </contour>
  </outline>
</glyph>
<glyph name="Ereversedcyr" format="2">
  <advance width="110"/>
  <unicode hex="042D"/>
  <outline>
    <contour>
      <point x="90" y="40" type="line"/>
      <point x="90" y="20" type="line"/>
      <point x="80" y="20" type="line"/>
      <point x="80" y="10" type="line"/>
      <point x="70" y="10" type="line"/>
      <point x="70" y="0" type="line"/>
      <point x="20" y="0" type="line"/>
      <point x="20" y="10" type="line"/>
      <point x="10" y="10" type="line"/>
      <point x="10" y="20" type="line"/>
      <point x="0" y="20" type="line"/>
      <point x="0" y="40" type="line"/>
      <point x="10" y="40" type="line"/>
      <point x="10" y="20" type="line"/>
      <point x="20" y="20" type="line"/>
      <point x="20" y="10" type="line"/>
      <point x="60" y="10" type="line"/>
      <point x="60" y="20" type="line"/>
      <point x="70" y="20" type="line"/>
      <point x="70" y="40" type="line"/>
      <point x="80" y="40" type="line"/>
      <point x="80" y="60" type="line"/>
      <point x="30" y="60" type="line"/>
      <point x="30" y="70" type="line"/>
      <point x="80" y="70" type="line"/>
      <point x="80" y="80" type="line"/>
      <point x="70" y="80" type="line"/>
      <point x="70" y="100" type="line"/>
      <point x="60" y="100" type="line"/>
      <point x="60" y="110" type="line"/>
      <point x="30" y="110" type="line"/>
      <point x="30" y="100" type="line"/>
      <point x="20" y="100" type="line"/>
      <point x="20" y="90" type="line"/>
      <point x="10" y="90" type="line"/>
      <point x="10" y="80" type="line"/>
      <point x="0" y="80" type="line"/>
      <point x="0" y="120" type="line"/>
      <point x="10" y="120" type="line"/>
      <point x="10" y="110" type="line"/>
      <point x="20" y="110" type="line"/>
      <point x="20" y="120" type="line"/>
      <point x="70" y="120" type="line"/>
      <point x="70" y="110" type="line"/>
      <point x="80" y="110" type="line"/>
      <point x="80" y="100" type="line"/>
      <point x="90" y="100" type="line"/>
      <point x="90" y="80" type="line"/>
      <point x="100" y="80" type="line"/>
      <point x="100" y="40" type="line"/>
    </contour>
  </outline>
</glyph>
<glyph name="vecyr" format="2">
  <advance width="110"/>
  <unicode hex="0432"/>
  <outline>
    <contour>
      <point x="10" y="80" type="line"/>
      <point x="20" y="80" type="line"/>
      <point x="20" y="10" type="line"/>
      <point x="10" y="10" type="line"/>
      <point x="10" y="0" type="line"/>
      <point x="80" y="0" type="line"/>
      <point x="80" y="10" type="line"/>
      <point x="90" y="10" type="line"/>
      <point x="90" y="40" type="line"/>
      <point x="80" y="40" type="line"/>
      <point x="80" y="50" type="line"/>
      <point x="90" y="50" type="line"/>
      <point x="90" y="80" type="line"/>
      <point x="80" y="80" type="line"/>
      <point x="80" y="90" type="line"/>
      <point x="10" y="90" type="line"/>
    </contour>
    <contour>
      <point x="70" y="40" type="line"/>
      <point x="70" y="10" type="line"/>
      <point x="40" y="10" type="line"/>
      <point x="40" y="40" type="line"/>
    </contour>
    <contour>
      <point x="40" y="80" type="line"/>
      <point x="70" y="80" type="line"/>
      <point x="70" y="50" type="line"/>
      <point x="40" y="50" type="line"/>
    </contour>
  </outline>
</glyph>
<glyph name="gecyr" format="2">
  <advance width="110"/>
  <unicode hex="0433"/>
  <outline>
    <contour>
      <point x="10" y="90" type="line"/>
      <point x="10" y="80" type="line"/>
      <point x="20" y="80" type="line"/>
      <point x="20" y="10" type="line"/>
      <point x="10" y="10" type="line"/>
      <point x="10" y="0" type="line"/>
      <point x="50" y="0" type="line"/>
      <point x="50" y="10" type="line"/>
      <point x="40" y="10" type="line"/>
      <point x="40" y="80" type="line"/>
      <point x="70" y="80" type="line"/>
      <point x="70" y="70" type="line"/>
      <point x="80" y="70" type="line"/>
      <point x="80" y="60" type="line"/>
      <point x="90" y="60" type="line"/>
      <point x="90" y="90" type="line"/>
    </contour>
  </outline>
</glyph>
<glyph name="kacyr" format="2">
  <advance width="110"/>
  <unicode hex="043A"/>
  <outline>
    <contour>
      <point x="10" y="80" type="line"/>
      <point x="10" y="10" type="line"/>
      <point x="0" y="10" type="line"/>
      <point x="0" y="0" type="line"/>
      <point x="40" y="0" type="line"/>
      <point x="40" y="10" type="line"/>
      <point x="30" y="10" type="line"/>
      <point x="30" y="40" type="line"/>
      <point x="60" y="40" type="line"/>
      <point x="60" y="10" type="line"/>
      <point x="70" y="10" type="line"/>
      <point x="70" y="0" type="line"/>
      <point x="90" y="0" type="line"/>
      <point x="90" y="10" type="line"/>
      <point x="80" y="10" type="line"/>
      <point x="80" y="40" type="line"/>
      <point x="70" y="40" type="line"/>
      <point x="70" y="50" type="line"/>
      <point x="60" y="50" type="line"/>
      <point x="60" y="60" type="line"/>
      <point x="70" y="60" type="line"/>
      <point x="70" y="80" type="line"/>
      <point x="80" y="80" type="line"/>
      <point x="80" y="70" type="line"/>
      <point x="100" y="70" type="line"/>
      <point x="100" y="80" type="line"/>
      <point x="90" y="80" type="line"/>
      <point x="90" y="90" type="line"/>
      <point x="70" y="90" type="line"/>
      <point x="70" y="80" type="line"/>
      <point x="60" y="80" type="line"/>
      <point x="60" y="60" type="line"/>
      <point x="50" y="60" type="line"/>
      <point x="50" y="50" type="line"/>
      <point x="30" y="50" type="line"/>
      <point x="30" y="80" type="line"/>
      <point x="40" y="80" type="line"/>
      <point x="40" y="90" type="line"/>
      <point x="0" y="90" type="line"/>
      <point x="0" y="80" type="line"/>
    </contour>
    <contour>
      <point x="90" y="10" type="line"/>
      <point x="100" y="10" type="line"/>
      <point x="100" y="20" type="line"/>
      <point x="90" y="20" type="line"/>
    </contour>
  </outline>
</glyph>
<glyph name="tecyr" format="2">
  <advance width="110"/>
  <unicode hex="0442"/>
  <outline>
    <contour>
      <point x="20" y="60" type="line"/>
      <point x="20" y="70" type="line"/>
      <point x="30" y="70" type="line"/>
      <point x="30" y="80" type="line"/>
      <point x="40" y="80" type="line"/>
      <point x="40" y="10" type="line"/>
      <point x="30" y="10" type="line"/>
      <point x="30" y="0" type="line"/>
      <point x="70" y="0" type="line"/>
      <point x="70" y="10" type="line"/>
      <point x="60" y="10" type="line"/>
      <point x="60" y="80" type="line"/>
      <point x="70" y="80" type="line"/>
      <point x="70" y="70" type="line"/>
      <point x="80" y="70" type="line"/>
      <point x="80" y="60" type="line"/>
      <point x="90" y="60" type="line"/>
      <point x="90" y="90" type="line"/>
      <point x="10" y="90" type="line"/>
      <point x="10" y="60" type="line"/>
    </contour>
  </outline>
</glyph>
<glyph name="shacyr" format="2">
  <advance width="110"/>
  <unicode hex="0448"/>
  <outline>
    <contour>
      <point x="0" y="90" type="line"/>
      <point x="0" y="80" type="line"/>
      <point x="10" y="80" type="line"/>
      <point x="10" y="10" type="line"/>
      <point x="0" y="10" type="line"/>
      <point x="0" y="0" type="line"/>
      <point x="100" y="0" type="line"/>
      <point x="100" y="10" type="line"/>
      <point x="90" y="10" type="line"/>
      <point x="90" y="80" type="line"/>
      <point x="100" y="80" type="line"/>
      <point x="100" y="90" type="line"/>
      <point x="70" y="90" type="line"/>
      <point x="70" y="10" type="line"/>
      <point x="60" y="10" type="line"/>
      <point x="60" y="90" type="line"/>
      <point x="40" y="90" type="line"/>
      <point x="40" y="10" type="line"/>
      <point x="30" y="10" type="line"/>
      <point x="30" y="90" type="line"/>
    </contour>
  </outline>
</glyph>
<glyph name="iocyr" format="2">
  <advance width="110"/>
  <unicode hex="0451"/>
  <outline>
    <component base="iecyr"/>
    <contour>
      <point x="60" y="120" type="line"/>
      <point x="80" y="120" type="line"/>
      <point x="80" y="100" type="line"/>
      <point x="60" y="100" type="line"/>
    </contour>
    <contour>
      <point x="20" y="120" type="line"/>
      <point x="40" y="120" type="line"/>
      <point x="40" y="100" type="line"/>
      <point x="20" y="100" type="line"/>
    </contour>
  </outline>
</glyph>
<glyph name="jecyr" format="2">
  <advance width="110"/>
  <unicode hex="0458"/>
  <outline>
    <contour>
      <point x="70" y="100" type="line"/>
      <point x="50" y="100" type="line"/>
      <point x="50" y="80" type="line"/>
      <point x="70" y="80" type="line"/>
    </contour>
    <contour>
      <point x="70" y="70" type="line"/>
      <point x="30" y="70" type="line"/>
      <point x="30" y="60" type="line"/>
      <point x="50" y="60" type="line"/>
      <point x="50" y="0" type="line"/>
      <point x="40" y="0" type="line"/>
      <point x="40" y="20" type="line"/>
      <point x="20" y="20" type="line"/>
      <point x="20" y="0" type="line"/>
      <point x="30" y="0" type="line"/>
      <point x="30" y="-10" type="line"/>
      <point x="60" y="-10" type="line"/>
      <point x="60" y="0" type="line"/>
      <point x="70" y="0" type="line"/>
    </contour>
  </outline>
</glyph>
<glyph name="njecyr" format="2">
  <advance width="124"/>
  <unicode hex="045A"/>
  <outline>
    <contour>
      <point x="40" y="0" type="line"/>
      <point x="40" y="40" type="line"/>
      <point x="20" y="40" type="line"/>
      <point x="20" y="0" type="line"/>
      <point x="0" y="0" type="line"/>
      <point x="0" y="90" type="line"/>
      <point x="20" y="90" type="line"/>
      <point x="20" y="50" type="line"/>
      <point x="40" y="50" type="line"/>
      <point x="40" y="90" type="line"/>
      <point x="60" y="90" type="line"/>
      <point x="60" y="50" type="line"/>
      <point x="90" y="50" type="line"/>
      <point x="90" y="40" type="line"/>
      <point x="100" y="40" type="line"/>
      <point x="100" y="10" type="line"/>
      <point x="90" y="10" type="line"/>
      <point x="90" y="0" type="line"/>
    </contour>
    <contour>
      <point x="60" y="10" type="line"/>
      <point x="80" y="10" type="line"/>
      <point x="80" y="40" type="line"/>
      <point x="60" y="40" type="line"/>
    </contour>
  </outline>
</glyph>
<glyph name="alefHamzaabove-ar" format="2">
  <advance width="40"/>
  <unicode hex="0623"/>
  <outline>
    <component base="hamzaabove-ar" xOffset="10" yOffset="10"/>
    <contour>
      <point x="20" y="30" type="line"/>
      <point x="30" y="30" type="line"/>
      <point x="30" y="90" type="line"/>
      <point x="20" y="90" type="line"/>
    </contour>
  </outline>
</glyph>
<glyph name="alef-ar" format="2">
  <advance width="20"/>
  <unicode hex="0627"/>
  <outline>
    <contour>
      <point x="10" y="30" type="line"/>
      <point x="20" y="30" type="line"/>
      <point x="20" y="100" type="line"/>
      <point x="10" y="100" type="line"/>
    </contour>
  </outline>
</glyph>
<glyph name="teh-ar" format="2">
  <advance width="90"/>
  <unicode hex="062A"/>
  <outline>
    <contour>
      <point x="20" y="30" type="line"/>
      <point x="80" y="30" type="line"/>
      <point x="80" y="40" type="line"/>
      <point x="90" y="40" type="line"/>
      <point x="90" y="70" type="line"/>
      <point x="80" y="70" type="line"/>
      <point x="80" y="50" type="line"/>
      <point x="20" y="50" type="line"/>
      <point x="20" y="70" type="line"/>
      <point x="10" y="70" type="line"/>
      <point x="10" y="40" type="line"/>
      <point x="20" y="40" type="line"/>
    </contour>
    <contour>
      <point x="40" y="80" type="line"/>
      <point x="50" y="80" type="line"/>
      <point x="50" y="90" type="line"/>
      <point x="40" y="90" type="line"/>
    </contour>
    <contour>
      <point x="60" y="80" type="line"/>
      <point x="70" y="80" type="line"/>
      <point x="70" y="90" type="line"/>
      <point x="60" y="90" type="line"/>
    </contour>
  </outline>
</glyph>
<glyph name="jeem-ar" format="2">
  <advance width="70"/>
  <unicode hex="062C"/>
  <outline>
    <contour>
      <point x="10" y="0" type="line"/>
      <point x="20" y="0" type="line"/>
      <point x="20" y="-10" type="line"/>
      <point x="60" y="-10" type="line"/>
      <point x="60" y="0" type="line"/>
      <point x="70" y="0" type="line"/>
      <point x="70" y="10" type="line"/>
      <point x="20" y="10" type="line"/>
      <point x="20" y="40" type="line"/>
      <point x="10" y="40" type="line"/>
    </contour>
    <contour>
      <point x="20" y="40" type="line"/>
      <point x="30" y="40" type="line"/>
      <point x="30" y="50" type="line"/>
      <point x="40" y="50" type="line"/>
      <point x="40" y="60" type="line"/>
      <point x="50" y="60" type="line"/>
      <point x="50" y="70" type="line"/>
      <point x="10" y="70" type="line"/>
      <point x="10" y="50" type="line"/>
      <point x="20" y="50" type="line"/>
    </contour>
    <contour>
      <point x="30" y="20" type="line"/>
      <point x="40" y="20" type="line"/>
      <point x="40" y="30" type="line"/>
      <point x="30" y="30" type="line"/>
    </contour>
  </outline>
</glyph>
<glyph name="khah-ar" format="2">
  <advance width="70"/>
  <unicode hex="062E"/>
  <outline>
    <contour>
      <point x="10" y="0" type="line"/>
      <point x="20" y="0" type="line"/>
      <point x="20" y="-10" type="line"/>
      <point x="60" y="-10" type="line"/>
      <point x="60" y="0" type="line"/>
      <point x="70" y="0" type="line"/>
      <point x="70" y="10" type="line"/>
      <point x="20" y="10" type="line"/>
      <point x="20" y="40" type="line"/>
      <point x="10" y="40" type="line"/>
    </contour>
    <contour>
      <point x="20" y="40" type="line"/>
      <point x="30" y="40" type="line"/>
      <point x="30" y="50" type="line"/>
      <point x="40" y="50" type="line"/>
      <point x="40" y="60" type="line"/>
      <point x="50" y="60" type="line"/>
      <point x="50" y="70" type="line"/>
      <point x="10" y="70" type="line"/>
      <point x="10" y="50" type="line"/>
      <point x="20" y="50" type="line"/>
    </contour>
    <contour>
      <point x="30" y="80" type="line"/>
      <point x="40" y="80" type="line"/>
      <point x="40" y="90" type="line"/>
      <point x="30" y="90" type="line"/>
    </contour>
  </outline>
</glyph>
<glyph name="dal-ar" format="2">
  <advance width="50"/>
  <unicode hex="062F"/>
  <outline>
    <contour>
      <point x="50" y="80" type="line"/>
      <point x="40" y="80" type="line"/>
      <point x="40" y="90" type="line"/>
      <point x="30" y="90" type="line"/>
      <point x="30" y="70" type="line"/>
      <point x="40" y="70" type="line"/>
      <point x="40" y="50" type="line"/>
      <point x="20" y="50" type="line"/>
      <point x="20" y="60" type="line"/>
      <point x="10" y="60" type="line"/>
      <point x="10" y="40" type="line"/>
      <point x="20" y="40" type="line"/>
      <point x="20" y="30" type="line"/>
      <point x="40" y="30" type="line"/>
      <point x="40" y="40" type="line"/>
      <point x="50" y="40" type="line"/>
    </contour>
  </outline>
</glyph>
<glyph name="seen-ar" format="2">
  <advance width="130"/>
  <unicode hex="0633"/>
  <outline>
    <contour>
      <point x="130" y="70" type="line"/>
      <point x="120" y="70" type="line"/>
      <point x="120" y="50" type="line"/>
      <point x="110" y="50" type="line"/>
      <point x="110" y="70" type="line"/>
      <point x="100" y="70" type="line"/>
      <point x="100" y="50" type="line"/>
      <point x="80" y="50" type="line"/>
      <point x="80" y="70" type="line"/>
      <point x="70" y="70" type="line"/>
      <point x="70" y="50" type="line"/>
      <point x="60" y="50" type="line"/>
      <point x="60" y="30" type="line"/>
      <point x="20" y="30" type="line"/>
      <point x="20" y="40" type="line"/>
      <point x="10" y="40" type="line"/>
      <point x="10" y="20" type="line"/>
      <point x="20" y="20" type="line"/>
      <point x="20" y="10" type="line"/>
      <point x="60" y="10" type="line"/>
      <point x="60" y="20" type="line"/>
      <point x="70" y="20" type="line"/>
      <point x="70" y="40" type="line"/>
      <point x="80" y="40" type="line"/>
      <point x="80" y="30" type="line"/>
      <point x="100" y="30" type="line"/>
      <point x="100" y="40" type="line"/>
      <point x="110" y="40" type="line"/>
      <point x="110" y="30" type="line"/>
      <point x="120" y="30" type="line"/>
      <point x="120" y="40" type="line"/>
      <point x="130" y="40" type="line"/>
    </contour>
  </outline>
</glyph>
<glyph name="sheen-ar" format="2">
  <advance width="130"/>
  <unicode hex="0634"/>
  <outline>
    <component base="seen-ar"/>
    <contour>
      <point x="80" y="80" type="line"/>
      <point x="90" y="80" type="line"/>
      <point x="90" y="90" type="line"/>
      <point x="80" y="90" type="line"/>
    </contour>
    <contour>
      <point x="100" y="80" type="line"/>
      <point x="110" y="80" type="line"/>
      <point x="110" y="90" type="line"/>
      <point x="100" y="90" type="line"/>
    </contour>
    <contour>
      <point x="90" y="100" type="line"/>
      <point x="100" y="100" type="line"/>
      <point x="100" y="110" type="line"/>
      <point x="90" y="110" type="line"/>
    </contour>
  </outline>
</glyph>
<glyph name="sad-ar" format="2">
  <advance width="140"/>
  <unicode hex="0635"/>
  <outline>
    <contour>
      <point x="130" y="40" type="line"/>
      <point x="140" y="40" type="line"/>
      <point x="140" y="70" type="line"/>
      <point x="130" y="70" type="line"/>
      <point x="130" y="80" type="line"/>
      <point x="110" y="80" type="line"/>
      <point x="110" y="70" type="line"/>
      <point x="100" y="70" type="line"/>
      <point x="100" y="60" type="line"/>
      <point x="130" y="60" type="line"/>
      <point x="130" y="50" type="line"/>
      <point x="100" y="50" type="line"/>
      <point x="100" y="60" type="line"/>
      <point x="90" y="60" type="line"/>
      <point x="90" y="50" type="line"/>
      <point x="80" y="50" type="line"/>
      <point x="80" y="70" type="line"/>
      <point x="70" y="70" type="line"/>
      <point x="70" y="50" type="line"/>
      <point x="60" y="50" type="line"/>
      <point x="60" y="30" type="line"/>
      <point x="20" y="30" type="line"/>
      <point x="20" y="40" type="line"/>
      <point x="10" y="40" type="line"/>
      <point x="10" y="20" type="line"/>
      <point x="20" y="20" type="line"/>
      <point x="20" y="10" type="line"/>
      <point x="60" y="10" type="line"/>
      <point x="60" y="20" type="line"/>
      <point x="70" y="20" type="line"/>
      <point x="70" y="40" type="line"/>
      <point x="80" y="40" type="line"/>
      <point x="80" y="30" type="line"/>
      <point x="130" y="30" type="line"/>
    </contour>
  </outline>
</glyph>
<glyph name="dad-ar" format="2">
  <advance width="140"/>
  <unicode hex="0636"/>
  <outline>
    <component base="sad-ar"/>
    <contour>
      <point x="110" y="90" type="line"/>
      <point x="120" y="90" type="line"/>
      <point x="120" y="100" type="line"/>
      <point x="110" y="100" type="line"/>
    </contour>
  </outline>
</glyph>
<glyph name="zah-ar" format="2">
  <advance width="80"/>
  <unicode hex="0638"/>
  <outline>
    <contour>
      <point x="70" y="40" type="line"/>
      <point x="80" y="40" type="line"/>
      <point x="80" y="70" type="line"/>
      <point x="70" y="70" type="line"/>
      <point x="70" y="80" type="line"/>
      <point x="50" y="80" type="line"/>
      <point x="50" y="70" type="line"/>
      <point x="40" y="70" type="line"/>
      <point x="40" y="60" type="line"/>
      <point x="70" y="60" type="line"/>
      <point x="70" y="50" type="line"/>
      <point x="40" y="50" type="line"/>
      <point x="40" y="60" type="line"/>
      <point x="30" y="60" type="line"/>
      <point x="30" y="100" type="line"/>
      <point x="20" y="100" type="line"/>
      <point x="20" y="50" type="line"/>
      <point x="10" y="50" type="line"/>
      <point x="10" y="30" type="line"/>
      <point x="70" y="30" type="line"/>
    </contour>
    <contour>
      <point x="50" y="90" type="line"/>
      <point x="60" y="90" type="line"/>
      <point x="60" y="100" type="line"/>
      <point x="50" y="100" type="line"/>
    </contour>
  </outline>
</glyph>
<glyph name="kaf-ar" format="2">
  <advance width="90"/>
  <unicode hex="0643"/>
  <outline>
    <component base="hamzaabove-ar" xOffset="35" yOffset="-10"/>
    <contour>
      <point x="20" y="10" type="line"/>
      <point x="80" y="10" type="line"/>
      <point x="80" y="20" type="line"/>
      <point x="90" y="20" type="line"/>
      <point x="90" y="100" type="line"/>
      <point x="80" y="100" type="line"/>
      <point x="80" y="30" type="line"/>
      <point x="20" y="30" type="line"/>
      <point x="20" y="60" type="line"/>
      <point x="10" y="60" type="line"/>
      <point x="10" y="20" type="line"/>
      <point x="20" y="20" type="line"/>
    </contour>
  </outline>
</glyph>
<glyph name="lam-ar" format="2">
  <advance width="70"/>
  <unicode hex="0644"/>
  <outline>
    <contour>
      <point x="20" y="10" type="line"/>
      <point x="60" y="10" type="line"/>
      <point x="60" y="20" type="line"/>
      <point x="70" y="20" type="line"/>
      <point x="70" y="100" type="line"/>
      <point x="60" y="100" type="line"/>
      <point x="60" y="30" type="line"/>
      <point x="20" y="30" type="line"/>
      <point x="20" y="60" type="line"/>
      <point x="10" y="60" type="line"/>
      <point x="10" y="20" type="line"/>
      <point x="20" y="20" type="line"/>
    </contour>
  </outline>
</glyph>
<glyph name="meem-ar" format="2">
  <advance width="50"/>
  <unicode hex="0645"/>
  <outline>
    <contour>
      <point x="40" y="50" type="line"/>
      <point x="20" y="50" type="line"/>
      <point x="20" y="40" type="line"/>
      <point x="10" y="40" type="line"/>
      <point x="10" y="-10" type="line"/>
      <point x="20" y="-10" type="line"/>
      <point x="20" y="30" type="line"/>
      <point x="50" y="30" type="line"/>
      <point x="50" y="60" type="line"/>
      <point x="40" y="60" type="line"/>
      <point x="40" y="70" type="line"/>
      <point x="20" y="70" type="line"/>
      <point x="20" y="60" type="line"/>
      <point x="40" y="60" type="line"/>
    </contour>
  </outline>
</glyph>
<glyph name="damma-ar" format="2">
  <advance width="10"/>
  <unicode hex="064F"/>
  <outline>
    <contour>
      <point x="10" y="110" type="line"/>
      <point x="20" y="110" type="line"/>
      <point x="20" y="120" type="line"/>
      <point x="10" y="120" type="line"/>
    </contour>
    <contour>
      <point x="0" y="120" type="line"/>
      <point x="10" y="120" type="line"/>
      <point x="10" y="130" type="line"/>
      <point x="0" y="130" type="line"/>
    </contour>
    <contour>
      <point x="-10" y="110" type="line"/>
      <point x="0" y="110" type="line"/>
      <point x="0" y="120" type="line"/>
      <point x="-10" y="120" type="line"/>
    </contour>
    <contour>
      <point x="0" y="100" type="line"/>
      <point x="10" y="100" type="line"/>
      <point x="10" y="110" type="line"/>
      <point x="0" y="110" type="line"/>
    </contour>
    <contour>
      <point x="-10" y="90" type="line"/>
      <point x="0" y="90" type="line"/>
      <point x="0" y="100" type="line"/>
      <point x="-10" y="100" type="line"/>
    </contour>
  </outline>
</glyph>
<glyph name="madda-ar" format="2">
  <advance width="40"/>
  <unicode hex="0653"/>
  <outline>
    <contour>
      <point x="0" y="80" type="line"/>
      <point x="10" y="80" type="line"/>
      <point x="10" y="90" type="line"/>
      <point x="0" y="90" type="line"/>
    </contour>
    <contour>
      <point x="10" y="90" type="line"/>
      <point x="40" y="90" type="line"/>
      <point x="40" y="100" type="line"/>
      <point x="10" y="100" type="line"/>
    </contour>
  </outline>
</glyph>
<glyph name="hamzaabove-ar" format="2">
  <advance width="30"/>
  <unicode hex="0654"/>
  <outline>
    <contour>
      <point x="10" y="90" type="line"/>
      <point x="0" y="90" type="line"/>
      <point x="0" y="80" type="line"/>
      <point x="10" y="80" type="line"/>
      <point x="10" y="70" type="line"/>
      <point x="0" y="70" type="line"/>
      <point x="0" y="60" type="line"/>
      <point x="20" y="60" type="line"/>
      <point x="20" y="70" type="line"/>
      <point x="30" y="70" type="line"/>
      <point x="30" y="80" type="line"/>
      <point x="10" y="80" type="line"/>
    </contour>
    <contour>
      <point x="10" y="90" type="line"/>
      <point x="30" y="90" type="line"/>
      <point x="30" y="100" type="line"/>
      <point x="10" y="100" type="line"/>
    </contour>
  </outline>
</glyph>
<glyph name="hamzabelow-ar" format="2">
  <advance width="30"/>
  <unicode hex="0655"/>
  <outline>
    <contour>
      <point x="10" y="20" type="line"/>
      <point x="0" y="20" type="line"/>
      <point x="0" y="10" type="line"/>
      <point x="10" y="10" type="line"/>
      <point x="10" y="0" type="line"/>
      <point x="0" y="0" type="line"/>
      <point x="0" y="-10" type="line"/>
      <point x="20" y="-10" type="line"/>
      <point x="20" y="0" type="line"/>
      <point x="30" y="0" type="line"/>
      <point x="30" y="10" type="line"/>
      <point x="10" y="10" type="line"/>
    </contour>
    <contour>
      <point x="10" y="20" type="line"/>
      <point x="30" y="20" type="line"/>
      <point x="30" y="30" type="line"/>
      <point x="10" y="30" type="line"/>
    </contour>
  </outline>
</glyph>
<glyph name="Tsmall" format="2">
  <advance width="110"/>
  <unicode hex="1D1B"/>
  <outline>
    <contour>
      <point x="20" y="-10" type="line"/>
      <point x="20" y="0" type="line"/>
      <point x="30" y="0" type="line"/>
      <point x="30" y="50" type="line"/>
      <point x="20" y="50" type="line"/>
      <point x="20" y="40" type="line"/>
      <point x="10" y="40" type="line"/>
      <point x="10" y="60" type="line"/>
      <point x="70" y="60" type="line"/>
      <point x="70" y="40" type="line"/>
      <point x="60" y="40" type="line"/>
      <point x="60" y="50" type="line"/>
      <point x="50" y="50" type="line"/>
      <point x="50" y="0" type="line"/>
      <point x="60" y="0" type="line"/>
      <point x="60" y="-10" type="line"/>
    </contour>
  </outline>
</glyph>
<glyph name="gmod" format="2">
  <advance width="110"/>
  <unicode hex="1D4D"/>
  <outline>
    <contour>
      <point x="10" y="110" type="line"/>
      <point x="10" y="100" type="line"/>
      <point x="20" y="100" type="line"/>
      <point x="20" y="90" type="line"/>
      <point x="30" y="90" type="line"/>
      <point x="30" y="80" type="line"/>
      <point x="20" y="80" type="line"/>
      <point x="20" y="70" type="line"/>
      <point x="10" y="70" type="line"/>
      <point x="10" y="60" type="line"/>
      <point x="20" y="60" type="line"/>
      <point x="20" y="50" type="line"/>
      <point x="70" y="50" type="line"/>
      <point x="70" y="60" type="line"/>
      <point x="80" y="60" type="line"/>
      <point x="80" y="70" type="line"/>
      <point x="70" y="70" type="line"/>
      <point x="70" y="80" type="line"/>
      <point x="40" y="80" type="line"/>
      <point x="40" y="90" type="line"/>
      <point x="60" y="90" type="line"/>
      <point x="60" y="100" type="line"/>
      <point x="70" y="100" type="line"/>
      <point x="70" y="110" type="line"/>
      <point x="80" y="110" type="line"/>
      <point x="80" y="120" type="line"/>
      <point x="70" y="120" type="line"/>
      <point x="70" y="110" type="line"/>
      <point x="60" y="110" type="line"/>
      <point x="60" y="120" type="line"/>
      <point x="20" y="120" type="line"/>
      <point x="20" y="110" type="line"/>
    </contour>
    <contour>
      <point x="30" y="70" type="line"/>
      <point x="50" y="70" type="line"/>
      <point x="50" y="60" type="line"/>
      <point x="30" y="60" type="line"/>
    </contour>
    <contour>
      <point x="40" y="110" type="line"/>
      <point x="40" y="100" type="line"/>
      <point x="30" y="100" type="line"/>
      <point x="30" y="110" type="line"/>
    </contour>
  </outline>
</glyph>
<glyph name="uinferior" format="2">
  <advance width="110"/>
  <unicode hex="1D64"/>
  <outline>
    <contour>
      <point x="60" y="10" type="line"/>
      <point x="60" y="40" type="line"/>
      <point x="50" y="40" type="line"/>
      <point x="50" y="50" type="line"/>
      <point x="80" y="50" type="line"/>
      <point x="80" y="10" type="line"/>
      <point x="90" y="10" type="line"/>
      <point x="90" y="0" type="line"/>
      <point x="70" y="0" type="line"/>
      <point x="70" y="10" type="line"/>
    </contour>
    <contour>
      <point x="20" y="40" type="line"/>
      <point x="10" y="40" type="line"/>
      <point x="10" y="50" type="line"/>
      <point x="40" y="50" type="line"/>
      <point x="40" y="10" type="line"/>
      <point x="60" y="10" type="line"/>
      <point x="60" y="0" type="line"/>
      <point x="30" y="0" type="line"/>
      <point x="30" y="10" type="line"/>
      <point x="20" y="10" type="line"/>
    </contour>
  </outline>
</glyph>
<glyph name="Adotbelow" format="2">
  <advance width="110"/>
  <unicode hex="1EA0"/>
  <outline>
    <component base="A"/>
    <contour>
      <point x="40" y="-10" type="line"/>
      <point x="60" y="-10" type="line"/>
      <point x="60" y="0" type="line"/>
      <point x="40" y="0" type="line"/>
    </contour>
  </outline>
</glyph>
<glyph name="ahoi" format="2">
  <advance width="110"/>
  <unicode hex="1EA3"/>
  <outline>
    <contour>
      <point x="20" y="10" type="line"/>
      <point x="10" y="10" type="line"/>
      <point x="10" y="40" type="line"/>
      <point x="20" y="40" type="line"/>
      <point x="20" y="50" type="line"/>
      <point x="30" y="50" type="line"/>
      <point x="30" y="60" type="line"/>
      <point x="70" y="60" type="line"/>
      <point x="70" y="80" type="line"/>
      <point x="30" y="80" type="line"/>
      <point x="30" y="70" type="line"/>
      <point x="20" y="70" type="line"/>
      <point x="20" y="60" type="line"/>
      <point x="10" y="60" type="line"/>
      <point x="10" y="80" type="line"/>
      <point x="20" y="80" type="line"/>
      <point x="20" y="90" type="line"/>
      <point x="50" y="90" type="line"/>
      <point x="50" y="100" type="line"/>
      <point x="60" y="100" type="line"/>
      <point x="60" y="110" type="line"/>
      <point x="40" y="110" type="line"/>
      <point x="40" y="120" type="line"/>
      <point x="60" y="120" type="line"/>
      <point x="60" y="110" type="line"/>
      <point x="70" y="110" type="line"/>
      <point x="70" y="100" type="line"/>
      <point x="60" y="100" type="line"/>
      <point x="60" y="90" type="line"/>
      <point x="80" y="90" type="line"/>
      <point x="80" y="80" type="line"/>
      <point x="90" y="80" type="line"/>
      <point x="90" y="10" type="line"/>
      <point x="100" y="10" type="line"/>
      <point x="100" y="0" type="line"/>
      <point x="80" y="0" type="line"/>
      <point x="80" y="10" type="line"/>
      <point x="70" y="10" type="line"/>
      <point x="70" y="0" type="line"/>
      <point x="20" y="0" type="line"/>
    </contour>
    <contour>
      <point x="30" y="40" type="line"/>
      <point x="30" y="10" type="line"/>
      <point x="60" y="10" type="line"/>
      <point x="60" y="20" type="line"/>
      <point x="70" y="20" type="line"/>
      <point x="70" y="50" type="line"/>
      <point x="40" y="50" type="line"/>
      <point x="40" y="40" type="line"/>
    </contour>
  </outline>
</glyph>
<glyph name="ehoi" format="2">
  <advance width="110"/>
  <unicode hex="1EBB"/>
  <outline>
    <component base="e"/>
    <contour>
      <point x="40" y="110" type="line"/>
      <point x="60" y="110" type="line"/>
      <point x="60" y="120" type="line"/>
      <point x="40" y="120" type="line"/>
    </contour>
    <contour>
      <point x="60" y="100" type="line"/>
      <point x="70" y="100" type="line"/>
      <point x="70" y="110" type="line"/>
      <point x="60" y="110" type="line"/>
    </contour>
    <contour>
      <point x="50" y="90" type="line"/>
      <point x="60" y="90" type="line"/>
      <point x="60" y="100" type="line"/>
      <point x="50" y="100" type="line"/>
    </contour>
  </outline>
</glyph>
<glyph name="etilde" format="2">
  <advance width="110"/>
  <unicode hex="1EBD"/>
  <outline>
    <component base="e"/>
    <contour>
      <point x="30" y="100" type="line"/>
      <point x="20" y="100" type="line"/>
      <point x="20" y="110" type="line"/>
      <point x="30" y="110" type="line"/>
      <point x="30" y="120" type="line"/>
      <point x="50" y="120" type="line"/>
      <point x="50" y="110" type="line"/>
      <point x="70" y="110" type="line"/>
      <point x="70" y="120" type="line"/>
      <point x="80" y="120" type="line"/>
      <point x="80" y="110" type="line"/>
      <point x="70" y="110" type="line"/>
      <point x="70" y="100" type="line"/>
      <point x="50" y="100" type="line"/>
      <point x="50" y="110" type="line"/>
      <point x="30" y="110" type="line"/>
    </contour>
  </outline>
</glyph>
<glyph name="Ihoi" format="2">
  <advance width="110"/>
  <unicode hex="1EC8"/>
  <outline>
    <contour>
      <point x="40" y="110" type="line"/>
      <point x="40" y="120" type="line"/>
      <point x="60" y="120" type="line"/>
      <point x="60" y="110" type="line"/>
    </contour>
    <contour>
      <point x="60" y="100" type="line"/>
      <point x="60" y="110" type="line"/>
      <point x="70" y="110" type="line"/>
      <point x="70" y="100" type="line"/>
    </contour>
    <contour>
      <point x="30" y="80" type="line"/>
      <point x="30" y="90" type="line"/>
      <point x="50" y="90" type="line"/>
      <point x="50" y="100" type="line"/>
      <point x="60" y="100" type="line"/>
      <point x="60" y="90" type="line"/>
      <point x="70" y="90" type="line"/>
      <point x="70" y="80" type="line"/>
      <point x="60" y="80" type="line"/>
      <point x="60" y="10" type="line"/>
      <point x="70" y="10" type="line"/>
      <point x="70" y="0" type="line"/>
      <point x="30" y="0" type="line"/>
      <point x="30" y="10" type="line"/>
      <point x="40" y="10" type="line"/>
      <point x="40" y="80" type="line"/>
    </contour>
  </outline>
</glyph>
<glyph name="ihoi" format="2">
  <advance width="110"/>
  <unicode hex="1EC9"/>
  <outline>
    <contour>
      <point x="20" y="0" type="line"/>
      <point x="20" y="10" type="line"/>
      <point x="40" y="10" type="line"/>
      <point x="40" y="80" type="line"/>
      <point x="20" y="80" type="line"/>
      <point x="20" y="90" type="line"/>
      <point x="50" y="90" type="line"/>
      <point x="50" y="100" type="line"/>
      <point x="60" y="100" type="line"/>
      <point x="60" y="110" type="line"/>
      <point x="40" y="110" type="line"/>
      <point x="40" y="120" type="line"/>
      <point x="60" y="120" type="line"/>
      <point x="60" y="110" type="line"/>
      <point x="70" y="110" type="line"/>
      <point x="70" y="100" type="line"/>
      <point x="60" y="100" type="line"/>
      <point x="60" y="10" type="line"/>
      <point x="80" y="10" type="line"/>
      <point x="80" y="0" type="line"/>
    </contour>
  </outline>
</glyph>
<glyph name="Idotbelow" format="2">
  <advance width="110"/>
  <unicode hex="1ECA"/>
  <outline>
    <contour>
      <point x="30" y="110" type="line"/>
      <point x="30" y="120" type="line"/>
      <point x="70" y="120" type="line"/>
      <point x="70" y="110" type="line"/>
      <point x="60" y="110" type="line"/>
      <point x="60" y="20" type="line"/>
      <point x="70" y="20" type="line"/>
      <point x="70" y="10" type="line"/>
      <point x="30" y="10" type="line"/>
      <point x="30" y="20" type="line"/>
      <point x="40" y="20" type="line"/>
      <point x="40" y="110" type="line"/>
    </contour>
    <contour>
      <point x="40" y="0" type="line"/>
      <point x="60" y="0" type="line"/>
      <point x="60" y="-10" type="line"/>
      <point x="40" y="-10" type="line"/>
    </contour>
  </outline>
</glyph>
<glyph name="idotbelow" format="2">
  <advance width="110"/>
  <unicode hex="1ECB"/>
  <outline>
    <contour>
      <point x="20" y="20" type="line"/>
      <point x="40" y="20" type="line"/>
      <point x="40" y="80" type="line"/>
      <point x="20" y="80" type="line"/>
      <point x="20" y="90" type="line"/>
      <point x="60" y="90" type="line"/>
      <point x="60" y="20" type="line"/>
      <point x="80" y="20" type="line"/>
      <point x="80" y="10" type="line"/>
      <point x="20" y="10" type="line"/>
    </contour>
    <contour>
      <point x="60" y="100" type="line"/>
      <point x="40" y="100" type="line"/>
      <point x="40" y="120" type="line"/>
      <point x="60" y="120" type="line"/>
    </contour>
    <contour>
      <point x="40" y="0" type="line"/>
      <point x="60" y="0" type="line"/>
      <point x="60" y="-10" type="line"/>
      <point x="40" y="-10" type="line"/>
    </contour>
  </outline>
</glyph>
<glyph name="odotbelow" format="2">
  <advance width="110"/>
  <unicode hex="1ECD"/>
  <outline>
    <contour>
      <point x="20" y="30" type="line"/>
      <point x="20" y="20" type="line"/>
      <point x="30" y="20" type="line"/>
      <point x="30" y="10" type="line"/>
      <point x="70" y="10" type="line"/>
      <point x="70" y="20" type="line"/>
      <point x="80" y="20" type="line"/>
      <point x="80" y="30" type="line"/>
      <point x="90" y="30" type="line"/>
      <point x="90" y="70" type="line"/>
      <point x="80" y="70" type="line"/>
      <point x="80" y="80" type="line"/>
      <point x="70" y="80" type="line"/>
      <point x="70" y="90" type="line"/>
      <point x="30" y="90" type="line"/>
      <point x="30" y="80" type="line"/>
      <point x="20" y="80" type="line"/>
      <point x="20" y="70" type="line"/>
      <point x="10" y="70" type="line"/>
      <point x="10" y="30" type="line"/>
    </contour>
    <contour>
      <point x="30" y="70" type="line"/>
      <point x="40" y="70" type="line"/>
      <point x="40" y="80" type="line"/>
      <point x="60" y="80" type="line"/>
      <point x="60" y="70" type="line"/>
      <point x="70" y="70" type="line"/>
      <point x="70" y="30" type="line"/>
      <point x="60" y="30" type="line"/>
      <point x="60" y="20" type="line"/>
      <point x="40" y="20" type="line"/>
      <point x="40" y="30" type="line"/>
      <point x="30" y="30" type="line"/>
    </contour>
    <contour>
      <point x="40" y="-10" type="line"/>
      <point x="60" y="-10" type="line"/>
      <point x="60" y="0" type="line"/>
      <point x="40" y="0" type="line"/>
    </contour>
  </outline>
</glyph>
<glyph name="Ocircumflextilde" format="2">
  <advance width="110"/>
  <unicode hex="1ED6"/>
  <outline>
    <contour>
      <point x="30" y="100" type="line"/>
      <point x="30" y="110" type="line"/>
      <point x="50" y="110" type="line"/>
      <point x="50" y="100" type="line"/>
    </contour>
    <contour>
      <point x="30" y="50" type="line"/>
      <point x="30" y="60" type="line"/>
      <point x="70" y="60" type="line"/>
      <point x="70" y="50" type="line"/>
      <point x="80" y="50" type="line"/>
      <point x="80" y="20" type="line"/>
      <point x="70" y="20" type="line"/>
      <point x="70" y="10" type="line"/>
      <point x="30" y="10" type="line"/>
      <point x="30" y="20" type="line"/>
      <point x="20" y="20" type="line"/>
      <point x="20" y="50" type="line"/>
    </contour>
    <contour>
      <point x="0" y="20" type="line"/>
      <point x="10" y="20" type="line"/>
      <point x="10" y="10" type="line"/>
      <point x="20" y="10" type="line"/>
      <point x="20" y="0" type="line"/>
      <point x="80" y="0" type="line"/>
      <point x="80" y="10" type="line"/>
      <point x="90" y="10" type="line"/>
      <point x="90" y="20" type="line"/>
      <point x="100" y="20" type="line"/>
      <point x="100" y="50" type="line"/>
      <point x="90" y="50" type="line"/>
      <point x="90" y="60" type="line"/>
      <point x="80" y="60" type="line"/>
      <point x="80" y="70" type="line"/>
      <point x="20" y="70" type="line"/>
      <point x="20" y="60" type="line"/>
      <point x="10" y="60" type="line"/>
      <point x="10" y="50" type="line"/>
      <point x="0" y="50" type="line"/>
    </contour>
    <contour>
      <point x="30" y="90" type="line"/>
      <point x="20" y="90" type="line"/>
      <point x="20" y="80" type="line"/>
      <point x="40" y="80" type="line"/>
      <point x="40" y="90" type="line"/>
      <point x="50" y="90" type="line"/>
      <point x="50" y="80" type="line"/>
      <point x="70" y="80" type="line"/>
      <point x="70" y="90" type="line"/>
      <point x="60" y="90" type="line"/>
      <point x="60" y="100" type="line"/>
      <point x="70" y="100" type="line"/>
      <point x="70" y="110" type="line"/>
      <point x="80" y="110" type="line"/>
      <point x="80" y="120" type="line"/>
      <point x="70" y="120" type="line"/>
      <point x="70" y="110" type="line"/>
      <point x="50" y="110" type="line"/>
      <point x="50" y="120" type="line"/>
      <point x="30" y="120" type="line"/>
      <point x="30" y="110" type="line"/>
      <point x="20" y="110" type="line"/>
      <point x="20" y="100" type="line"/>
      <point x="30" y="100" type="line"/>
    </contour>
  </outline>
</glyph>
<glyph name="ohorntilde" format="2">
  <advance width="110"/>
  <unicode hex="1EE1"/>
  <outline>
    <component base="ohorn"/>
    <contour>
      <point x="30" y="100" type="line"/>
      <point x="20" y="100" type="line"/>
      <point x="20" y="110" type="line"/>
      <point x="30" y="110" type="line"/>
      <point x="30" y="120" type="line"/>
      <point x="50" y="120" type="line"/>
      <point x="50" y="110" type="line"/>
      <point x="70" y="110" type="line"/>
      <point x="70" y="120" type="line"/>
      <point x="80" y="120" type="line"/>
      <point x="80" y="110" type="line"/>
      <point x="70" y="110" type="line"/>
      <point x="70" y="100" type="line"/>
      <point x="50" y="100" type="line"/>
      <point x="50" y="110" type="line"/>
      <point x="30" y="110" type="line"/>
    </contour>
  </outline>
</glyph>
<glyph name="Uhoi" format="2">
  <advance width="110"/>
  <unicode hex="1EE6"/>
  <outline>
    <contour>
      <point x="40" y="110" type="line"/>
      <point x="40" y="120" type="line"/>
      <point x="60" y="120" type="line"/>
      <point x="60" y="110" type="line"/>
    </contour>
    <contour>
      <point x="60" y="100" type="line"/>
      <point x="60" y="110" type="line"/>
      <point x="70" y="110" type="line"/>
      <point x="70" y="100" type="line"/>
    </contour>
    <contour>
      <point x="10" y="90" type="line"/>
      <point x="0" y="90" type="line"/>
      <point x="0" y="100" type="line"/>
      <point x="40" y="100" type="line"/>
      <point x="40" y="90" type="line"/>
      <point x="30" y="90" type="line"/>
      <point x="30" y="20" type="line"/>
      <point x="40" y="20" type="line"/>
      <point x="40" y="10" type="line"/>
      <point x="70" y="10" type="line"/>
      <point x="70" y="0" type="line"/>
      <point x="30" y="0" type="line"/>
      <point x="30" y="10" type="line"/>
      <point x="20" y="10" type="line"/>
      <point x="20" y="20" type="line"/>
      <point x="10" y="20" type="line"/>
    </contour>
    <contour>
      <point x="70" y="10" type="line"/>
      <point x="70" y="20" type="line"/>
      <point x="80" y="20" type="line"/>
      <point x="80" y="90" type="line"/>
      <point x="70" y="90" type="line"/>
      <point x="70" y="100" type="line"/>
      <point x="100" y="100" type="line"/>
      <point x="100" y="90" type="line"/>
      <point x="90" y="90" type="line"/>
      <point x="90" y="20" type="line"/>
      <point x="80" y="20" type="line"/>
      <point x="80" y="10" type="line"/>
    </contour>
    <contour>
      <point x="50" y="90" type="line"/>
      <point x="50" y="100" type="line"/>
      <point x="60" y="100" type="line"/>
      <point x="60" y="90" type="line"/>
    </contour>
  </outline>
</glyph>
<glyph name="uhoi" format="2">
  <advance width="110"/>
  <unicode hex="1EE7"/>
  <outline>
    <contour>
      <point x="0" y="90" type="line"/>
      <point x="30" y="90" type="line"/>
      <point x="30" y="20" type="line"/>
      <point x="40" y="20" type="line"/>
      <point x="40" y="10" type="line"/>
      <point x="60" y="10" type="line"/>
      <point x="60" y="20" type="line"/>
      <point x="70" y="20" type="line"/>
      <point x="70" y="80" type="line"/>
      <point x="60" y="80" type="line"/>
      <point x="60" y="90" type="line"/>
      <point x="90" y="90" type="line"/>
      <point x="90" y="10" type="line"/>
      <point x="100" y="10" type="line"/>
      <point x="100" y="0" type="line"/>
      <point x="70" y="0" type="line"/>
      <point x="70" y="10" type="line"/>
      <point x="60" y="10" type="line"/>
      <point x="60" y="0" type="line"/>
      <point x="30" y="0" type="line"/>
      <point x="30" y="10" type="line"/>
      <point x="20" y="10" type="line"/>
      <point x="20" y="20" type="line"/>
      <point x="10" y="20" type="line"/>
      <point x="10" y="80" type="line"/>
      <point x="0" y="80" type="line"/>
    </contour>
    <contour>
      <point x="50" y="110" type="line"/>
      <point x="30" y="110" type="line"/>
      <point x="30" y="120" type="line"/>
      <point x="50" y="120" type="line"/>
      <point x="50" y="110" type="line"/>
      <point x="60" y="110" type="line"/>
      <point x="60" y="100" type="line"/>
      <point x="50" y="100" type="line"/>
      <point x="50" y="90" type="line"/>
      <point x="40" y="90" type="line"/>
      <point x="40" y="100" type="line"/>
      <point x="50" y="100" type="line"/>
    </contour>
  </outline>
</glyph>
<glyph name="uhorndotbelow" format="2">
  <advance width="110"/>
  <unicode hex="1EF1"/>
  <outline>
    <contour>
      <point x="0" y="90" type="line"/>
      <point x="30" y="90" type="line"/>
      <point x="30" y="20" type="line"/>
      <point x="50" y="20" type="line"/>
      <point x="50" y="30" type="line"/>
      <point x="60" y="30" type="line"/>
      <point x="60" y="80" type="line"/>
      <point x="50" y="80" type="line"/>
      <point x="50" y="90" type="line"/>
      <point x="80" y="90" type="line"/>
      <point x="80" y="70" type="line"/>
      <point x="90" y="70" type="line"/>
      <point x="90" y="90" type="line"/>
      <point x="100" y="90" type="line"/>
      <point x="100" y="70" type="line"/>
      <point x="90" y="70" type="line"/>
      <point x="90" y="60" type="line"/>
      <point x="80" y="60" type="line"/>
      <point x="80" y="20" type="line"/>
      <point x="90" y="20" type="line"/>
      <point x="90" y="10" type="line"/>
      <point x="60" y="10" type="line"/>
      <point x="60" y="20" type="line"/>
      <point x="50" y="20" type="line"/>
      <point x="50" y="10" type="line"/>
      <point x="20" y="10" type="line"/>
      <point x="20" y="20" type="line"/>
      <point x="10" y="20" type="line"/>
      <point x="10" y="80" type="line"/>
      <point x="0" y="80" type="line"/>
    </contour>
    <contour>
      <point x="40" y="0" type="line"/>
      <point x="60" y="0" type="line"/>
      <point x="60" y="-10" type="line"/>
      <point x="40" y="-10" type="line"/>
    </contour>
  </outline>
</glyph>
<glyph name="ygrave" format="2">
  <advance width="110"/>
  <unicode hex="1EF3"/>
  <outline>
    <component base="y"/>
    <contour>
      <point x="40" y="120" type="line"/>
      <point x="60" y="120" type="line"/>
      <point x="60" y="110" type="line"/>
      <point x="70" y="110" type="line"/>
      <point x="70" y="100" type="line"/>
      <point x="50" y="100" type="line"/>
      <point x="50" y="110" type="line"/>
      <point x="40" y="110" type="line"/>
    </contour>
  </outline>
</glyph>
<glyph name="ydotbelow" format="2">
  <advance width="110"/>
  <unicode hex="1EF5"/>
  <outline>
    <component base="y"/>
    <contour>
      <point x="70" y="-10" type="line"/>
      <point x="90" y="-10" type="line"/>
      <point x="90" y="0" type="line"/>
      <point x="70" y="0" type="line"/>
    </contour>
  </outline>
</glyph>
<glyph name="yhoi" format="2">
  <advance width="110"/>
  <unicode hex="1EF7"/>
  <outline>
    <component base="y"/>
    <contour>
      <point x="50" y="110" type="line"/>
      <point x="70" y="110" type="line"/>
      <point x="70" y="120" type="line"/>
      <point x="50" y="120" type="line"/>
    </contour>
    <contour>
      <point x="70" y="100" type="line"/>
      <point x="80" y="100" type="line"/>
      <point x="80" y="110" type="line"/>
      <point x="70" y="110" type="line"/>
    </contour>
    <contour>
      <point x="60" y="90" type="line"/>
      <point x="70" y="90" type="line"/>
      <point x="70" y="100" type="line"/>
      <point x="60" y="100" type="line"/>
    </contour>
  </outline>
</glyph>
<glyph name="eight.superior" format="2">
  <advance width="110"/>
  <unicode hex="2078"/>
  <outline>
    <contour>
      <point x="20" y="120" type="line"/>
      <point x="20" y="110" type="line"/>
      <point x="10" y="110" type="line"/>
      <point x="10" y="90" type="line"/>
      <point x="20" y="90" type="line"/>
      <point x="20" y="80" type="line"/>
      <point x="10" y="80" type="line"/>
      <point x="10" y="60" type="line"/>
      <point x="20" y="60" type="line"/>
      <point x="20" y="50" type="line"/>
      <point x="70" y="50" type="line"/>
      <point x="70" y="60" type="line"/>
      <point x="80" y="60" type="line"/>
      <point x="80" y="80" type="line"/>
      <point x="70" y="80" type="line"/>
      <point x="70" y="90" type="line"/>
      <point x="80" y="90" type="line"/>
      <point x="80" y="110" type="line"/>
      <point x="70" y="110" type="line"/>
      <point x="70" y="120" type="line"/>
    </contour>
    <contour>
      <point x="30" y="110" type="line"/>
      <point x="60" y="110" type="line"/>
      <point x="60" y="90" type="line"/>
      <point x="30" y="90" type="line"/>
    </contour>
    <contour>
      <point x="30" y="80" type="line"/>
      <point x="60" y="80" type="line"/>
      <point x="60" y="60" type="line"/>
      <point x="30" y="60" type="line"/>
    </contour>
  </outline>
</glyph>
<glyph name="zero.inferior" format="2">
  <advance width="110"/>
  <unicode hex="2080"/>
  <outline>
    <contour>
      <point x="10" y="50" type="line"/>
      <point x="20" y="50" type="line"/>
      <point x="20" y="60" type="line"/>
      <point x="70" y="60" type="line"/>
      <point x="70" y="50" type="line"/>
      <point x="80" y="50" type="line"/>
      <point x="80" y="0" type="line"/>
      <point x="70" y="0" type="line"/>
      <point x="70" y="-10" type="line"/>
      <point x="20" y="-10" type="line"/>
      <point x="20" y="0" type="line"/>
      <point x="10" y="0" type="line"/>
    </contour>
    <contour>
      <point x="30" y="0" type="line"/>
      <point x="60" y="0" type="line"/>
      <point x="60" y="50" type="line"/>
      <point x="30" y="50" type="line"/>
    </contour>
  </outline>
</glyph>
<glyph name="one.inferior" format="2">
  <advance width="110"/>
  <unicode hex="2081"/>
  <outline>
    <contour>
      <point x="30" y="-10" type="line"/>
      <point x="70" y="-10" type="line"/>
      <point x="70" y="0" type="line"/>
      <point x="60" y="0" type="line"/>
      <point x="60" y="60" type="line"/>
      <point x="40" y="60" type="line"/>
      <point x="40" y="50" type="line"/>
      <point x="30" y="50" type="line"/>
      <point x="30" y="40" type="line"/>
      <point x="40" y="40" type="line"/>
      <point x="40" y="0" type="line"/>
      <point x="30" y="0" type="line"/>
    </contour>
  </outline>
</glyph>
<glyph name="four.inferior" format="2">
  <advance width="110"/>
  <unicode hex="2084"/>
  <outline>
    <contour>
      <point x="10" y="10" type="line"/>
      <point x="50" y="10" type="line"/>
      <point x="50" y="0" type="line"/>
      <point x="40" y="0" type="line"/>
      <point x="40" y="-10" type="line"/>
      <point x="80" y="-10" type="line"/>
      <point x="80" y="0" type="line"/>
      <point x="70" y="0" type="line"/>
      <point x="70" y="10" type="line"/>
      <point x="80" y="10" type="line"/>
      <point x="80" y="20" type="line"/>
      <point x="70" y="20" type="line"/>
      <point x="70" y="60" type="line"/>
      <point x="50" y="60" type="line"/>
      <point x="50" y="50" type="line"/>
      <point x="40" y="50" type="line"/>
      <point x="40" y="40" type="line"/>
      <point x="30" y="40" type="line"/>
      <point x="30" y="30" type="line"/>
      <point x="20" y="30" type="line"/>
      <point x="20" y="20" type="line"/>
      <point x="10" y="20" type="line"/>
    </contour>
    <contour>
      <point x="30" y="20" type="line"/>
      <point x="30" y="30" type="line"/>
      <point x="40" y="30" type="line"/>
      <point x="40" y="40" type="line"/>
      <point x="50" y="40" type="line"/>
      <point x="50" y="20" type="line"/>
    </contour>
  </outline>
</glyph>
<glyph name="five.inferior" format="2">
  <advance width="110"/>
  <unicode hex="2085"/>
  <outline>
    <contour>
      <point x="20" y="-10" type="line"/>
      <point x="20" y="0" type="line"/>
      <point x="10" y="0" type="line"/>
      <point x="10" y="10" type="line"/>
      <point x="30" y="10" type="line"/>
      <point x="30" y="0" type="line"/>
      <point x="60" y="0" type="line"/>
      <point x="60" y="30" type="line"/>
      <point x="30" y="30" type="line"/>
      <point x="30" y="20" type="line"/>
      <point x="10" y="20" type="line"/>
      <point x="10" y="60" type="line"/>
      <point x="80" y="60" type="line"/>
      <point x="80" y="50" type="line"/>
      <point x="20" y="50" type="line"/>
      <point x="20" y="40" type="line"/>
      <point x="70" y="40" type="line"/>
      <point x="70" y="30" type="line"/>
      <point x="81" y="30" type="line"/>
      <point x="81" y="0" type="line"/>
      <point x="70" y="0" type="line"/>
      <point x="70" y="-10" type="line"/>
    </contour>
  </outline>
</glyph>
<glyph name="minus.inferior" format="2">
  <advance width="110"/>
  <unicode hex="208B"/>
  <outline>
    <contour>
      <point x="20" y="20" type="line"/>
      <point x="70" y="20" type="line"/>
      <point x="70" y="30" type="line"/>
      <point x="20" y="30" type="line"/>
    </contour>
  </outline>
</glyph>
<glyph name="parenleft.inferior" format="2">
  <advance width="110"/>
  <unicode hex="208D"/>
  <outline>
    <contour>
      <point x="70" y="-10" type="line"/>
      <point x="70" y="0" type="line"/>
      <point x="60" y="0" type="line"/>
      <point x="60" y="10" type="line"/>
      <point x="50" y="10" type="line"/>
      <point x="50" y="40" type="line"/>
      <point x="60" y="40" type="line"/>
      <point x="60" y="50" type="line"/>
      <point x="70" y="50" type="line"/>
      <point x="70" y="60" type="line"/>
      <point x="50" y="60" type="line"/>
      <point x="50" y="50" type="line"/>
      <point x="40" y="50" type="line"/>
      <point x="40" y="40" type="line"/>
      <point x="30" y="40" type="line"/>
      <point x="30" y="10" type="line"/>
      <point x="40" y="10" type="line"/>
      <point x="40" y="0" type="line"/>
      <point x="50" y="0" type="line"/>
      <point x="50" y="-10" type="line"/>
    </contour>
  </outline>
</glyph>
<glyph name="parenright.inferior" format="2">
  <advance width="110"/>
  <unicode hex="208E"/>
  <outline>
    <contour>
      <point x="40" y="-10" type="line"/>
      <point x="60" y="-10" type="line"/>
      <point x="60" y="0" type="line"/>
      <point x="70" y="0" type="line"/>
      <point x="70" y="10" type="line"/>
      <point x="80" y="10" type="line"/>
      <point x="80" y="40" type="line"/>
      <point x="70" y="40" type="line"/>
      <point x="70" y="50" type="line"/>
      <point x="60" y="50" type="line"/>
      <point x="60" y="60" type="line"/>
      <point x="40" y="60" type="line"/>
      <point x="40" y="50" type="line"/>
      <point x="50" y="50" type="line"/>
      <point x="50" y="40" type="line"/>
      <point x="60" y="40" type="line"/>
      <point x="60" y="10" type="line"/>
      <point x="50" y="10" type="line"/>
      <point x="50" y="0" type="line"/>
      <point x="40" y="0" type="line"/>
    </contour>
  </outline>
</glyph>
<glyph name="hinferior" format="2">
  <advance width="110"/>
  <unicode hex="2095"/>
  <outline>
    <contour>
      <point x="40" y="30" type="line"/>
      <point x="50" y="30" type="line"/>
      <point x="50" y="-10" type="line"/>
      <point x="80" y="-10" type="line"/>
      <point x="80" y="0" type="line"/>
      <point x="70" y="0" type="line"/>
      <point x="70" y="30" type="line"/>
      <point x="60" y="30" type="line"/>
      <point x="60" y="40" type="line"/>
      <point x="40" y="40" type="line"/>
      <point x="40" y="60" type="line"/>
      <point x="10" y="60" type="line"/>
      <point x="10" y="50" type="line"/>
      <point x="20" y="50" type="line"/>
      <point x="20" y="0" type="line"/>
      <point x="10" y="0" type="line"/>
      <point x="10" y="-10" type="line"/>
      <point x="40" y="-10" type="line"/>
    </contour>
  </outline>
</glyph>
<glyph name="minferior" format="2">
  <advance width="110"/>
  <unicode hex="2098"/>
  <outline>
    <contour>
      <point x="0" y="0" type="line"/>
      <point x="0" y="-10" type="line"/>
      <point x="30" y="-10" type="line"/>
      <point x="30" y="30" type="line"/>
      <point x="40" y="30" type="line"/>
      <point x="40" y="-10" type="line"/>
      <point x="60" y="-10" type="line"/>
      <point x="60" y="30" type="line"/>
      <point x="70" y="30" type="line"/>
      <point x="70" y="-10" type="line"/>
      <point x="100" y="-10" type="line"/>
      <point x="100" y="0" type="line"/>
      <point x="90" y="0" type="line"/>
      <point x="90" y="30" type="line"/>
      <point x="80" y="30" type="line"/>
      <point x="80" y="40" type="line"/>
      <point x="60" y="40" type="line"/>
      <point x="60" y="30" type="line"/>
      <point x="50" y="30" type="line"/>
      <point x="50" y="40" type="line"/>
      <point x="30" y="40" type="line"/>
      <point x="30" y="30" type="line"/>
      <point x="20" y="30" type="line"/>
      <point x="20" y="40" type="line"/>
      <point x="0" y="40" type="line"/>
      <point x="0" y="30" type="line"/>
      <point x="10" y="30" type="line"/>
      <point x="10" y="0" type="line"/>
    </contour>
  </outline>
</glyph>
<glyph name="pinferior" format="2">
  <advance width="110"/>
  <unicode hex="209A"/>
  <outline>
    <contour>
      <point x="10" y="-10" type="line"/>
      <point x="50" y="-10" type="line"/>
      <point x="50" y="0" type="line"/>
      <point x="40" y="0" type="line"/>
      <point x="40" y="10" type="line"/>
      <point x="70" y="10" type="line"/>
      <point x="70" y="20" type="line"/>
      <point x="80" y="20" type="line"/>
      <point x="80" y="40" type="line"/>
      <point x="70" y="40" type="line"/>
      <point x="70" y="50" type="line"/>
      <point x="50" y="50" type="line"/>
      <point x="50" y="40" type="line"/>
      <point x="60" y="40" type="line"/>
      <point x="60" y="20" type="line"/>
      <point x="40" y="20" type="line"/>
      <point x="40" y="30" type="line"/>
      <point x="50" y="30" type="line"/>
      <point x="50" y="40" type="line"/>
      <point x="40" y="40" type="line"/>
      <point x="40" y="50" type="line"/>
      <point x="10" y="50" type="line"/>
      <point x="10" y="40" type="line"/>
      <point x="20" y="40" type="line"/>
      <point x="20" y="0" type="line"/>
      <point x="10" y="0" type="line"/>
    </contour>
  </outline>
</glyph>
<glyph name="plancktwopi" format="2">
  <advance width="110"/>
  <unicode hex="210F"/>
  <outline>
    <contour>
      <point x="30" y="70" type="line"/>
      <point x="40" y="70" type="line"/>
      <point x="40" y="80" type="line"/>
      <point x="70" y="80" type="line"/>
      <point x="70" y="70" type="line"/>
      <point x="80" y="70" type="line"/>
      <point x="80" y="60" type="line"/>
      <point x="90" y="60" type="line"/>
      <point x="90" y="10" type="line"/>
      <point x="100" y="10" type="line"/>
      <point x="100" y="0" type="line"/>
      <point x="60" y="0" type="line"/>
      <point x="60" y="10" type="line"/>
      <point x="70" y="10" type="line"/>
      <point x="70" y="60" type="line"/>
      <point x="60" y="60" type="line"/>
      <point x="60" y="70" type="line"/>
      <point x="40" y="70" type="line"/>
      <point x="40" y="60" type="line"/>
      <point x="30" y="60" type="line"/>
      <point x="30" y="10" type="line"/>
      <point x="40" y="10" type="line"/>
      <point x="40" y="0" type="line"/>
      <point x="0" y="0" type="line"/>
      <point x="0" y="10" type="line"/>
      <point x="10" y="10" type="line"/>
      <point x="10" y="80" type="line"/>
      <point x="0" y="80" type="line"/>
      <point x="0" y="90" type="line"/>
      <point x="10" y="90" type="line"/>
      <point x="10" y="110" type="line"/>
      <point x="0" y="110" type="line"/>
      <point x="0" y="120" type="line"/>
      <point x="30" y="120" type="line"/>
      <point x="30" y="100" type="line"/>
      <point x="50" y="100" type="line"/>
      <point x="50" y="110" type="line"/>
      <point x="70" y="110" type="line"/>
      <point x="70" y="100" type="line"/>
      <point x="50" y="100" type="line"/>
      <point x="50" y="90" type="line"/>
      <point x="30" y="90" type="line"/>
    </contour>
  </outline>
</glyph>
<glyph name="arrowdblright" format="2">
  <advance width="110"/>
  <unicode hex="21D2"/>
  <outline>
    <contour>
      <point x="10" y="40" type="line"/>
      <point x="10" y="50" type="line"/>
      <point x="90" y="50" type="line"/>
      <point x="90" y="70" type="line"/>
      <point x="10" y="70" type="line"/>
      <point x="10" y="80" type="line"/>
      <point x="70" y="80" type="line"/>
      <point x="70" y="90" type="line"/>
      <point x="60" y="90" type="line"/>
      <point x="60" y="100" type="line"/>
      <point x="70" y="100" type="line"/>
      <point x="70" y="90" type="line"/>
      <point x="80" y="90" type="line"/>
      <point x="80" y="80" type="line"/>
      <point x="90" y="80" type="line"/>
      <point x="90" y="70" type="line"/>
      <point x="100" y="70" type="line"/>
      <point x="100" y="50" type="line"/>
      <point x="90" y="50" type="line"/>
      <point x="90" y="40" type="line"/>
      <point x="80" y="40" type="line"/>
      <point x="80" y="30" type="line"/>
      <point x="70" y="30" type="line"/>
      <point x="70" y="20" type="line"/>
      <point x="60" y="20" type="line"/>
      <point x="60" y="30" type="line"/>
      <point x="70" y="30" type="line"/>
      <point x="70" y="40" type="line"/>
    </contour>
  </outline>
</glyph>
<glyph name="integral" format="2">
  <advance width="110"/>
  <unicode hex="222B"/>
  <outline>
    <contour>
      <point x="10" y="0" type="line"/>
      <point x="20" y="0" type="line"/>
      <point x="20" y="-10" type="line"/>
      <point x="50" y="-10" type="line"/>
      <point x="50" y="0" type="line"/>
      <point x="60" y="0" type="line"/>
      <point x="60" y="60" type="line"/>
      <point x="70" y="60" type="line"/>
      <point x="70" y="110" type="line"/>
      <point x="80" y="110" type="line"/>
      <point x="80" y="100" type="line"/>
      <point x="100" y="100" type="line"/>
      <point x="100" y="110" type="line"/>
      <point x="90" y="110" type="line"/>
      <point x="90" y="120" type="line"/>
      <point x="60" y="120" type="line"/>
      <point x="60" y="110" type="line"/>
      <point x="50" y="110" type="line"/>
      <point x="50" y="60" type="line"/>
      <point x="40" y="60" type="line"/>
      <point x="40" y="0" type="line"/>
      <point x="30" y="0" type="line"/>
      <point x="30" y="10" type="line"/>
      <point x="10" y="10" type="line"/>
    </contour>
  </outline>
</glyph>
<glyph name="trianglerightwhite" format="2">
  <advance width="110"/>
  <unicode hex="25B7"/>
  <outline>
    <contour>
      <point x="30" y="30" type="line"/>
      <point x="50" y="30" type="line"/>
      <point x="50" y="40" type="line"/>
      <point x="70" y="40" type="line"/>
      <point x="70" y="50" type="line"/>
      <point x="90" y="50" type="line"/>
      <point x="90" y="70" type="line"/>
      <point x="70" y="70" type="line"/>
      <point x="70" y="80" type="line"/>
      <point x="50" y="80" type="line"/>
      <point x="50" y="90" type="line"/>
      <point x="30" y="90" type="line"/>
      <point x="30" y="100" type="line"/>
      <point x="10" y="100" type="line"/>
      <point x="10" y="20" type="line"/>
      <point x="30" y="20" type="line"/>
    </contour>
    <contour>
      <point x="50" y="70" type="line"/>
      <point x="70" y="70" type="line"/>
      <point x="70" y="50" type="line"/>
      <point x="50" y="50" type="line"/>
      <point x="50" y="40" type="line"/>
      <point x="30" y="40" type="line"/>
      <point x="30" y="30" type="line"/>
      <point x="20" y="30" type="line"/>
      <point x="20" y="90" type="line"/>
      <point x="30" y="90" type="line"/>
      <point x="30" y="80" type="line"/>
      <point x="50" y="80" type="line"/>
    </contour>
  </outline>
</glyph>
<glyph name="whiteLargeSquare" format="2">
  <advance width="110"/>
  <unicode hex="2B1C"/>
  <outline>
    <contour>
      <point x="0" y="120" type="line"/>
      <point x="0" y="-10" type="line"/>
      <point x="100" y="-10" type="line"/>
      <point x="100" y="120" type="line"/>
    </contour>
    <contour>
      <point x="10" y="110" type="line"/>
      <point x="90" y="110" type="line"/>
      <point x="90" y="0" type="line"/>
      <point x="10" y="0" type="line"/>
    </contour>
  </outline>
</glyph>
<glyph name="ka-hira" format="2">
  <advance width="120"/>
  <unicode hex="304B"/>
  <outline>
    <contour>
      <point x="0" y="80" type="line"/>
      <point x="20" y="80" type="line"/>
      <point x="20" y="50" type="line"/>
      <point x="30" y="50" type="line"/>
      <point x="30" y="80" type="line"/>
      <point x="50" y="80" type="line"/>
      <point x="50" y="90" type="line"/>
      <point x="40" y="90" type="line"/>
      <point x="40" y="110" type="line"/>
      <point x="30" y="110" type="line"/>
      <point x="30" y="90" type="line"/>
      <point x="0" y="90" type="line"/>
    </contour>
    <contour>
      <point x="70" y="80" type="line"/>
      <point x="80" y="80" type="line"/>
      <point x="80" y="90" type="line"/>
      <point x="70" y="90" type="line"/>
    </contour>
    <contour>
      <point x="50" y="20" type="line"/>
      <point x="60" y="20" type="line"/>
      <point x="60" y="80" type="line"/>
      <point x="50" y="80" type="line"/>
    </contour>
    <contour>
      <point x="80" y="60" type="line"/>
      <point x="90" y="60" type="line"/>
      <point x="90" y="80" type="line"/>
      <point x="80" y="80" type="line"/>
    </contour>
    <contour>
      <point x="90" y="40" type="line"/>
      <point x="100" y="40" type="line"/>
      <point x="100" y="60" type="line"/>
      <point x="90" y="60" type="line"/>
    </contour>
    <contour>
      <point x="20" y="50" type="line"/>
      <point x="10" y="50" type="line"/>
      <point x="10" y="30" type="line"/>
      <point x="20" y="30" type="line"/>
    </contour>
    <contour>
      <point x="30" y="20" type="line"/>
      <point x="40" y="20" type="line"/>
      <point x="40" y="30" type="line"/>
      <point x="30" y="30" type="line"/>
    </contour>
    <contour>
      <point x="10" y="30" type="line"/>
      <point x="0" y="30" type="line"/>
      <point x="0" y="10" type="line"/>
      <point x="10" y="10" type="line"/>
    </contour>
    <contour>
      <point x="40" y="10" type="line"/>
      <point x="50" y="10" type="line"/>
      <point x="50" y="20" type="line"/>
      <point x="40" y="20" type="line"/>
    </contour>
  </outline>
</glyph>
<glyph name="ku-hira" format="2">
  <advance width="120"/>
  <unicode hex="304F"/>
  <outline>
    <contour>
      <point x="60" y="100" type="line"/>
      <point x="70" y="100" type="line"/>
      <point x="70" y="110" type="line"/>
      <point x="60" y="110" type="line"/>
    </contour>
    <contour>
      <point x="50" y="90" type="line"/>
      <point x="60" y="90" type="line"/>
      <point x="60" y="100" type="line"/>
      <point x="50" y="100" type="line"/>
    </contour>
    <contour>
      <point x="40" y="80" type="line"/>
      <point x="50" y="80" type="line"/>
      <point x="50" y="90" type="line"/>
      <point x="40" y="90" type="line"/>
    </contour>
    <contour>
      <point x="30" y="70" type="line"/>
      <point x="40" y="70" type="line"/>
      <point x="40" y="80" type="line"/>
      <point x="30" y="80" type="line"/>
    </contour>
    <contour>
      <point x="20" y="50" type="line"/>
      <point x="30" y="50" type="line"/>
      <point x="30" y="70" type="line"/>
      <point x="20" y="70" type="line"/>
    </contour>
    <contour>
      <point x="30" y="40" type="line"/>
      <point x="50" y="40" type="line"/>
      <point x="50" y="50" type="line"/>
      <point x="30" y="50" type="line"/>
    </contour>
    <contour>
      <point x="50" y="30" type="line"/>
      <point x="60" y="30" type="line"/>
      <point x="60" y="40" type="line"/>
      <point x="50" y="40" type="line"/>
    </contour>
    <contour>
      <point x="60" y="20" type="line"/>
      <point x="70" y="20" type="line"/>
      <point x="70" y="30" type="line"/>
      <point x="60" y="30" type="line"/>
    </contour>
    <contour>
      <point x="70" y="10" type="line"/>
      <point x="80" y="10" type="line"/>
      <point x="80" y="20" type="line"/>
      <point x="70" y="20" type="line"/>
    </contour>
  </outline>
</glyph>
<glyph name="ko-hira" format="2">
  <advance width="120"/>
  <unicode hex="3053"/>
  <outline>
    <contour>
      <point x="20" y="100" type="line"/>
      <point x="30" y="100" type="line"/>
      <point x="30" y="110" type="line"/>
      <point x="20" y="110" type="line"/>
    </contour>
    <contour>
      <point x="70" y="100" type="line"/>
      <point x="80" y="100" type="line"/>
      <point x="80" y="110" type="line"/>
      <point x="70" y="110" type="line"/>
    </contour>
    <contour>
      <point x="30" y="90" type="line"/>
      <point x="70" y="90" type="line"/>
      <point x="70" y="100" type="line"/>
      <point x="30" y="100" type="line"/>
    </contour>
    <contour>
      <point x="20" y="50" type="line"/>
      <point x="30" y="50" type="line"/>
      <point x="30" y="60" type="line"/>
      <point x="20" y="60" type="line"/>
    </contour>
    <contour>
      <point x="10" y="30" type="line"/>
      <point x="20" y="30" type="line"/>
      <point x="20" y="50" type="line"/>
      <point x="10" y="50" type="line"/>
    </contour>
    <contour>
      <point x="80" y="30" type="line"/>
      <point x="90" y="30" type="line"/>
      <point x="90" y="40" type="line"/>
      <point x="80" y="40" type="line"/>
    </contour>
    <contour>
      <point x="20" y="20" type="line"/>
      <point x="80" y="20" type="line"/>
      <point x="80" y="30" type="line"/>
      <point x="20" y="30" type="line"/>
    </contour>
  </outline>
</glyph>
<glyph name="si-hira" format="2">
  <advance width="120"/>
  <unicode hex="3057"/>
  <outline>
    <contour>
      <point x="10" y="100" type="line"/>
      <point x="20" y="100" type="line"/>
      <point x="20" y="110" type="line"/>
      <point x="10" y="110" type="line"/>
    </contour>
    <contour>
      <point x="20" y="30" type="line"/>
      <point x="30" y="30" type="line"/>
      <point x="30" y="100" type="line"/>
      <point x="20" y="100" type="line"/>
    </contour>
    <contour>
      <point x="80" y="30" type="line"/>
      <point x="90" y="30" type="line"/>
      <point x="90" y="50" type="line"/>
      <point x="80" y="50" type="line"/>
    </contour>
    <contour>
      <point x="30" y="20" type="line"/>
      <point x="40" y="20" type="line"/>
      <point x="40" y="30" type="line"/>
      <point x="30" y="30" type="line"/>
    </contour>
    <contour>
      <point x="70" y="20" type="line"/>
      <point x="80" y="20" type="line"/>
      <point x="80" y="30" type="line"/>
      <point x="70" y="30" type="line"/>
    </contour>
    <contour>
      <point x="40" y="10" type="line"/>
      <point x="70" y="10" type="line"/>
      <point x="70" y="20" type="line"/>
      <point x="40" y="20" type="line"/>
    </contour>
  </outline>
</glyph>
<glyph name="so-hira" format="2">
  <advance width="120"/>
  <unicode hex="305D"/>
  <outline>
    <contour>
      <point x="70" y="90" type="line"/>
      <point x="80" y="90" type="line"/>
      <point x="80" y="100" type="line"/>
      <point x="90" y="100" type="line"/>
      <point x="90" y="110" type="line"/>
      <point x="30" y="110" type="line"/>
      <point x="30" y="100" type="line"/>
      <point x="70" y="100" type="line"/>
    </contour>
    <contour>
      <point x="50" y="80" type="line"/>
      <point x="70" y="80" type="line"/>
      <point x="70" y="90" type="line"/>
      <point x="50" y="90" type="line"/>
    </contour>
    <contour>
      <point x="10" y="60" type="line"/>
      <point x="50" y="60" type="line"/>
      <point x="50" y="50" type="line"/>
      <point x="60" y="50" type="line"/>
      <point x="60" y="60" type="line"/>
      <point x="100" y="60" type="line"/>
      <point x="100" y="70" type="line"/>
      <point x="50" y="70" type="line"/>
      <point x="50" y="80" type="line"/>
      <point x="30" y="80" type="line"/>
      <point x="30" y="70" type="line"/>
      <point x="10" y="70" type="line"/>
    </contour>
    <contour>
      <point x="50" y="50" type="line"/>
      <point x="40" y="50" type="line"/>
      <point x="40" y="30" type="line"/>
      <point x="50" y="30" type="line"/>
    </contour>
    <contour>
      <point x="50" y="20" type="line"/>
      <point x="60" y="20" type="line"/>
      <point x="60" y="30" type="line"/>
      <point x="50" y="30" type="line"/>
    </contour>
    <contour>
      <point x="60" y="10" type="line"/>
      <point x="90" y="10" type="line"/>
      <point x="90" y="20" type="line"/>
      <point x="60" y="20" type="line"/>
    </contour>
  </outline>
</glyph>
<glyph name="tu-hira" format="2">
  <advance width="120"/>
  <unicode hex="3064"/>
  <outline>
    <contour>
      <point x="40" y="90" type="line"/>
      <point x="80" y="90" type="line"/>
      <point x="80" y="100" type="line"/>
      <point x="40" y="100" type="line"/>
    </contour>
    <contour>
      <point x="0" y="80" type="line"/>
      <point x="40" y="80" type="line"/>
      <point x="40" y="90" type="line"/>
      <point x="0" y="90" type="line"/>
    </contour>
    <contour>
      <point x="80" y="80" type="line"/>
      <point x="90" y="80" type="line"/>
      <point x="90" y="90" type="line"/>
      <point x="80" y="90" type="line"/>
    </contour>
    <contour>
      <point x="90" y="50" type="line"/>
      <point x="100" y="50" type="line"/>
      <point x="100" y="80" type="line"/>
      <point x="90" y="80" type="line"/>
    </contour>
    <contour>
      <point x="80" y="40" type="line"/>
      <point x="90" y="40" type="line"/>
      <point x="90" y="50" type="line"/>
      <point x="80" y="50" type="line"/>
    </contour>
    <contour>
      <point x="60" y="30" type="line"/>
      <point x="80" y="30" type="line"/>
      <point x="80" y="40" type="line"/>
      <point x="60" y="40" type="line"/>
    </contour>
    <contour>
      <point x="30" y="20" type="line"/>
      <point x="60" y="20" type="line"/>
      <point x="60" y="30" type="line"/>
      <point x="30" y="30" type="line"/>
    </contour>
  </outline>
</glyph>
<glyph name="te-hira" format="2">
  <advance width="120"/>
  <unicode hex="3066"/>
  <outline>
    <contour>
      <point x="40" y="90" type="line"/>
      <point x="60" y="90" type="line"/>
      <point x="60" y="80" type="line"/>
      <point x="70" y="80" type="line"/>
      <point x="70" y="90" type="line"/>
      <point x="100" y="90" type="line"/>
      <point x="100" y="100" type="line"/>
      <point x="40" y="100" type="line"/>
    </contour>
    <contour>
      <point x="0" y="80" type="line"/>
      <point x="40" y="80" type="line"/>
      <point x="40" y="90" type="line"/>
      <point x="0" y="90" type="line"/>
    </contour>
    <contour>
      <point x="50" y="70" type="line"/>
      <point x="60" y="70" type="line"/>
      <point x="60" y="80" type="line"/>
      <point x="50" y="80" type="line"/>
    </contour>
    <contour>
      <point x="40" y="30" type="line"/>
      <point x="50" y="30" type="line"/>
      <point x="50" y="70" type="line"/>
      <point x="40" y="70" type="line"/>
    </contour>
    <contour>
      <point x="50" y="20" type="line"/>
      <point x="60" y="20" type="line"/>
      <point x="60" y="30" type="line"/>
      <point x="50" y="30" type="line"/>
    </contour>
    <contour>
      <point x="60" y="10" type="line"/>
      <point x="90" y="10" type="line"/>
      <point x="90" y="20" type="line"/>
      <point x="60" y="20" type="line"/>
    </contour>
  </outline>
</glyph>
<glyph name="de-hira" format="2">
  <advance width="120"/>
  <unicode hex="3067"/>
  <outline>
    <component base="te-hira"/>
    <contour>
      <point x="100" y="60" type="line"/>
      <point x="110" y="60" type="line"/>
      <point x="110" y="80" type="line"/>
      <point x="100" y="80" type="line"/>
    </contour>
    <contour>
      <point x="80" y="60" type="line"/>
      <point x="90" y="60" type="line"/>
      <point x="90" y="80" type="line"/>
      <point x="80" y="80" type="line"/>
    </contour>
  </outline>
</glyph>
<glyph name="ri-hira" format="2">
  <advance width="120"/>
  <unicode hex="308A"/>
  <outline>
    <contour>
      <point x="60" y="100" type="line"/>
      <point x="70" y="100" type="line"/>
      <point x="70" y="110" type="line"/>
      <point x="60" y="110" type="line"/>
    </contour>
    <contour>
      <point x="30" y="90" type="line"/>
      <point x="40" y="90" type="line"/>
      <point x="40" y="110" type="line"/>
      <point x="30" y="110" type="line"/>
    </contour>
    <contour>
      <point x="70" y="30" type="line"/>
      <point x="80" y="30" type="line"/>
      <point x="80" y="100" type="line"/>
      <point x="70" y="100" type="line"/>
    </contour>
    <contour>
      <point x="20" y="50" type="line"/>
      <point x="30" y="50" type="line"/>
      <point x="30" y="90" type="line"/>
      <point x="20" y="90" type="line"/>
    </contour>
    <contour>
      <point x="40" y="50" type="line"/>
      <point x="50" y="50" type="line"/>
      <point x="50" y="60" type="line"/>
      <point x="40" y="60" type="line"/>
    </contour>
    <contour>
      <point x="30" y="40" type="line"/>
      <point x="40" y="40" type="line"/>
      <point x="40" y="50" type="line"/>
      <point x="30" y="50" type="line"/>
    </contour>
    <contour>
      <point x="60" y="20" type="line"/>
      <point x="70" y="20" type="line"/>
      <point x="70" y="30" type="line"/>
      <point x="60" y="30" type="line"/>
    </contour>
    <contour>
      <point x="40" y="10" type="line"/>
      <point x="60" y="10" type="line"/>
      <point x="60" y="20" type="line"/>
      <point x="40" y="20" type="line"/>
    </contour>
  </outline>
</glyph>
<glyph name="a-kata" format="2">
  <advance width="120"/>
  <unicode hex="30A2"/>
  <outline>
    <contour>
      <point x="90" y="90" type="line"/>
      <point x="100" y="90" type="line"/>
      <point x="100" y="110" type="line"/>
      <point x="10" y="110" type="line"/>
      <point x="10" y="100" type="line"/>
      <point x="90" y="100" type="line"/>
    </contour>
    <contour>
      <point x="80" y="80" type="line"/>
      <point x="90" y="80" type="line"/>
      <point x="90" y="90" type="line"/>
      <point x="80" y="90" type="line"/>
    </contour>
    <contour>
      <point x="40" y="70" type="line"/>
      <point x="50" y="70" type="line"/>
      <point x="50" y="80" type="line"/>
      <point x="40" y="80" type="line"/>
    </contour>
    <contour>
      <point x="70" y="70" type="line"/>
      <point x="80" y="70" type="line"/>
      <point x="80" y="80" type="line"/>
      <point x="70" y="80" type="line"/>
    </contour>
    <contour>
      <point x="50" y="30" type="line"/>
      <point x="60" y="30" type="line"/>
      <point x="60" y="60" type="line"/>
      <point x="70" y="60" type="line"/>
      <point x="70" y="70" type="line"/>
      <point x="50" y="70" type="line"/>
    </contour>
    <contour>
      <point x="40" y="20" type="line"/>
      <point x="50" y="20" type="line"/>
      <point x="50" y="30" type="line"/>
      <point x="40" y="30" type="line"/>
    </contour>
    <contour>
      <point x="30" y="10" type="line"/>
      <point x="40" y="10" type="line"/>
      <point x="40" y="20" type="line"/>
      <point x="30" y="20" type="line"/>
    </contour>
  </outline>
</glyph>
<glyph name="i-kata" format="2">
  <advance width="120"/>
  <unicode hex="30A4"/>
  <outline>
    <contour>
      <point x="90" y="100" type="line"/>
      <point x="100" y="100" type="line"/>
      <point x="100" y="110" type="line"/>
      <point x="90" y="110" type="line"/>
    </contour>
    <contour>
      <point x="80" y="90" type="line"/>
      <point x="90" y="90" type="line"/>
      <point x="90" y="100" type="line"/>
      <point x="80" y="100" type="line"/>
    </contour>
    <contour>
      <point x="70" y="80" type="line"/>
      <point x="80" y="80" type="line"/>
      <point x="80" y="90" type="line"/>
      <point x="70" y="90" type="line"/>
    </contour>
    <contour>
      <point x="60" y="10" type="line"/>
      <point x="70" y="10" type="line"/>
      <point x="70" y="80" type="line"/>
      <point x="50" y="80" type="line"/>
      <point x="50" y="70" type="line"/>
      <point x="60" y="70" type="line"/>
    </contour>
    <contour>
      <point x="50" y="70" type="line"/>
      <point x="30" y="70" type="line"/>
      <point x="30" y="60" type="line"/>
      <point x="50" y="60" type="line"/>
    </contour>
    <contour>
      <point x="30" y="60" type="line"/>
      <point x="10" y="60" type="line"/>
      <point x="10" y="50" type="line"/>
      <point x="30" y="50" type="line"/>
    </contour>
  </outline>
</glyph>
<glyph name="u-kata" format="2">
  <advance width="120"/>
  <unicode hex="30A6"/>
  <outline>
    <contour>
      <point x="80" y="50" type="line"/>
      <point x="90" y="50" type="line"/>
      <point x="90" y="90" type="line"/>
      <point x="50" y="90" type="line"/>
      <point x="50" y="110" type="line"/>
      <point x="40" y="110" type="line"/>
      <point x="40" y="90" type="line"/>
      <point x="10" y="90" type="line"/>
      <point x="10" y="50" type="line"/>
      <point x="20" y="50" type="line"/>
      <point x="20" y="80" type="line"/>
      <point x="80" y="80" type="line"/>
    </contour>
    <contour>
      <point x="70" y="30" type="line"/>
      <point x="80" y="30" type="line"/>
      <point x="80" y="50" type="line"/>
      <point x="70" y="50" type="line"/>
    </contour>
    <contour>
      <point x="60" y="20" type="line"/>
      <point x="70" y="20" type="line"/>
      <point x="70" y="30" type="line"/>
      <point x="60" y="30" type="line"/>
    </contour>
    <contour>
      <point x="40" y="10" type="line"/>
      <point x="60" y="10" type="line"/>
      <point x="60" y="20" type="line"/>
      <point x="40" y="20" type="line"/>
    </contour>
  </outline>
</glyph>
<glyph name="gi-kata" format="2">
  <advance width="120"/>
  <unicode hex="30AE"/>
  <outline>
    <contour>
      <point x="80" y="100" type="line"/>
      <point x="90" y="100" type="line"/>
      <point x="90" y="120" type="line"/>
      <point x="80" y="120" type="line"/>
    </contour>
    <contour>
      <point x="100" y="100" type="line"/>
      <point x="110" y="100" type="line"/>
      <point x="110" y="120" type="line"/>
      <point x="100" y="120" type="line"/>
    </contour>
    <contour>
      <point x="0" y="50" type="line"/>
      <point x="50" y="50" type="line"/>
      <point x="50" y="10" type="line"/>
      <point x="60" y="10" type="line"/>
      <point x="60" y="50" type="line"/>
      <point x="100" y="50" type="line"/>
      <point x="100" y="60" type="line"/>
      <point x="50" y="60" type="line"/>
      <point x="50" y="80" type="line"/>
      <point x="90" y="80" type="line"/>
      <point x="90" y="90" type="line"/>
      <point x="50" y="90" type="line"/>
      <point x="50" y="110" type="line"/>
      <point x="40" y="110" type="line"/>
      <point x="40" y="90" type="line"/>
      <point x="10" y="90" type="line"/>
      <point x="10" y="80" type="line"/>
      <point x="40" y="80" type="line"/>
      <point x="40" y="60" type="line"/>
      <point x="0" y="60" type="line"/>
    </contour>
  </outline>
</glyph>
<glyph name="gu-kata" format="2">
  <advance width="120"/>
  <unicode hex="30B0"/>
  <outline>
    <component base="ku-kata" xOffset="-10"/>
    <contour>
      <point x="80" y="100" type="line"/>
      <point x="90" y="100" type="line"/>
      <point x="90" y="120" type="line"/>
      <point x="80" y="120" type="line"/>
    </contour>
    <contour>
      <point x="100" y="100" type="line"/>
      <point x="110" y="100" type="line"/>
      <point x="110" y="120" type="line"/>
      <point x="100" y="120" type="line"/>
    </contour>
  </outline>
</glyph>
<glyph name="ko-kata" format="2">
  <advance width="120"/>
  <unicode hex="30B3"/>
  <outline>
    <contour>
      <point x="10" y="80" type="line"/>
      <point x="90" y="80" type="line"/>
      <point x="90" y="30" type="line"/>
      <point x="10" y="30" type="line"/>
      <point x="10" y="20" type="line"/>
      <point x="90" y="20" type="line"/>
      <point x="90" y="10" type="line"/>
      <point x="100" y="10" type="line"/>
      <point x="100" y="90" type="line"/>
      <point x="10" y="90" type="line"/>
    </contour>
  </outline>
</glyph>
<glyph name="go-kata" format="2">
  <advance width="120"/>
  <unicode hex="30B4"/>
  <outline>
    <component base="ko-kata"/>
    <contour>
      <point x="100" y="100" type="line"/>
      <point x="110" y="100" type="line"/>
      <point x="110" y="120" type="line"/>
      <point x="100" y="120" type="line"/>
    </contour>
    <contour>
      <point x="80" y="100" type="line"/>
      <point x="90" y="100" type="line"/>
      <point x="90" y="120" type="line"/>
      <point x="80" y="120" type="line"/>
    </contour>
  </outline>
</glyph>
<glyph name="si-kata" format="2">
  <advance width="120"/>
  <unicode hex="30B7"/>
  <outline>
    <contour>
      <point x="20" y="100" type="line"/>
      <point x="40" y="100" type="line"/>
      <point x="40" y="110" type="line"/>
      <point x="20" y="110" type="line"/>
    </contour>
    <contour>
      <point x="40" y="90" type="line"/>
      <point x="50" y="90" type="line"/>
      <point x="50" y="100" type="line"/>
      <point x="40" y="100" type="line"/>
    </contour>
    <contour>
      <point x="90" y="60" type="line"/>
      <point x="100" y="60" type="line"/>
      <point x="100" y="90" type="line"/>
      <point x="90" y="90" type="line"/>
    </contour>
    <contour>
      <point x="0" y="70" type="line"/>
      <point x="20" y="70" type="line"/>
      <point x="20" y="80" type="line"/>
      <point x="0" y="80" type="line"/>
    </contour>
    <contour>
      <point x="20" y="60" type="line"/>
      <point x="30" y="60" type="line"/>
      <point x="30" y="70" type="line"/>
      <point x="20" y="70" type="line"/>
    </contour>
    <contour>
      <point x="80" y="40" type="line"/>
      <point x="90" y="40" type="line"/>
      <point x="90" y="60" type="line"/>
      <point x="80" y="60" type="line"/>
    </contour>
    <contour>
      <point x="70" y="30" type="line"/>
      <point x="80" y="30" type="line"/>
      <point x="80" y="40" type="line"/>
      <point x="70" y="40" type="line"/>
    </contour>
    <contour>
      <point x="50" y="20" type="line"/>
      <point x="70" y="20" type="line"/>
      <point x="70" y="30" type="line"/>
      <point x="50" y="30" type="line"/>
    </contour>
    <contour>
      <point x="10" y="10" type="line"/>
      <point x="50" y="10" type="line"/>
      <point x="50" y="20" type="line"/>
      <point x="10" y="20" type="line"/>
    </contour>
  </outline>
</glyph>
<glyph name="ze-kata" format="2">
  <advance width="120"/>
  <unicode hex="30BC"/>
  <outline>
    <component base="se-kata"/>
    <contour>
      <point x="100" y="100" type="line"/>
      <point x="110" y="100" type="line"/>
      <point x="110" y="120" type="line"/>
      <point x="100" y="120" type="line"/>
    </contour>
    <contour>
      <point x="80" y="100" type="line"/>
      <point x="90" y="100" type="line"/>
      <point x="90" y="120" type="line"/>
      <point x="80" y="120" type="line"/>
    </contour>
  </outline>
</glyph>
<glyph name="to-kata" format="2">
  <advance width="120"/>
  <unicode hex="30C8"/>
  <outline>
    <contour>
      <point x="40" y="10" type="line"/>
      <point x="50" y="10" type="line"/>
      <point x="50" y="60" type="line"/>
      <point x="70" y="60" type="line"/>
      <point x="70" y="70" type="line"/>
      <point x="50" y="70" type="line"/>
      <point x="50" y="110" type="line"/>
      <point x="40" y="110" type="line"/>
    </contour>
    <contour>
      <point x="70" y="50" type="line"/>
      <point x="90" y="50" type="line"/>
      <point x="90" y="60" type="line"/>
      <point x="70" y="60" type="line"/>
    </contour>
  </outline>
</glyph>
<glyph name="no-kata" format="2">
  <advance width="120"/>
  <unicode hex="30CE"/>
  <outline>
    <contour>
      <point x="80" y="80" type="line"/>
      <point x="90" y="80" type="line"/>
      <point x="90" y="100" type="line"/>
      <point x="80" y="100" type="line"/>
    </contour>
    <contour>
      <point x="70" y="60" type="line"/>
      <point x="80" y="60" type="line"/>
      <point x="80" y="80" type="line"/>
      <point x="70" y="80" type="line"/>
    </contour>
    <contour>
      <point x="60" y="50" type="line"/>
      <point x="70" y="50" type="line"/>
      <point x="70" y="60" type="line"/>
      <point x="60" y="60" type="line"/>
    </contour>
    <contour>
      <point x="50" y="40" type="line"/>
      <point x="60" y="40" type="line"/>
      <point x="60" y="50" type="line"/>
      <point x="50" y="50" type="line"/>
    </contour>
    <contour>
      <point x="30" y="30" type="line"/>
      <point x="50" y="30" type="line"/>
      <point x="50" y="40" type="line"/>
      <point x="30" y="40" type="line"/>
    </contour>
    <contour>
      <point x="10" y="20" type="line"/>
      <point x="30" y="20" type="line"/>
      <point x="30" y="30" type="line"/>
      <point x="10" y="30" type="line"/>
    </contour>
  </outline>
</glyph>
<glyph name="ba-kata" format="2">
  <advance width="120"/>
  <unicode hex="30D0"/>
  <outline>
    <contour>
      <point x="20" y="50" type="line"/>
      <point x="30" y="50" type="line"/>
      <point x="30" y="100" type="line"/>
      <point x="20" y="100" type="line"/>
    </contour>
    <contour>
      <point x="70" y="80" type="line"/>
      <point x="80" y="80" type="line"/>
      <point x="80" y="90" type="line"/>
      <point x="70" y="90" type="line"/>
    </contour>
    <contour>
      <point x="80" y="60" type="line"/>
      <point x="90" y="60" type="line"/>
      <point x="90" y="80" type="line"/>
      <point x="80" y="80" type="line"/>
    </contour>
    <contour>
      <point x="90" y="20" type="line"/>
      <point x="100" y="20" type="line"/>
      <point x="100" y="60" type="line"/>
      <point x="90" y="60" type="line"/>
    </contour>
    <contour>
      <point x="10" y="20" type="line"/>
      <point x="20" y="20" type="line"/>
      <point x="20" y="50" type="line"/>
      <point x="10" y="50" type="line"/>
    </contour>
    <contour>
      <point x="0" y="10" type="line"/>
      <point x="10" y="10" type="line"/>
      <point x="10" y="20" type="line"/>
      <point x="0" y="20" type="line"/>
    </contour>
    <contour>
      <point x="100" y="100" type="line"/>
      <point x="110" y="100" type="line"/>
      <point x="110" y="120" type="line"/>
      <point x="100" y="120" type="line"/>
    </contour>
    <contour>
      <point x="80" y="100" type="line"/>
      <point x="90" y="100" type="line"/>
      <point x="90" y="120" type="line"/>
      <point x="80" y="120" type="line"/>
    </contour>
  </outline>
</glyph>
<glyph name="hi-kata" format="2">
  <advance width="120"/>
  <unicode hex="30D2"/>
  <outline>
    <contour>
      <point x="50" y="70" type="line"/>
      <point x="20" y="70" type="line"/>
      <point x="20" y="110" type="line"/>
      <point x="10" y="110" type="line"/>
      <point x="10" y="20" type="line"/>
      <point x="20" y="20" type="line"/>
      <point x="20" y="60" type="line"/>
      <point x="50" y="60" type="line"/>
    </contour>
    <contour>
      <point x="70" y="80" type="line"/>
      <point x="90" y="80" type="line"/>
      <point x="90" y="90" type="line"/>
      <point x="70" y="90" type="line"/>
    </contour>
    <contour>
      <point x="50" y="70" type="line"/>
      <point x="70" y="70" type="line"/>
      <point x="70" y="80" type="line"/>
      <point x="50" y="80" type="line"/>
    </contour>
    <contour>
      <point x="20" y="10" type="line"/>
      <point x="90" y="10" type="line"/>
      <point x="90" y="20" type="line"/>
      <point x="20" y="20" type="line"/>
    </contour>
  </outline>
</glyph>
<glyph name="pi-kata" format="2">
  <advance width="120"/>
  <unicode hex="30D4"/>
  <outline>
    <component base="hi-kata"/>
    <contour>
      <point x="90" y="100" type="line"/>
      <point x="110" y="100" type="line"/>
      <point x="110" y="120" type="line"/>
      <point x="90" y="120" type="line"/>
    </contour>
  </outline>
</glyph>
<glyph name="pu-kata" format="2">
  <advance width="120"/>
  <unicode hex="30D7"/>
  <outline>
    <contour>
      <point x="90" y="100" type="line"/>
      <point x="110" y="100" type="line"/>
      <point x="110" y="120" type="line"/>
      <point x="90" y="120" type="line"/>
    </contour>
    <contour>
      <point x="0" y="90" type="line"/>
      <point x="80" y="90" type="line"/>
      <point x="80" y="60" type="line"/>
      <point x="90" y="60" type="line"/>
      <point x="90" y="100" type="line"/>
      <point x="0" y="100" type="line"/>
    </contour>
    <contour>
      <point x="80" y="60" type="line"/>
      <point x="70" y="60" type="line"/>
      <point x="70" y="40" type="line"/>
      <point x="80" y="40" type="line"/>
    </contour>
    <contour>
      <point x="70" y="40" type="line"/>
      <point x="60" y="40" type="line"/>
      <point x="60" y="30" type="line"/>
      <point x="70" y="30" type="line"/>
    </contour>
    <contour>
      <point x="60" y="30" type="line"/>
      <point x="40" y="30" type="line"/>
      <point x="40" y="20" type="line"/>
      <point x="60" y="20" type="line"/>
    </contour>
    <contour>
      <point x="40" y="20" type="line"/>
      <point x="20" y="20" type="line"/>
      <point x="20" y="10" type="line"/>
      <point x="40" y="10" type="line"/>
    </contour>
  </outline>
</glyph>
<glyph name="pe-kata" format="2">
  <advance width="120"/>
  <unicode hex="30DA"/>
  <outline>
    <component base="he-kata"/>
    <contour>
      <point x="80" y="80" type="line"/>
      <point x="100" y="80" type="line"/>
      <point x="100" y="100" type="line"/>
      <point x="80" y="100" type="line"/>
    </contour>
  </outline>
</glyph>
<glyph name="bo-kata" format="2">
  <advance width="120"/>
  <unicode hex="30DC"/>
  <outline>
    <contour>
      <point x="80" y="100" type="line"/>
      <point x="90" y="100" type="line"/>
      <point x="90" y="120" type="line"/>
      <point x="80" y="120" type="line"/>
    </contour>
    <contour>
      <point x="100" y="100" type="line"/>
      <point x="110" y="100" type="line"/>
      <point x="110" y="120" type="line"/>
      <point x="100" y="120" type="line"/>
    </contour>
    <contour>
      <point x="10" y="80" type="line"/>
      <point x="50" y="80" type="line"/>
      <point x="50" y="20" type="line"/>
      <point x="40" y="20" type="line"/>
      <point x="40" y="10" type="line"/>
      <point x="60" y="10" type="line"/>
      <point x="60" y="80" type="line"/>
      <point x="100" y="80" type="line"/>
      <point x="100" y="90" type="line"/>
      <point x="60" y="90" type="line"/>
      <point x="60" y="110" type="line"/>
      <point x="50" y="110" type="line"/>
      <point x="50" y="90" type="line"/>
      <point x="10" y="90" type="line"/>
    </contour>
    <contour>
      <point x="20" y="40" type="line"/>
      <point x="30" y="40" type="line"/>
      <point x="30" y="60" type="line"/>
      <point x="20" y="60" type="line"/>
    </contour>
    <contour>
      <point x="90" y="40" type="line"/>
      <point x="90" y="60" type="line"/>
      <point x="80" y="60" type="line"/>
      <point x="80" y="40" type="line"/>
    </contour>
    <contour>
      <point x="10" y="20" type="line"/>
      <point x="20" y="20" type="line"/>
      <point x="20" y="40" type="line"/>
      <point x="10" y="40" type="line"/>
    </contour>
    <contour>
      <point x="100" y="20" type="line"/>
      <point x="100" y="40" type="line"/>
      <point x="90" y="40" type="line"/>
      <point x="90" y="20" type="line"/>
    </contour>
  </outline>
</glyph>
<glyph name="mu-kata" format="2">
  <advance width="120"/>
  <unicode hex="30E0"/>
  <outline>
    <contour>
      <point x="40" y="80" type="line"/>
      <point x="50" y="80" type="line"/>
      <point x="50" y="110" type="line"/>
      <point x="40" y="110" type="line"/>
    </contour>
    <contour>
      <point x="30" y="60" type="line"/>
      <point x="40" y="60" type="line"/>
      <point x="40" y="80" type="line"/>
      <point x="30" y="80" type="line"/>
    </contour>
    <contour>
      <point x="60" y="60" type="line"/>
      <point x="70" y="60" type="line"/>
      <point x="70" y="70" type="line"/>
      <point x="60" y="70" type="line"/>
    </contour>
    <contour>
      <point x="70" y="50" type="line"/>
      <point x="80" y="50" type="line"/>
      <point x="80" y="60" type="line"/>
      <point x="70" y="60" type="line"/>
    </contour>
    <contour>
      <point x="20" y="40" type="line"/>
      <point x="30" y="40" type="line"/>
      <point x="30" y="60" type="line"/>
      <point x="20" y="60" type="line"/>
    </contour>
    <contour>
      <point x="50" y="30" type="line"/>
      <point x="90" y="30" type="line"/>
      <point x="90" y="50" type="line"/>
      <point x="80" y="50" type="line"/>
      <point x="80" y="40" type="line"/>
      <point x="50" y="40" type="line"/>
    </contour>
    <contour>
      <point x="0" y="20" type="line"/>
      <point x="50" y="20" type="line"/>
      <point x="50" y="30" type="line"/>
      <point x="20" y="30" type="line"/>
      <point x="20" y="40" type="line"/>
      <point x="10" y="40" type="line"/>
      <point x="10" y="30" type="line"/>
      <point x="0" y="30" type="line"/>
    </contour>
    <contour>
      <point x="90" y="10" type="line"/>
      <point x="100" y="10" type="line"/>
      <point x="100" y="30" type="line"/>
      <point x="90" y="30" type="line"/>
    </contour>
  </outline>
</glyph>
<glyph name="mo-kata" format="2">
  <advance width="120"/>
  <unicode hex="30E2"/>
  <outline>
    <contour>
      <point x="0" y="50" type="line"/>
      <point x="40" y="50" type="line"/>
      <point x="40" y="20" type="line"/>
      <point x="50" y="20" type="line"/>
      <point x="50" y="50" type="line"/>
      <point x="100" y="50" type="line"/>
      <point x="100" y="60" type="line"/>
      <point x="50" y="60" type="line"/>
      <point x="50" y="90" type="line"/>
      <point x="90" y="90" type="line"/>
      <point x="90" y="100" type="line"/>
      <point x="10" y="100" type="line"/>
      <point x="10" y="90" type="line"/>
      <point x="40" y="90" type="line"/>
      <point x="40" y="60" type="line"/>
      <point x="0" y="60" type="line"/>
    </contour>
    <contour>
      <point x="50" y="10" type="line"/>
      <point x="90" y="10" type="line"/>
      <point x="90" y="20" type="line"/>
      <point x="50" y="20" type="line"/>
    </contour>
  </outline>
</glyph>
<glyph name="yasmall-kata" format="2">
  <advance width="120"/>
  <unicode hex="30E3"/>
  <outline>
    <contour>
      <point x="20" y="50" type="line"/>
      <point x="40" y="50" type="line"/>
      <point x="40" y="40" type="line"/>
      <point x="50" y="40" type="line"/>
      <point x="50" y="50" type="line"/>
      <point x="60" y="50" type="line"/>
      <point x="60" y="60" type="line"/>
      <point x="50" y="60" type="line"/>
      <point x="50" y="80" type="line"/>
      <point x="40" y="80" type="line"/>
      <point x="40" y="60" type="line"/>
      <point x="20" y="60" type="line"/>
    </contour>
    <contour>
      <point x="60" y="60" type="line"/>
      <point x="80" y="60" type="line"/>
      <point x="80" y="50" type="line"/>
      <point x="90" y="50" type="line"/>
      <point x="90" y="70" type="line"/>
      <point x="60" y="70" type="line"/>
    </contour>
    <contour>
      <point x="70" y="40" type="line"/>
      <point x="80" y="40" type="line"/>
      <point x="80" y="50" type="line"/>
      <point x="70" y="50" type="line"/>
    </contour>
    <contour>
      <point x="50" y="10" type="line"/>
      <point x="60" y="10" type="line"/>
      <point x="60" y="40" type="line"/>
      <point x="50" y="40" type="line"/>
    </contour>
  </outline>
</glyph>
<glyph name="wa-kata" format="2">
  <advance width="120"/>
  <unicode hex="30EF"/>
  <outline>
    <contour>
      <point x="90" y="60" type="line"/>
      <point x="100" y="60" type="line"/>
      <point x="100" y="110" type="line"/>
      <point x="10" y="110" type="line"/>
      <point x="10" y="70" type="line"/>
      <point x="20" y="70" type="line"/>
      <point x="20" y="100" type="line"/>
      <point x="90" y="100" type="line"/>
    </contour>
    <contour>
      <point x="80" y="40" type="line"/>
      <point x="90" y="40" type="line"/>
      <point x="90" y="60" type="line"/>
      <point x="80" y="60" type="line"/>
    </contour>
    <contour>
      <point x="70" y="30" type="line"/>
      <point x="80" y="30" type="line"/>
      <point x="80" y="40" type="line"/>
      <point x="70" y="40" type="line"/>
    </contour>
    <contour>
      <point x="60" y="20" type="line"/>
      <point x="70" y="20" type="line"/>
      <point x="70" y="30" type="line"/>
      <point x="60" y="30" type="line"/>
    </contour>
    <contour>
      <point x="40" y="10" type="line"/>
      <point x="60" y="10" type="line"/>
      <point x="60" y="20" type="line"/>
      <point x="40" y="20" type="line"/>
    </contour>
  </outline>
</glyph>
<glyph name="prolongedkana-kata" format="2">
  <advance width="120"/>
  <unicode hex="30FC"/>
  <outline>
    <contour>
      <point x="0" y="70" type="line"/>
      <point x="10" y="70" type="line"/>
      <point x="10" y="80" type="line"/>
      <point x="0" y="80" type="line"/>
    </contour>
    <contour>
      <point x="10" y="60" type="line"/>
      <point x="110" y="60" type="line"/>
      <point x="110" y="70" type="line"/>
      <point x="10" y="70" type="line"/>
    </contour>
  </outline>
</glyph>
<glyph name="uni4E00" format="2">
  <advance width="120"/>
  <unicode hex="4E00"/>
  <outline>
    <contour>
      <point x="0" y="60" type="line"/>
      <point x="110" y="60" type="line"/>
      <point x="110" y="70" type="line"/>
      <point x="0" y="70" type="line"/>
    </contour>
  </outline>
</glyph>
<glyph name="uni4E09" format="2">
  <advance width="120"/>
  <unicode hex="4E09"/>
  <outline>
    <contour>
      <point x="10" y="110" type="line"/>
      <point x="100" y="110" type="line"/>
      <point x="100" y="100" type="line"/>
      <point x="10" y="100" type="line"/>
    </contour>
    <contour>
      <point x="20" y="70" type="line"/>
      <point x="90" y="70" type="line"/>
      <point x="90" y="60" type="line"/>
      <point x="20" y="60" type="line"/>
    </contour>
    <contour>
      <point x="0" y="20" type="line"/>
      <point x="110" y="20" type="line"/>
      <point x="110" y="10" type="line"/>
      <point x="0" y="10" type="line"/>
    </contour>
  </outline>
</glyph>
<glyph name="uni4E0A" format="2">
  <advance width="120"/>
  <unicode hex="4E0A"/>
  <outline>
    <contour>
      <point x="0" y="20" type="line"/>
      <point x="50" y="20" type="line"/>
      <point x="50" y="120" type="line"/>
      <point x="60" y="120" type="line"/>
      <point x="60" y="80" type="line"/>
      <point x="100" y="80" type="line"/>
      <point x="100" y="70" type="line"/>
      <point x="60" y="70" type="line"/>
      <point x="60" y="20" type="line"/>
      <point x="110" y="20" type="line"/>
      <point x="110" y="10" type="line"/>
      <point x="0" y="10" type="line"/>
    </contour>
  </outline>
</glyph>
<glyph name="uni4E38" format="2">
  <advance width="120"/>
  <unicode hex="4E38"/>
  <outline>
    <contour>
      <point x="30" y="30" type="line"/>
      <point x="40" y="30" type="line"/>
      <point x="40" y="40" type="line"/>
      <point x="50" y="40" type="line"/>
      <point x="50" y="30" type="line"/>
      <point x="60" y="30" type="line"/>
      <point x="60" y="40" type="line"/>
      <point x="50" y="40" type="line"/>
      <point x="50" y="80" type="line"/>
      <point x="70" y="80" type="line"/>
      <point x="70" y="0" type="line"/>
      <point x="110" y="0" type="line"/>
      <point x="110" y="30" type="line"/>
      <point x="100" y="30" type="line"/>
      <point x="100" y="10" type="line"/>
      <point x="80" y="10" type="line"/>
      <point x="80" y="90" type="line"/>
      <point x="50" y="90" type="line"/>
      <point x="50" y="120" type="line"/>
      <point x="40" y="120" type="line"/>
      <point x="40" y="90" type="line"/>
      <point x="0" y="90" type="line"/>
      <point x="0" y="80" type="line"/>
      <point x="40" y="80" type="line"/>
      <point x="40" y="50" type="line"/>
      <point x="30" y="50" type="line"/>
      <point x="30" y="60" type="line"/>
      <point x="20" y="60" type="line"/>
      <point x="20" y="50" type="line"/>
      <point x="30" y="50" type="line"/>
    </contour>
    <contour>
      <point x="10" y="10" type="line"/>
      <point x="20" y="10" type="line"/>
      <point x="20" y="20" type="line"/>
      <point x="10" y="20" type="line"/>
    </contour>
    <contour>
      <point x="20" y="20" type="line"/>
      <point x="30" y="20" type="line"/>
      <point x="30" y="30" type="line"/>
      <point x="20" y="30" type="line"/>
    </contour>
    <contour>
      <point x="0" y="0" type="line"/>
      <point x="10" y="0" type="line"/>
      <point x="10" y="10" type="line"/>
      <point x="0" y="10" type="line"/>
    </contour>
  </outline>
</glyph>
<glyph name="uni4E3B" format="2">
  <advance width="120"/>
  <unicode hex="4E3B"/>
  <outline>
    <contour>
      <point x="10" y="90" type="line"/>
      <point x="50" y="90" type="line"/>
      <point x="50" y="110" type="line"/>
      <point x="40" y="110" type="line"/>
      <point x="40" y="120" type="line"/>
      <point x="50" y="120" type="line"/>
      <point x="50" y="110" type="line"/>
      <point x="60" y="110" type="line"/>
      <point x="60" y="90" type="line"/>
      <point x="100" y="90" type="line"/>
      <point x="100" y="80" type="line"/>
      <point x="60" y="80" type="line"/>
      <point x="60" y="50" type="line"/>
      <point x="100" y="50" type="line"/>
      <point x="100" y="40" type="line"/>
      <point x="60" y="40" type="line"/>
      <point x="60" y="10" type="line"/>
      <point x="110" y="10" type="line"/>
      <point x="110" y="0" type="line"/>
      <point x="0" y="0" type="line"/>
      <point x="0" y="10" type="line"/>
      <point x="50" y="10" type="line"/>
      <point x="50" y="40" type="line"/>
      <point x="10" y="40" type="line"/>
      <point x="10" y="50" type="line"/>
      <point x="50" y="50" type="line"/>
      <point x="50" y="80" type="line"/>
      <point x="10" y="80" type="line"/>
    </contour>
  </outline>
</glyph>
<glyph name="uni4E8C" format="2">
  <advance width="120"/>
  <unicode hex="4E8C"/>
  <outline>
    <contour>
      <point x="0" y="30" type="line"/>
      <point x="110" y="30" type="line"/>
      <point x="110" y="20" type="line"/>
      <point x="0" y="20" type="line"/>
    </contour>
    <contour>
      <point x="10" y="100" type="line"/>
      <point x="100" y="100" type="line"/>
      <point x="100" y="90" type="line"/>
      <point x="10" y="90" type="line"/>
    </contour>
  </outline>
</glyph>
<glyph name="uni4F5C" format="2">
  <advance width="120"/>
  <unicode hex="4F5C"/>
  <outline>
    <contour>
      <point x="30" y="100" type="line"/>
      <point x="40" y="100" type="line"/>
      <point x="40" y="120" type="line"/>
      <point x="30" y="120" type="line"/>
    </contour>
    <contour>
      <point x="20" y="0" type="line"/>
      <point x="30" y="0" type="line"/>
      <point x="30" y="100" type="line"/>
      <point x="20" y="100" type="line"/>
      <point x="20" y="80" type="line"/>
      <point x="10" y="80" type="line"/>
      <point x="10" y="70" type="line"/>
      <point x="20" y="70" type="line"/>
    </contour>
    <contour>
      <point x="50" y="70" type="line"/>
      <point x="60" y="70" type="line"/>
      <point x="60" y="90" type="line"/>
      <point x="50" y="90" type="line"/>
    </contour>
    <contour>
      <point x="10" y="70" type="line"/>
      <point x="0" y="70" type="line"/>
      <point x="0" y="60" type="line"/>
      <point x="10" y="60" type="line"/>
    </contour>
    <contour>
      <point x="40" y="60" type="line"/>
      <point x="50" y="60" type="line"/>
      <point x="50" y="70" type="line"/>
      <point x="40" y="70" type="line"/>
    </contour>
    <contour>
      <point x="60" y="90" type="line"/>
      <point x="70" y="90" type="line"/>
      <point x="70" y="0" type="line"/>
      <point x="80" y="0" type="line"/>
      <point x="80" y="40" type="line"/>
      <point x="110" y="40" type="line"/>
      <point x="110" y="50" type="line"/>
      <point x="80" y="50" type="line"/>
      <point x="80" y="60" type="line"/>
      <point x="110" y="60" type="line"/>
      <point x="110" y="70" type="line"/>
      <point x="80" y="70" type="line"/>
      <point x="80" y="90" type="line"/>
      <point x="110" y="90" type="line"/>
      <point x="110" y="100" type="line"/>
      <point x="70" y="100" type="line"/>
      <point x="70" y="120" type="line"/>
      <point x="60" y="120" type="line"/>
    </contour>
  </outline>
</glyph>
<glyph name="uni4F8B" format="2">
  <advance width="120"/>
  <unicode hex="4F8B"/>
  <outline>
    <contour>
      <point x="10" y="70" type="line"/>
      <point x="0" y="70" type="line"/>
      <point x="0" y="80" type="line"/>
      <point x="10" y="80" type="line"/>
      <point x="10" y="100" type="line"/>
      <point x="20" y="100" type="line"/>
      <point x="20" y="120" type="line"/>
      <point x="30" y="120" type="line"/>
      <point x="30" y="110" type="line"/>
      <point x="80" y="110" type="line"/>
      <point x="80" y="100" type="line"/>
      <point x="90" y="100" type="line"/>
      <point x="90" y="30" type="line"/>
      <point x="80" y="30" type="line"/>
      <point x="80" y="100" type="line"/>
      <point x="50" y="100" type="line"/>
      <point x="50" y="80" type="line"/>
      <point x="70" y="80" type="line"/>
      <point x="70" y="50" type="line"/>
      <point x="60" y="50" type="line"/>
      <point x="60" y="30" type="line"/>
      <point x="50" y="30" type="line"/>
      <point x="50" y="20" type="line"/>
      <point x="40" y="20" type="line"/>
      <point x="40" y="10" type="line"/>
      <point x="30" y="10" type="line"/>
      <point x="30" y="0" type="line"/>
      <point x="10" y="0" type="line"/>
    </contour>
    <contour>
      <point x="80" y="20" type="line"/>
      <point x="90" y="20" type="line"/>
      <point x="90" y="10" type="line"/>
      <point x="100" y="10" type="line"/>
      <point x="100" y="120" type="line"/>
      <point x="110" y="120" type="line"/>
      <point x="110" y="10" type="line"/>
      <point x="100" y="10" type="line"/>
      <point x="100" y="0" type="line"/>
      <point x="90" y="0" type="line"/>
      <point x="90" y="10" type="line"/>
      <point x="80" y="10" type="line"/>
    </contour>
    <contour>
      <point x="20" y="50" type="line"/>
      <point x="20" y="10" type="line"/>
      <point x="30" y="10" type="line"/>
      <point x="30" y="20" type="line"/>
      <point x="40" y="20" type="line"/>
      <point x="40" y="30" type="line"/>
      <point x="50" y="30" type="line"/>
      <point x="50" y="40" type="line"/>
      <point x="40" y="40" type="line"/>
      <point x="40" y="50" type="line"/>
      <point x="60" y="50" type="line"/>
      <point x="60" y="70" type="line"/>
      <point x="40" y="70" type="line"/>
      <point x="40" y="50" type="line"/>
    </contour>
    <contour>
      <point x="20" y="60" type="line"/>
      <point x="30" y="60" type="line"/>
      <point x="30" y="80" type="line"/>
      <point x="40" y="80" type="line"/>
      <point x="40" y="100" type="line"/>
      <point x="20" y="100" type="line"/>
    </contour>
  </outline>
</glyph>
<glyph name="uni518D" format="2">
  <advance width="120"/>
  <unicode hex="518D"/>
  <outline>
    <contour>
      <point x="0" y="20" type="line"/>
      <point x="10" y="20" type="line"/>
      <point x="10" y="0" type="line"/>
      <point x="20" y="0" type="line"/>
      <point x="20" y="20" type="line"/>
      <point x="90" y="20" type="line"/>
      <point x="90" y="10" type="line"/>
      <point x="80" y="10" type="line"/>
      <point x="80" y="0" type="line"/>
      <point x="100" y="0" type="line"/>
      <point x="100" y="20" type="line"/>
      <point x="110" y="20" type="line"/>
      <point x="110" y="30" type="line"/>
      <point x="100" y="30" type="line"/>
      <point x="100" y="90" type="line"/>
      <point x="60" y="90" type="line"/>
      <point x="60" y="100" type="line"/>
      <point x="110" y="100" type="line"/>
      <point x="110" y="110" type="line"/>
      <point x="0" y="110" type="line"/>
      <point x="0" y="100" type="line"/>
      <point x="50" y="100" type="line"/>
      <point x="50" y="90" type="line"/>
      <point x="10" y="90" type="line"/>
      <point x="10" y="30" type="line"/>
      <point x="0" y="30" type="line"/>
    </contour>
    <contour>
      <point x="20" y="80" type="line"/>
      <point x="50" y="80" type="line"/>
      <point x="50" y="60" type="line"/>
      <point x="20" y="60" type="line"/>
    </contour>
    <contour>
      <point x="60" y="60" type="line"/>
      <point x="60" y="80" type="line"/>
      <point x="90" y="80" type="line"/>
      <point x="90" y="60" type="line"/>
    </contour>
    <contour>
      <point x="50" y="30" type="line"/>
      <point x="60" y="30" type="line"/>
      <point x="60" y="50" type="line"/>
      <point x="90" y="50" type="line"/>
      <point x="90" y="30" type="line"/>
      <point x="20" y="30" type="line"/>
      <point x="20" y="50" type="line"/>
      <point x="50" y="50" type="line"/>
    </contour>
  </outline>
</glyph>
<glyph name="uni51FA" format="2">
  <advance width="120"/>
  <unicode hex="51FA"/>
  <outline>
    <contour>
      <point x="0" y="50" type="line"/>
      <point x="0" y="10" type="line"/>
      <point x="100" y="10" type="line"/>
      <point x="100" y="0" type="line"/>
      <point x="110" y="0" type="line"/>
      <point x="110" y="50" type="line"/>
      <point x="100" y="50" type="line"/>
      <point x="100" y="20" type="line"/>
      <point x="60" y="20" type="line"/>
      <point x="60" y="70" type="line"/>
      <point x="90" y="70" type="line"/>
      <point x="90" y="60" type="line"/>
      <point x="100" y="60" type="line"/>
      <point x="100" y="110" type="line"/>
      <point x="90" y="110" type="line"/>
      <point x="90" y="80" type="line"/>
      <point x="60" y="80" type="line"/>
      <point x="60" y="120" type="line"/>
      <point x="50" y="120" type="line"/>
      <point x="50" y="80" type="line"/>
      <point x="20" y="80" type="line"/>
      <point x="20" y="110" type="line"/>
      <point x="10" y="110" type="line"/>
      <point x="10" y="70" type="line"/>
      <point x="50" y="70" type="line"/>
      <point x="50" y="20" type="line"/>
      <point x="10" y="20" type="line"/>
      <point x="10" y="50" type="line"/>
    </contour>
  </outline>
</glyph>
<glyph name="uni529B" format="2">
  <advance width="120"/>
  <unicode hex="529B"/>
  <outline>
    <contour>
      <point x="100" y="80" type="line"/>
      <point x="50" y="80" type="line"/>
      <point x="50" y="40" type="line"/>
      <point x="40" y="40" type="line"/>
      <point x="40" y="20" type="line"/>
      <point x="30" y="20" type="line"/>
      <point x="30" y="10" type="line"/>
      <point x="20" y="10" type="line"/>
      <point x="20" y="0" type="line"/>
      <point x="0" y="0" type="line"/>
      <point x="0" y="10" type="line"/>
      <point x="20" y="10" type="line"/>
      <point x="20" y="20" type="line"/>
      <point x="30" y="20" type="line"/>
      <point x="30" y="40" type="line"/>
      <point x="40" y="40" type="line"/>
      <point x="40" y="80" type="line"/>
      <point x="0" y="80" type="line"/>
      <point x="0" y="90" type="line"/>
      <point x="40" y="90" type="line"/>
      <point x="40" y="120" type="line"/>
      <point x="50" y="120" type="line"/>
      <point x="50" y="90" type="line"/>
      <point x="110" y="90" type="line"/>
      <point x="110" y="20" type="line"/>
      <point x="100" y="20" type="line"/>
      <point x="100" y="10" type="line"/>
      <point x="90" y="10" type="line"/>
      <point x="90" y="0" type="line"/>
      <point x="80" y="0" type="line"/>
      <point x="80" y="10" type="line"/>
      <point x="70" y="10" type="line"/>
      <point x="70" y="20" type="line"/>
      <point x="80" y="20" type="line"/>
      <point x="80" y="10" type="line"/>
      <point x="90" y="10" type="line"/>
      <point x="90" y="20" type="line"/>
      <point x="100" y="20" type="line"/>
    </contour>
  </outline>
</glyph>
<glyph name="uni52A0" format="2">
  <advance width="120"/>
  <unicode hex="52A0"/>
  <outline>
    <contour>
      <point x="0" y="90" type="line"/>
      <point x="20" y="90" type="line"/>
      <point x="20" y="120" type="line"/>
      <point x="30" y="120" type="line"/>
      <point x="30" y="90" type="line"/>
      <point x="60" y="90" type="line"/>
      <point x="60" y="10" type="line"/>
      <point x="50" y="10" type="line"/>
      <point x="50" y="80" type="line"/>
      <point x="30" y="80" type="line"/>
      <point x="30" y="30" type="line"/>
      <point x="20" y="30" type="line"/>
      <point x="20" y="10" type="line"/>
      <point x="10" y="10" type="line"/>
      <point x="10" y="0" type="line"/>
      <point x="0" y="0" type="line"/>
      <point x="0" y="10" type="line"/>
      <point x="10" y="10" type="line"/>
      <point x="10" y="30" type="line"/>
      <point x="20" y="30" type="line"/>
      <point x="20" y="80" type="line"/>
      <point x="0" y="80" type="line"/>
    </contour>
    <contour>
      <point x="80" y="20" type="line"/>
      <point x="80" y="10" type="line"/>
      <point x="70" y="10" type="line"/>
      <point x="70" y="100" type="line"/>
      <point x="110" y="100" type="line"/>
      <point x="110" y="10" type="line"/>
      <point x="100" y="10" type="line"/>
      <point x="100" y="20" type="line"/>
    </contour>
    <contour>
      <point x="80" y="90" type="line"/>
      <point x="80" y="30" type="line"/>
      <point x="100" y="30" type="line"/>
      <point x="100" y="90" type="line"/>
    </contour>
    <contour>
      <point x="40" y="0" type="line"/>
      <point x="40" y="10" type="line"/>
      <point x="30" y="10" type="line"/>
      <point x="30" y="20" type="line"/>
      <point x="40" y="20" type="line"/>
      <point x="40" y="10" type="line"/>
      <point x="50" y="10" type="line"/>
      <point x="50" y="0" type="line"/>
    </contour>
  </outline>
</glyph>
<glyph name="uni5343" format="2">
  <advance width="120"/>
  <unicode hex="5343"/>
  <outline>
    <contour>
      <point x="60" y="120" type="line"/>
      <point x="100" y="120" type="line"/>
      <point x="100" y="110" type="line"/>
      <point x="60" y="110" type="line"/>
    </contour>
    <contour>
      <point x="10" y="110" type="line"/>
      <point x="60" y="110" type="line"/>
      <point x="60" y="70" type="line"/>
      <point x="110" y="70" type="line"/>
      <point x="110" y="60" type="line"/>
      <point x="60" y="60" type="line"/>
      <point x="60" y="0" type="line"/>
      <point x="50" y="0" type="line"/>
      <point x="50" y="60" type="line"/>
      <point x="0" y="60" type="line"/>
      <point x="0" y="70" type="line"/>
      <point x="50" y="70" type="line"/>
      <point x="50" y="100" type="line"/>
      <point x="10" y="100" type="line"/>
    </contour>
  </outline>
</glyph>
<glyph name="uni534A" format="2">
  <advance width="120"/>
  <unicode hex="534A"/>
  <outline>
    <contour>
      <point x="20" y="100" type="line"/>
      <point x="10" y="100" type="line"/>
      <point x="10" y="110" type="line"/>
      <point x="20" y="110" type="line"/>
    </contour>
    <contour>
      <point x="90" y="100" type="line"/>
      <point x="90" y="110" type="line"/>
      <point x="100" y="110" type="line"/>
      <point x="100" y="100" type="line"/>
    </contour>
    <contour>
      <point x="30" y="90" type="line"/>
      <point x="20" y="90" type="line"/>
      <point x="20" y="100" type="line"/>
      <point x="30" y="100" type="line"/>
    </contour>
    <contour>
      <point x="80" y="90" type="line"/>
      <point x="80" y="100" type="line"/>
      <point x="90" y="100" type="line"/>
      <point x="90" y="90" type="line"/>
    </contour>
    <contour>
      <point x="50" y="120" type="line"/>
      <point x="60" y="120" type="line"/>
      <point x="60" y="80" type="line"/>
      <point x="100" y="80" type="line"/>
      <point x="100" y="70" type="line"/>
      <point x="60" y="70" type="line"/>
      <point x="60" y="50" type="line"/>
      <point x="110" y="50" type="line"/>
      <point x="110" y="40" type="line"/>
      <point x="60" y="40" type="line"/>
      <point x="60" y="0" type="line"/>
      <point x="50" y="0" type="line"/>
      <point x="50" y="40" type="line"/>
      <point x="0" y="40" type="line"/>
      <point x="0" y="50" type="line"/>
      <point x="50" y="50" type="line"/>
      <point x="50" y="70" type="line"/>
      <point x="10" y="70" type="line"/>
      <point x="10" y="80" type="line"/>
      <point x="30" y="80" type="line"/>
      <point x="30" y="90" type="line"/>
      <point x="40" y="90" type="line"/>
      <point x="40" y="80" type="line"/>
      <point x="50" y="80" type="line"/>
    </contour>
    <contour>
      <point x="70" y="80" type="line"/>
      <point x="70" y="90" type="line"/>
      <point x="80" y="90" type="line"/>
      <point x="80" y="80" type="line"/>
    </contour>
  </outline>
</glyph>
<glyph name="uni5361" format="2">
  <advance width="120"/>
  <unicode hex="5361"/>
  <outline>
    <contour>
      <point x="60" y="60" type="line"/>
      <point x="110" y="60" type="line"/>
      <point x="110" y="70" type="line"/>
      <point x="60" y="70" type="line"/>
      <point x="60" y="90" type="line"/>
      <point x="100" y="90" type="line"/>
      <point x="100" y="100" type="line"/>
      <point x="60" y="100" type="line"/>
      <point x="60" y="120" type="line"/>
      <point x="50" y="120" type="line"/>
      <point x="50" y="70" type="line"/>
      <point x="0" y="70" type="line"/>
      <point x="0" y="60" type="line"/>
      <point x="50" y="60" type="line"/>
      <point x="50" y="0" type="line"/>
      <point x="60" y="0" type="line"/>
      <point x="60" y="40" type="line"/>
      <point x="80" y="40" type="line"/>
      <point x="80" y="30" type="line"/>
      <point x="90" y="30" type="line"/>
      <point x="90" y="20" type="line"/>
      <point x="100" y="20" type="line"/>
      <point x="100" y="30" type="line"/>
      <point x="90" y="30" type="line"/>
      <point x="90" y="40" type="line"/>
      <point x="80" y="40" type="line"/>
      <point x="80" y="50" type="line"/>
      <point x="60" y="50" type="line"/>
    </contour>
  </outline>
</glyph>
<glyph name="uni5409" format="2">
  <advance width="120"/>
  <unicode hex="5409"/>
  <outline>
    <contour>
      <point x="50" y="120" type="line"/>
      <point x="60" y="120" type="line"/>
      <point x="60" y="100" type="line"/>
      <point x="110" y="100" type="line"/>
      <point x="110" y="90" type="line"/>
      <point x="60" y="90" type="line"/>
      <point x="60" y="70" type="line"/>
      <point x="100" y="70" type="line"/>
      <point x="100" y="60" type="line"/>
      <point x="10" y="60" type="line"/>
      <point x="10" y="70" type="line"/>
      <point x="50" y="70" type="line"/>
      <point x="50" y="90" type="line"/>
      <point x="0" y="90" type="line"/>
      <point x="0" y="100" type="line"/>
      <point x="50" y="100" type="line"/>
    </contour>
    <contour>
      <point x="20" y="50" type="line"/>
      <point x="90" y="50" type="line"/>
      <point x="90" y="0" type="line"/>
      <point x="80" y="0" type="line"/>
      <point x="80" y="10" type="line"/>
      <point x="30" y="10" type="line"/>
      <point x="30" y="0" type="line"/>
      <point x="20" y="0" type="line"/>
    </contour>
    <contour>
      <point x="30" y="40" type="line"/>
      <point x="30" y="20" type="line"/>
      <point x="80" y="20" type="line"/>
      <point x="80" y="40" type="line"/>
    </contour>
  </outline>
</glyph>
<glyph name="uni57DF" format="2">
  <advance width="120"/>
  <unicode hex="57DF"/>
  <outline>
    <contour>
      <point x="0" y="80" type="line"/>
      <point x="10" y="80" type="line"/>
      <point x="10" y="30" type="line"/>
      <point x="0" y="30" type="line"/>
      <point x="0" y="20" type="line"/>
      <point x="10" y="20" type="line"/>
      <point x="10" y="30" type="line"/>
      <point x="30" y="30" type="line"/>
      <point x="30" y="20" type="line"/>
      <point x="50" y="20" type="line"/>
      <point x="50" y="30" type="line"/>
      <point x="70" y="30" type="line"/>
      <point x="70" y="20" type="line"/>
      <point x="60" y="20" type="line"/>
      <point x="60" y="10" type="line"/>
      <point x="50" y="10" type="line"/>
      <point x="50" y="0" type="line"/>
      <point x="60" y="0" type="line"/>
      <point x="60" y="10" type="line"/>
      <point x="70" y="10" type="line"/>
      <point x="70" y="20" type="line"/>
      <point x="90" y="20" type="line"/>
      <point x="90" y="10" type="line"/>
      <point x="100" y="10" type="line"/>
      <point x="100" y="0" type="line"/>
      <point x="110" y="0" type="line"/>
      <point x="110" y="30" type="line"/>
      <point x="100" y="30" type="line"/>
      <point x="100" y="20" type="line"/>
      <point x="90" y="20" type="line"/>
      <point x="90" y="30" type="line"/>
      <point x="90" y="50" type="line"/>
      <point x="100" y="50" type="line"/>
      <point x="100" y="80" type="line"/>
      <point x="90" y="80" type="line"/>
      <point x="90" y="50" type="line"/>
      <point x="80" y="50" type="line"/>
      <point x="80" y="90" type="line"/>
      <point x="90" y="90" type="line"/>
      <point x="100" y="90" type="line"/>
      <point x="110" y="90" type="line"/>
      <point x="110" y="100" type="line"/>
      <point x="100" y="100" type="line"/>
      <point x="100" y="120" type="line"/>
      <point x="90" y="120" type="line"/>
      <point x="90" y="100" type="line"/>
      <point x="80" y="100" type="line"/>
      <point x="80" y="120" type="line"/>
      <point x="70" y="120" type="line"/>
      <point x="70" y="100" type="line"/>
      <point x="30" y="100" type="line"/>
      <point x="30" y="90" type="line"/>
      <point x="20" y="90" type="line"/>
      <point x="20" y="120" type="line"/>
      <point x="10" y="120" type="line"/>
      <point x="10" y="90" type="line"/>
      <point x="0" y="90" type="line"/>
    </contour>
    <contour>
      <point x="20" y="80" type="line"/>
      <point x="30" y="80" type="line"/>
      <point x="30" y="90" type="line"/>
      <point x="70" y="90" type="line"/>
      <point x="70" y="50" type="line"/>
      <point x="80" y="50" type="line"/>
      <point x="80" y="30" type="line"/>
      <point x="70" y="30" type="line"/>
      <point x="70" y="40" type="line"/>
      <point x="50" y="40" type="line"/>
      <point x="50" y="30" type="line"/>
      <point x="30" y="30" type="line"/>
      <point x="30" y="40" type="line"/>
      <point x="20" y="40" type="line"/>
    </contour>
    <contour>
      <point x="30" y="50" type="line"/>
      <point x="50" y="50" type="line"/>
      <point x="60" y="50" type="line"/>
      <point x="60" y="80" type="line"/>
      <point x="30" y="80" type="line"/>
    </contour>
    <contour>
      <point x="40" y="70" type="line"/>
      <point x="50" y="70" type="line"/>
      <point x="50" y="60" type="line"/>
      <point x="40" y="60" type="line"/>
    </contour>
  </outline>
</glyph>
